# MagicaVoxel @ Ephtracy

# group
o 

# material
mtllib ArcadeGame.mtl
usemtl palette

# normals
vn -1 0 0
vn 1 0 0
vn 0 0 1
vn 0 0 -1
vn 0 -1 0
vn 0 1 0

# texcoords
vt 0.146484 0.5
vt 0.478516 0.5
vt 0.837891 0.5
vt 0.990234 0.5

# verts
v -3.2 0 -2.5
v -3.2 0 -2.6
v -3.2 0 -2.8
v -3.2 0 -3
v -3.2 0 -3.1
v -3.2 0 -3.3
v -3.2 0.2 -2.6
v -3.2 0.2 -2.7
v -3.2 0.2 -2.8
v -3.2 0.2 -2.9
v -3.2 0.2 -3
v -3.2 0.2 -3.1
v -3.2 0.2 -3.2
v -3.2 0.4 -2.7
v -3.2 0.4 -2.8
v -3.2 0.4 -2.9
v -3.2 0.4 -3
v -3.2 0.4 -3.1
v -3.2 0.4 -3.2
v -3.2 0.4 -3.3
v -3.2 0.6 -2.5
v -3.2 0.6 -2.8
v -3.2 0.6 -2.9
v -3.2 0.6 -3
v -3.2 0.6 -3.1
v -3.2 0.6 -3.2
v -3.2 0.6 -3.3
v -3.2 0.8 -2.9
v -3.2 0.8 -3
v -3.2 0.8 -3.1
v -3.2 0.8 -3.2
v -3.2 1 -3
v -3.2 1 -3.1
v -3.2 1 -3.2
v -3.2 1 -3.3
v -3.2 1.2 -2.7
v -3.2 1.2 -2.8
v -3.2 1.2 -3.1
v -3.2 1.2 -3.2
v -3.2 1.4 -3.2
v -3.2 1.4 -3.3
v -3.2 1.5 -2.7
v -3.2 1.5 -3.3
v -3.1 0.6 -2.6
v -3.1 0.6 -2.7
v -3.1 0.7 -2.6
v -3.1 0.7 -2.7
v -2.8 0.6 -2.6
v -2.8 0.6 -2.7
v -2.8 0.7 -2.6
v -2.8 0.7 -2.7
v -3 0.6 -2.6
v -3 0.6 -2.7
v -3 0.7 -2.6
v -3 0.7 -2.7
v -2.6 0.6 -2.6
v -2.6 0.6 -2.7
v -2.6 0.7 -2.6
v -2.6 0.7 -2.7
v -2.5 0 -2.5
v -2.5 0 -2.6
v -2.5 0 -2.8
v -2.5 0 -3
v -2.5 0 -3.1
v -2.5 0 -3.3
v -2.5 0.2 -2.6
v -2.5 0.2 -2.7
v -2.5 0.2 -2.8
v -2.5 0.2 -2.9
v -2.5 0.2 -3
v -2.5 0.2 -3.1
v -2.5 0.2 -3.2
v -2.5 0.4 -2.7
v -2.5 0.4 -2.8
v -2.5 0.4 -2.9
v -2.5 0.4 -3
v -2.5 0.4 -3.1
v -2.5 0.4 -3.2
v -2.5 0.4 -3.3
v -2.5 0.6 -2.5
v -2.5 0.6 -2.8
v -2.5 0.6 -2.9
v -2.5 0.6 -3
v -2.5 0.6 -3.1
v -2.5 0.6 -3.2
v -2.5 0.6 -3.3
v -2.5 0.8 -2.9
v -2.5 0.8 -3
v -2.5 0.8 -3.1
v -2.5 0.8 -3.2
v -2.5 1 -3
v -2.5 1 -3.1
v -2.5 1 -3.2
v -2.5 1 -3.3
v -2.5 1.2 -2.7
v -2.5 1.2 -2.8
v -2.5 1.2 -3.1
v -2.5 1.2 -3.2
v -2.5 1.4 -3.2
v -2.5 1.4 -3.3
v -2.5 1.5 -2.7
v -2.5 1.5 -3.3
v -3.2 0 -2.5
v -3.2 0.6 -2.5
v -3.1 0.1 -2.5
v -3.1 0.2 -2.5
v -3.1 0.3 -2.5
v -3.1 0.4 -2.5
v -3 0.1 -2.5
v -3 0.2 -2.5
v -3 0.3 -2.5
v -3 0.4 -2.5
v -3 0.5 -2.5
v -2.9 0.1 -2.5
v -2.9 0.2 -2.5
v -2.9 0.3 -2.5
v -2.9 0.4 -2.5
v -2.9 0.5 -2.5
v -2.8 0.1 -2.5
v -2.8 0.2 -2.5
v -2.8 0.3 -2.5
v -2.8 0.4 -2.5
v -2.8 0.5 -2.5
v -2.7 0.1 -2.5
v -2.7 0.2 -2.5
v -2.7 0.3 -2.5
v -2.7 0.4 -2.5
v -2.7 0.5 -2.5
v -2.6 0.1 -2.5
v -2.6 0.2 -2.5
v -2.6 0.3 -2.5
v -2.6 0.4 -2.5
v -2.5 0 -2.5
v -2.5 0.6 -2.5
v -3.1 0.6 -2.6
v -3.1 0.7 -2.6
v -3 0.6 -2.6
v -3 0.7 -2.6
v -2.8 0.6 -2.6
v -2.8 0.7 -2.6
v -2.6 0.6 -2.6
v -2.6 0.7 -2.6
v -3.2 1.2 -2.7
v -3.2 1.5 -2.7
v -3.1 1.3 -2.7
v -3.1 1.4 -2.7
v -2.6 1.3 -2.7
v -2.6 1.4 -2.7
v -2.5 1.2 -2.7
v -2.5 1.5 -2.7
v -3.2 0.6 -2.8
v -3.2 1.2 -2.8
v -3.1 0.7 -2.8
v -3.1 1.2 -2.8
v -2.6 0.7 -2.8
v -2.6 1.2 -2.8
v -2.5 0.6 -2.8
v -2.5 1.2 -2.8
v -3.1 0.6 -2.7
v -3.1 0.7 -2.7
v -3 0.6 -2.7
v -3 0.7 -2.7
v -2.8 0.6 -2.7
v -2.8 0.7 -2.7
v -2.6 0.6 -2.7
v -2.6 0.7 -2.7
v -3.2 0 -3.3
v -3.2 0.4 -3.3
v -3.2 0.6 -3.3
v -3.2 1 -3.3
v -3.2 1.4 -3.3
v -3.2 1.5 -3.3
v -2.5 0 -3.3
v -2.5 0.4 -3.3
v -2.5 0.6 -3.3
v -2.5 1 -3.3
v -2.5 1.4 -3.3
v -2.5 1.5 -3.3
v -3.2 0 -2.5
v -2.5 0 -2.5
v -3.2 0 -2.6
v -3.1 0 -2.6
v -2.6 0 -2.6
v -2.5 0 -2.6
v -3.2 0 -2.8
v -3.1 0 -2.8
v -2.6 0 -2.8
v -2.5 0 -2.8
v -3.2 0 -3
v -3.1 0 -3
v -2.6 0 -3
v -2.5 0 -3
v -3.2 0 -3.1
v -3.1 0 -3.1
v -2.6 0 -3.1
v -2.5 0 -3.1
v -3.2 0 -3.3
v -2.5 0 -3.3
v -3.2 1.2 -2.7
v -2.5 1.2 -2.7
v -3.2 1.2 -2.8
v -3.1 1.2 -2.8
v -2.6 1.2 -2.8
v -2.5 1.2 -2.8
v -3.2 0.6 -2.5
v -2.5 0.6 -2.5
v -3.1 0.6 -2.6
v -3 0.6 -2.6
v -2.8 0.6 -2.6
v -2.6 0.6 -2.6
v -3.1 0.6 -2.7
v -3 0.6 -2.7
v -2.8 0.6 -2.7
v -2.6 0.6 -2.7
v -3.2 0.6 -2.8
v -2.5 0.6 -2.8
v -3.1 0.7 -2.6
v -3 0.7 -2.6
v -2.8 0.7 -2.6
v -2.6 0.7 -2.6
v -3.1 0.7 -2.7
v -3 0.7 -2.7
v -2.8 0.7 -2.7
v -2.6 0.7 -2.7
v -3.2 1.5 -2.7
v -2.5 1.5 -2.7
v -3.2 1.5 -3.3
v -2.5 1.5 -3.3

# faces
f 7/3/1 2/3/1 1/3/1
f 7/2/1 3/2/1 2/2/1
f 8/2/1 3/2/1 7/2/1
f 9/3/1 4/3/1 3/3/1
f 9/2/1 3/2/1 8/2/1
f 10/3/1 4/3/1 9/3/1
f 11/2/1 5/2/1 4/2/1
f 11/3/1 4/3/1 10/3/1
f 12/3/1 6/3/1 5/3/1
f 12/2/1 5/2/1 11/2/1
f 13/3/1 6/3/1 12/3/1
f 14/2/1 10/2/1 9/2/1
f 14/3/1 8/3/1 7/3/1
f 14/2/1 9/2/1 8/2/1
f 15/2/1 10/2/1 14/2/1
f 16/3/1 11/3/1 10/3/1
f 16/2/1 10/2/1 15/2/1
f 16/3/1 12/3/1 11/3/1
f 17/3/1 12/3/1 16/3/1
f 18/2/1 13/2/1 12/2/1
f 18/3/1 12/3/1 17/3/1
f 19/3/1 6/3/1 13/3/1
f 19/2/1 13/2/1 18/2/1
f 20/3/1 6/3/1 19/3/1
f 21/3/1 15/3/1 14/3/1
f 21/3/1 7/3/1 1/3/1
f 21/3/1 14/3/1 7/3/1
f 22/2/1 17/2/1 16/2/1
f 22/3/1 15/3/1 21/3/1
f 22/2/1 16/2/1 15/2/1
f 23/2/1 17/2/1 22/2/1
f 24/3/1 18/3/1 17/3/1
f 24/2/1 17/2/1 23/2/1
f 24/3/1 19/3/1 18/3/1
f 25/3/1 19/3/1 24/3/1
f 26/2/1 20/2/1 19/2/1
f 26/3/1 19/3/1 25/3/1
f 27/2/1 20/2/1 26/2/1
f 28/3/1 23/3/1 22/3/1
f 28/2/1 25/2/1 24/2/1
f 28/2/1 24/2/1 23/2/1
f 29/2/1 25/2/1 28/2/1
f 30/3/1 27/3/1 26/3/1
f 30/2/1 25/2/1 29/2/1
f 30/3/1 26/3/1 25/3/1
f 31/3/1 27/3/1 30/3/1
f 32/3/1 29/3/1 28/3/1
f 32/2/1 30/2/1 29/2/1
f 32/2/1 31/2/1 30/2/1
f 33/2/1 31/2/1 32/2/1
f 34/3/1 27/3/1 31/3/1
f 34/2/1 31/2/1 33/2/1
f 35/3/1 27/3/1 34/3/1
f 37/3/1 33/3/1 32/3/1
f 37/3/1 28/3/1 22/3/1
f 37/3/1 32/3/1 28/3/1
f 38/2/1 35/2/1 34/2/1
f 38/2/1 34/2/1 33/2/1
f 38/3/1 33/3/1 37/3/1
f 39/2/1 35/2/1 38/2/1
f 40/3/1 37/3/1 36/3/1
f 40/2/1 35/2/1 39/2/1
f 40/3/1 39/3/1 38/3/1
f 40/3/1 38/3/1 37/3/1
f 41/2/1 35/2/1 40/2/1
f 42/3/1 40/3/1 36/3/1
f 42/3/1 41/3/1 40/3/1
f 43/3/1 41/3/1 42/3/1
f 46/1/1 45/1/1 44/1/1
f 47/1/1 45/1/1 46/1/1
f 50/1/1 49/1/1 48/1/1
f 51/1/1 49/1/1 50/1/1
f 52/1/2 53/1/2 54/1/2
f 54/1/2 53/1/2 55/1/2
f 56/1/2 57/1/2 58/1/2
f 58/1/2 57/1/2 59/1/2
f 60/3/2 61/3/2 66/3/2
f 61/2/2 62/2/2 66/2/2
f 66/2/2 62/2/2 67/2/2
f 62/3/2 63/3/2 68/3/2
f 67/2/2 62/2/2 68/2/2
f 68/3/2 63/3/2 69/3/2
f 63/2/2 64/2/2 70/2/2
f 69/3/2 63/3/2 70/3/2
f 64/3/2 65/3/2 71/3/2
f 70/2/2 64/2/2 71/2/2
f 71/3/2 65/3/2 72/3/2
f 68/2/2 69/2/2 73/2/2
f 66/3/2 67/3/2 73/3/2
f 67/2/2 68/2/2 73/2/2
f 73/2/2 69/2/2 74/2/2
f 69/3/2 70/3/2 75/3/2
f 74/2/2 69/2/2 75/2/2
f 70/3/2 71/3/2 75/3/2
f 75/3/2 71/3/2 76/3/2
f 71/2/2 72/2/2 77/2/2
f 76/3/2 71/3/2 77/3/2
f 72/3/2 65/3/2 78/3/2
f 77/2/2 72/2/2 78/2/2
f 78/3/2 65/3/2 79/3/2
f 73/3/2 74/3/2 80/3/2
f 60/3/2 66/3/2 80/3/2
f 66/3/2 73/3/2 80/3/2
f 75/2/2 76/2/2 81/2/2
f 80/3/2 74/3/2 81/3/2
f 74/2/2 75/2/2 81/2/2
f 81/2/2 76/2/2 82/2/2
f 76/3/2 77/3/2 83/3/2
f 82/2/2 76/2/2 83/2/2
f 77/3/2 78/3/2 83/3/2
f 83/3/2 78/3/2 84/3/2
f 78/2/2 79/2/2 85/2/2
f 84/3/2 78/3/2 85/3/2
f 85/2/2 79/2/2 86/2/2
f 81/3/2 82/3/2 87/3/2
f 83/2/2 84/2/2 87/2/2
f 82/2/2 83/2/2 87/2/2
f 87/2/2 84/2/2 88/2/2
f 85/3/2 86/3/2 89/3/2
f 88/2/2 84/2/2 89/2/2
f 84/3/2 85/3/2 89/3/2
f 89/3/2 86/3/2 90/3/2
f 87/3/2 88/3/2 91/3/2
f 88/2/2 89/2/2 91/2/2
f 89/2/2 90/2/2 91/2/2
f 91/2/2 90/2/2 92/2/2
f 90/3/2 86/3/2 93/3/2
f 92/2/2 90/2/2 93/2/2
f 93/3/2 86/3/2 94/3/2
f 91/3/2 92/3/2 96/3/2
f 81/3/2 87/3/2 96/3/2
f 87/3/2 91/3/2 96/3/2
f 93/2/2 94/2/2 97/2/2
f 92/2/2 93/2/2 97/2/2
f 96/3/2 92/3/2 97/3/2
f 97/2/2 94/2/2 98/2/2
f 95/3/2 96/3/2 99/3/2
f 98/2/2 94/2/2 99/2/2
f 97/3/2 98/3/2 99/3/2
f 96/3/2 97/3/2 99/3/2
f 99/2/2 94/2/2 100/2/2
f 95/3/2 99/3/2 101/3/2
f 99/3/2 100/3/2 101/3/2
f 101/3/2 100/3/2 102/3/2
f 105/3/3 104/3/3 103/3/3
f 106/3/3 104/3/3 105/3/3
f 107/3/3 104/3/3 106/3/3
f 108/3/3 104/3/3 107/3/3
f 109/3/3 105/3/3 103/3/3
f 109/2/3 106/2/3 105/2/3
f 110/3/3 107/3/3 106/3/3
f 110/2/3 106/2/3 109/2/3
f 111/2/3 108/2/3 107/2/3
f 111/3/3 107/3/3 110/3/3
f 112/3/3 104/3/3 108/3/3
f 112/2/3 108/2/3 111/2/3
f 113/3/3 104/3/3 112/3/3
f 114/3/3 110/3/3 109/3/3
f 114/3/3 109/3/3 103/3/3
f 115/2/3 111/2/3 110/2/3
f 115/3/3 110/3/3 114/3/3
f 116/3/3 112/3/3 111/3/3
f 116/2/3 111/2/3 115/2/3
f 117/2/3 113/2/3 112/2/3
f 117/3/3 112/3/3 116/3/3
f 118/3/3 104/3/3 113/3/3
f 118/2/3 113/2/3 117/2/3
f 119/3/3 114/3/3 103/3/3
f 119/2/3 115/2/3 114/2/3
f 120/3/3 116/3/3 115/3/3
f 120/2/3 115/2/3 119/2/3
f 121/2/3 117/2/3 116/2/3
f 121/3/3 116/3/3 120/3/3
f 122/3/3 118/3/3 117/3/3
f 122/2/3 117/2/3 121/2/3
f 123/3/3 104/3/3 118/3/3
f 123/3/3 118/3/3 122/3/3
f 124/3/3 120/3/3 119/3/3
f 124/3/3 119/3/3 103/3/3
f 125/2/3 121/2/3 120/2/3
f 125/3/3 120/3/3 124/3/3
f 126/3/3 122/3/3 121/3/3
f 126/2/3 121/2/3 125/2/3
f 127/2/3 123/2/3 122/2/3
f 127/3/3 122/3/3 126/3/3
f 128/3/3 104/3/3 123/3/3
f 128/2/3 123/2/3 127/2/3
f 129/2/3 125/2/3 124/2/3
f 129/3/3 124/3/3 103/3/3
f 130/3/3 126/3/3 125/3/3
f 130/2/3 125/2/3 129/2/3
f 131/2/3 127/2/3 126/2/3
f 131/3/3 126/3/3 130/3/3
f 132/3/3 128/3/3 127/3/3
f 132/2/3 127/2/3 131/2/3
f 133/3/3 130/3/3 129/3/3
f 133/3/3 129/3/3 103/3/3
f 133/3/3 132/3/3 131/3/3
f 133/3/3 131/3/3 130/3/3
f 134/3/3 104/3/3 128/3/3
f 134/3/3 132/3/3 133/3/3
f 134/3/3 128/3/3 132/3/3
f 137/1/3 136/1/3 135/1/3
f 138/1/3 136/1/3 137/1/3
f 141/1/3 140/1/3 139/1/3
f 142/1/3 140/1/3 141/1/3
f 145/3/3 144/3/3 143/3/3
f 146/3/3 144/3/3 145/3/3
f 147/3/3 145/3/3 143/3/3
f 147/2/3 146/2/3 145/2/3
f 148/3/3 144/3/3 146/3/3
f 148/2/3 146/2/3 147/2/3
f 149/3/3 147/3/3 143/3/3
f 149/3/3 148/3/3 147/3/3
f 150/3/3 144/3/3 148/3/3
f 150/3/3 148/3/3 149/3/3
f 153/3/3 152/3/3 151/3/3
f 154/3/3 152/3/3 153/3/3
f 155/3/3 153/3/3 151/3/3
f 155/4/3 154/4/3 153/4/3
f 156/4/3 154/4/3 155/4/3
f 157/3/3 155/3/3 151/3/3
f 157/3/3 156/3/3 155/3/3
f 158/3/3 156/3/3 157/3/3
f 159/1/4 160/1/4 161/1/4
f 161/1/4 160/1/4 162/1/4
f 163/1/4 164/1/4 165/1/4
f 165/1/4 164/1/4 166/1/4
f 167/3/4 168/3/4 173/3/4
f 168/2/4 169/2/4 174/2/4
f 173/3/4 168/3/4 174/3/4
f 169/3/4 170/3/4 175/3/4
f 174/2/4 169/2/4 175/2/4
f 170/2/4 171/2/4 176/2/4
f 175/3/4 170/3/4 176/3/4
f 171/3/4 172/3/4 177/3/4
f 176/2/4 171/2/4 177/2/4
f 177/3/4 172/3/4 178/3/4
f 181/3/5 180/3/5 179/3/5
f 182/3/5 180/3/5 181/3/5
f 183/3/5 180/3/5 182/3/5
f 184/3/5 180/3/5 183/3/5
f 185/2/5 182/2/5 181/2/5
f 186/3/5 183/3/5 182/3/5
f 186/2/5 182/2/5 185/2/5
f 187/2/5 184/2/5 183/2/5
f 187/3/5 183/3/5 186/3/5
f 188/2/5 184/2/5 187/2/5
f 189/3/5 186/3/5 185/3/5
f 189/3/5 187/3/5 186/3/5
f 189/3/5 188/3/5 187/3/5
f 190/3/5 188/3/5 189/3/5
f 191/3/5 188/3/5 190/3/5
f 192/3/5 188/3/5 191/3/5
f 193/2/5 190/2/5 189/2/5
f 194/3/5 191/3/5 190/3/5
f 194/2/5 190/2/5 193/2/5
f 195/2/5 192/2/5 191/2/5
f 195/3/5 191/3/5 194/3/5
f 196/2/5 192/2/5 195/2/5
f 197/3/5 194/3/5 193/3/5
f 197/3/5 195/3/5 194/3/5
f 197/3/5 196/3/5 195/3/5
f 198/3/5 196/3/5 197/3/5
f 201/3/5 200/3/5 199/3/5
f 202/3/5 200/3/5 201/3/5
f 203/3/5 200/3/5 202/3/5
f 204/3/5 200/3/5 203/3/5
f 205/3/6 206/3/6 207/3/6
f 207/3/6 206/3/6 208/3/6
f 208/3/6 206/3/6 209/3/6
f 209/3/6 206/3/6 210/3/6
f 205/3/6 207/3/6 211/3/6
f 208/3/6 209/3/6 212/3/6
f 212/3/6 209/3/6 213/3/6
f 210/3/6 206/3/6 214/3/6
f 212/3/6 213/3/6 215/3/6
f 213/3/6 214/3/6 215/3/6
f 205/3/6 211/3/6 215/3/6
f 211/3/6 212/3/6 215/3/6
f 214/3/6 206/3/6 216/3/6
f 215/3/6 214/3/6 216/3/6
f 217/1/6 218/1/6 221/1/6
f 221/1/6 218/1/6 222/1/6
f 219/1/6 220/1/6 223/1/6
f 223/1/6 220/1/6 224/1/6
f 225/3/6 226/3/6 227/3/6
f 227/3/6 226/3/6 228/3/6
