# MagicaVoxel @ Ephtracy

# group
o 

# material
mtllib Boombox.mtl
usemtl palette

# normals
vn -1 0 0
vn 1 0 0
vn 0 0 1
vn 0 0 -1
vn 0 -1 0
vn 0 1 0

# texcoords
vt 0.841797 0.5
vt 0.962891 0.5
vt 0.966797 0.5
vt 0.974609 0.5
vt 0.978516 0.5
vt 0.986328 0.5

# verts
v -0.8 0 0
v -0.8 0 -0.8
v -0.8 0.9 0
v -0.8 0.9 -0.8
v -0.7 0.2 0.1
v -0.7 0.2 0
v -0.7 0.5 0.1
v -0.7 0.5 0
v -0.7 1.2 -0.7
v -0.7 1.2 -0.8
v -0.7 1.3 -0.7
v -0.7 1.3 -0.8
v -0.6 0.1 0.1
v -0.6 0.1 0
v -0.6 0.2 0.1
v -0.6 0.2 0
v -0.6 0.5 0.1
v -0.6 0.5 0
v -0.6 0.6 0.1
v -0.6 0.6 0
v -0.6 0.8 -0.1
v -0.6 0.8 -0.2
v -0.6 0.9 -0.1
v -0.6 0.9 -0.2
v -0.5 0.9 -0.1
v -0.5 0.9 -0.2
v -0.5 0.9 -0.3
v -0.5 0.9 -0.5
v -0.5 1 -0.1
v -0.5 1 -0.2
v -0.5 1.3 -0.3
v -0.5 1.3 -0.5
v -0.4 1.1 -0.7
v -0.4 1.1 -0.8
v -0.4 1.2 -0.7
v -0.4 1.2 -0.8
v -0.2 0.9 -0.1
v -0.2 0.9 -0.2
v -0.2 1 -0.1
v -0.2 1 -0.2
v 0 1 -0.7
v 0 1 -0.8
v 0 1.1 -0.7
v 0 1.1 -0.8
v 0.1 0.9 -0.1
v 0.1 0.9 -0.2
v 0.1 1 -0.1
v 0.1 1 -0.2
v 0.3 0.9 -0.1
v 0.3 0.9 -0.2
v 0.3 1 -0.1
v 0.3 1 -0.2
v 0.4 0.9 -0.7
v 0.4 0.9 -0.8
v 0.4 1 -0.7
v 0.4 1 -0.8
v 0.5 0.2 0.1
v 0.5 0.2 0
v 0.5 0.5 0.1
v 0.5 0.5 0
v 0.5 0.9 -0.1
v 0.5 0.9 -0.2
v 0.5 1 -0.1
v 0.5 1 -0.2
v 0.6 0.1 0.1
v 0.6 0.1 0
v 0.6 0.2 0.1
v 0.6 0.2 0
v 0.6 0.5 0.1
v 0.6 0.5 0
v 0.6 0.6 0.1
v 0.6 0.6 0
v 0.6 0.9 -0.3
v 0.6 0.9 -0.5
v 0.6 1.1 -0.3
v 0.6 1.1 -0.5
v 0.8 0.8 -0.7
v 0.8 0.8 -0.8
v 0.8 0.9 -0.7
v 0.8 0.9 -0.8
v -0.7 0.8 -0.1
v -0.7 0.8 -0.2
v -0.7 0.8 -0.7
v -0.7 0.8 -0.8
v -0.7 0.9 -0.1
v -0.7 0.9 -0.2
v -0.7 0.9 -0.7
v -0.7 0.9 -0.8
v -0.4 1.2 -0.7
v -0.4 1.2 -0.8
v -0.4 1.3 -0.7
v -0.4 1.3 -0.8
v -0.3 0.1 0.1
v -0.3 0.1 0
v -0.3 0.2 0.1
v -0.3 0.2 0
v -0.3 0.5 0.1
v -0.3 0.5 0
v -0.3 0.6 0.1
v -0.3 0.6 0
v -0.3 0.9 -0.1
v -0.3 0.9 -0.2
v -0.3 0.9 -0.3
v -0.3 0.9 -0.5
v -0.3 1 -0.1
v -0.3 1 -0.2
v -0.3 1.1 -0.3
v -0.3 1.1 -0.5
v -0.2 0.2 0.1
v -0.2 0.2 0
v -0.2 0.5 0.1
v -0.2 0.5 0
v 0 0.9 -0.1
v 0 0.9 -0.2
v 0 1 -0.1
v 0 1 -0.2
v 0 1.1 -0.7
v 0 1.1 -0.8
v 0 1.2 -0.7
v 0 1.2 -0.8
v 0.2 0.9 -0.1
v 0.2 0.9 -0.2
v 0.2 1 -0.1
v 0.2 1 -0.2
v 0.4 0.9 -0.1
v 0.4 0.9 -0.2
v 0.4 1 -0.1
v 0.4 1 -0.2
v 0.4 1 -0.7
v 0.4 1 -0.8
v 0.4 1.1 -0.7
v 0.4 1.1 -0.8
v 0.8 0.9 -0.1
v 0.8 0.9 -0.2
v 0.8 0.9 -0.3
v 0.8 0.9 -0.5
v 0.8 0.9 -0.7
v 0.8 0.9 -0.8
v 0.8 1 -0.1
v 0.8 1 -0.2
v 0.8 1 -0.7
v 0.8 1 -0.8
v 0.8 1.3 -0.3
v 0.8 1.3 -0.5
v 0.9 0.1 0.1
v 0.9 0.1 0
v 0.9 0.2 0.1
v 0.9 0.2 0
v 0.9 0.5 0.1
v 0.9 0.5 0
v 0.9 0.6 0.1
v 0.9 0.6 0
v 1 0.1 -0.6
v 1 0.1 -0.7
v 1 0.2 0.1
v 1 0.2 0
v 1 0.2 -0.6
v 1 0.2 -0.7
v 1 0.3 -0.6
v 1 0.3 -0.7
v 1 0.4 -0.6
v 1 0.4 -0.7
v 1 0.5 0.1
v 1 0.5 0
v 1 0.5 -0.6
v 1 0.5 -0.7
v 1 0.6 -0.6
v 1 0.6 -0.7
v 1 0.7 -0.6
v 1 0.7 -0.7
v 1 0.8 -0.6
v 1 0.8 -0.7
v 1.1 0 0
v 1.1 0 -0.8
v 1.1 0.1 -0.6
v 1.1 0.1 -0.7
v 1.1 0.2 -0.6
v 1.1 0.2 -0.7
v 1.1 0.3 -0.6
v 1.1 0.3 -0.7
v 1.1 0.4 -0.2
v 1.1 0.4 -0.4
v 1.1 0.4 -0.6
v 1.1 0.4 -0.7
v 1.1 0.5 -0.1
v 1.1 0.5 -0.2
v 1.1 0.5 -0.4
v 1.1 0.5 -0.5
v 1.1 0.5 -0.6
v 1.1 0.5 -0.7
v 1.1 0.6 -0.6
v 1.1 0.6 -0.7
v 1.1 0.7 -0.1
v 1.1 0.7 -0.2
v 1.1 0.7 -0.4
v 1.1 0.7 -0.5
v 1.1 0.7 -0.6
v 1.1 0.7 -0.7
v 1.1 0.8 -0.2
v 1.1 0.8 -0.4
v 1.1 0.8 -0.6
v 1.1 0.8 -0.7
v 1.1 0.9 0
v 1.1 0.9 -0.8
v 1.2 0.4 -0.2
v 1.2 0.4 -0.4
v 1.2 0.5 -0.1
v 1.2 0.5 -0.2
v 1.2 0.5 -0.4
v 1.2 0.5 -0.5
v 1.2 0.7 -0.1
v 1.2 0.7 -0.2
v 1.2 0.7 -0.4
v 1.2 0.7 -0.5
v 1.2 0.8 -0.2
v 1.2 0.8 -0.4
v -0.7 0.2 0.1
v -0.7 0.5 0.1
v -0.6 0.1 0.1
v -0.6 0.2 0.1
v -0.6 0.5 0.1
v -0.6 0.6 0.1
v -0.3 0.1 0.1
v -0.3 0.2 0.1
v -0.3 0.5 0.1
v -0.3 0.6 0.1
v -0.2 0.2 0.1
v -0.2 0.5 0.1
v 0.5 0.2 0.1
v 0.5 0.5 0.1
v 0.6 0.1 0.1
v 0.6 0.2 0.1
v 0.6 0.5 0.1
v 0.6 0.6 0.1
v 0.9 0.1 0.1
v 0.9 0.2 0.1
v 0.9 0.5 0.1
v 0.9 0.6 0.1
v 1 0.2 0.1
v 1 0.5 0.1
v -0.8 0 0
v -0.8 0.9 0
v -0.7 0.2 0
v -0.7 0.5 0
v -0.7 0.7 0
v -0.7 0.8 0
v -0.6 0.1 0
v -0.6 0.2 0
v -0.6 0.5 0
v -0.6 0.6 0
v -0.5 0.7 0
v -0.5 0.8 0
v -0.4 0.7 0
v -0.4 0.8 0
v -0.3 0.1 0
v -0.3 0.2 0
v -0.3 0.5 0
v -0.3 0.6 0
v -0.2 0.2 0
v -0.2 0.5 0
v -0.1 0.1 0
v -0.1 0.7 0
v 0 0.2 0
v 0 0.4 0
v 0 0.5 0
v 0 0.6 0
v 0.3 0.2 0
v 0.3 0.4 0
v 0.3 0.5 0
v 0.3 0.6 0
v 0.4 0.1 0
v 0.4 0.7 0
v 0.5 0.2 0
v 0.5 0.5 0
v 0.6 0.1 0
v 0.6 0.2 0
v 0.6 0.5 0
v 0.6 0.6 0
v 0.9 0.1 0
v 0.9 0.2 0
v 0.9 0.5 0
v 0.9 0.6 0
v 0.9 0.7 0
v 0.9 0.8 0
v 1 0.2 0
v 1 0.5 0
v 1.1 0 0
v 1.1 0.9 0
v -0.5 0.9 -0.1
v -0.5 1 -0.1
v -0.3 0.9 -0.1
v -0.3 1 -0.1
v -0.2 0.9 -0.1
v -0.2 1 -0.1
v 0 0.9 -0.1
v 0 1 -0.1
v 0.1 0.9 -0.1
v 0.1 1 -0.1
v 0.2 0.9 -0.1
v 0.2 1 -0.1
v 0.3 0.9 -0.1
v 0.3 1 -0.1
v 0.4 0.9 -0.1
v 0.4 1 -0.1
v 0.5 0.9 -0.1
v 0.5 1 -0.1
v 0.8 0.9 -0.1
v 0.8 1 -0.1
v 1.1 0.5 -0.1
v 1.1 0.7 -0.1
v 1.2 0.5 -0.1
v 1.2 0.7 -0.1
v -0.7 0.8 -0.2
v -0.7 0.9 -0.2
v -0.6 0.8 -0.2
v -0.6 0.9 -0.2
v 1.1 0.4 -0.2
v 1.1 0.5 -0.2
v 1.1 0.7 -0.2
v 1.1 0.8 -0.2
v 1.2 0.4 -0.2
v 1.2 0.5 -0.2
v 1.2 0.7 -0.2
v 1.2 0.8 -0.2
v -0.5 0.9 -0.3
v -0.5 1.3 -0.3
v -0.3 0.9 -0.3
v -0.3 1.1 -0.3
v 0.6 0.9 -0.3
v 0.6 1.1 -0.3
v 0.8 0.9 -0.3
v 0.8 1.3 -0.3
v -0.7 1.2 -0.7
v -0.7 1.3 -0.7
v -0.4 1.1 -0.7
v -0.4 1.2 -0.7
v -0.4 1.3 -0.7
v 0 1 -0.7
v 0 1.1 -0.7
v 0 1.2 -0.7
v 0.4 0.9 -0.7
v 0.4 1 -0.7
v 0.4 1.1 -0.7
v 0.8 0.9 -0.7
v 0.8 1 -0.7
v 1 0.1 -0.7
v 1 0.2 -0.7
v 1 0.3 -0.7
v 1 0.4 -0.7
v 1 0.5 -0.7
v 1 0.6 -0.7
v 1 0.7 -0.7
v 1 0.8 -0.7
v 1.1 0.1 -0.7
v 1.1 0.2 -0.7
v 1.1 0.3 -0.7
v 1.1 0.4 -0.7
v 1.1 0.5 -0.7
v 1.1 0.6 -0.7
v 1.1 0.7 -0.7
v 1.1 0.8 -0.7
v -0.7 0.8 -0.1
v -0.7 0.9 -0.1
v -0.6 0.8 -0.1
v -0.6 0.9 -0.1
v -0.5 0.9 -0.2
v -0.5 1 -0.2
v -0.3 0.9 -0.2
v -0.3 1 -0.2
v -0.2 0.9 -0.2
v -0.2 1 -0.2
v 0 0.9 -0.2
v 0 1 -0.2
v 0.1 0.9 -0.2
v 0.1 1 -0.2
v 0.2 0.9 -0.2
v 0.2 1 -0.2
v 0.3 0.9 -0.2
v 0.3 1 -0.2
v 0.4 0.9 -0.2
v 0.4 1 -0.2
v 0.5 0.9 -0.2
v 0.5 1 -0.2
v 0.8 0.9 -0.2
v 0.8 1 -0.2
v 1.1 0.4 -0.4
v 1.1 0.5 -0.4
v 1.1 0.7 -0.4
v 1.1 0.8 -0.4
v 1.2 0.4 -0.4
v 1.2 0.5 -0.4
v 1.2 0.7 -0.4
v 1.2 0.8 -0.4
v -0.5 0.9 -0.5
v -0.5 1.3 -0.5
v -0.3 0.9 -0.5
v -0.3 1.1 -0.5
v 0.6 0.9 -0.5
v 0.6 1.1 -0.5
v 0.8 0.9 -0.5
v 0.8 1.3 -0.5
v 1.1 0.5 -0.5
v 1.1 0.7 -0.5
v 1.2 0.5 -0.5
v 1.2 0.7 -0.5
v 1 0.1 -0.6
v 1 0.2 -0.6
v 1 0.3 -0.6
v 1 0.4 -0.6
v 1 0.5 -0.6
v 1 0.6 -0.6
v 1 0.7 -0.6
v 1 0.8 -0.6
v 1.1 0.1 -0.6
v 1.1 0.2 -0.6
v 1.1 0.3 -0.6
v 1.1 0.4 -0.6
v 1.1 0.5 -0.6
v 1.1 0.6 -0.6
v 1.1 0.7 -0.6
v 1.1 0.8 -0.6
v -0.7 0.8 -0.7
v -0.7 0.9 -0.7
v 0.4 0.9 -0.7
v 0.8 0.8 -0.7
v 0.8 0.9 -0.7
v -0.8 0 -0.8
v -0.8 0.9 -0.8
v -0.7 0.8 -0.8
v -0.7 0.9 -0.8
v -0.7 1.2 -0.8
v -0.7 1.3 -0.8
v -0.4 1.1 -0.8
v -0.4 1.2 -0.8
v -0.4 1.3 -0.8
v 0 1 -0.8
v 0 1.1 -0.8
v 0 1.2 -0.8
v 0.4 0.9 -0.8
v 0.4 1 -0.8
v 0.4 1.1 -0.8
v 0.8 0.8 -0.8
v 0.8 0.9 -0.8
v 0.8 1 -0.8
v 1 0.8 -0.8
v 1 0.9 -0.8
v 1.1 0 -0.8
v 1.1 0.9 -0.8
v -0.8 0 0
v 1.1 0 0
v -0.8 0 -0.8
v 1.1 0 -0.8
v -0.6 0.1 0.1
v -0.3 0.1 0.1
v 0.6 0.1 0.1
v 0.9 0.1 0.1
v -0.6 0.1 0
v -0.3 0.1 0
v 0.6 0.1 0
v 0.9 0.1 0
v -0.7 0.2 0.1
v -0.6 0.2 0.1
v -0.3 0.2 0.1
v -0.2 0.2 0.1
v 0.5 0.2 0.1
v 0.6 0.2 0.1
v 0.9 0.2 0.1
v 1 0.2 0.1
v -0.7 0.2 0
v -0.6 0.2 0
v -0.3 0.2 0
v -0.2 0.2 0
v 0.5 0.2 0
v 0.6 0.2 0
v 0.9 0.2 0
v 1 0.2 0
v 1 0.2 -0.6
v 1.1 0.2 -0.6
v 1 0.2 -0.7
v 1.1 0.2 -0.7
v 1.1 0.4 -0.2
v 1.2 0.4 -0.2
v 1.1 0.4 -0.4
v 1.2 0.4 -0.4
v 1 0.4 -0.6
v 1.1 0.4 -0.6
v 1 0.4 -0.7
v 1.1 0.4 -0.7
v 1.1 0.5 -0.1
v 1.2 0.5 -0.1
v 1.1 0.5 -0.2
v 1.2 0.5 -0.2
v 1.1 0.5 -0.4
v 1.2 0.5 -0.4
v 1.1 0.5 -0.5
v 1.2 0.5 -0.5
v 1 0.6 -0.6
v 1.1 0.6 -0.6
v 1 0.6 -0.7
v 1.1 0.6 -0.7
v 1 0.8 -0.6
v 1.1 0.8 -0.6
v 1 0.8 -0.7
v 1.1 0.8 -0.7
v 0.4 0.9 -0.7
v 0.8 0.9 -0.7
v 0.4 0.9 -0.8
v 0.8 0.9 -0.8
v 0 1 -0.7
v 0.4 1 -0.7
v 0 1 -0.8
v 0.4 1 -0.8
v -0.3 1.1 -0.3
v 0.6 1.1 -0.3
v -0.3 1.1 -0.5
v 0.6 1.1 -0.5
v -0.4 1.1 -0.7
v 0 1.1 -0.7
v -0.4 1.1 -0.8
v 0 1.1 -0.8
v -0.7 1.2 -0.7
v -0.4 1.2 -0.7
v -0.7 1.2 -0.8
v -0.4 1.2 -0.8
v 1 0.1 -0.6
v 1.1 0.1 -0.6
v 1 0.1 -0.7
v 1.1 0.1 -0.7
v 1 0.3 -0.6
v 1.1 0.3 -0.6
v 1 0.3 -0.7
v 1.1 0.3 -0.7
v -0.7 0.5 0.1
v -0.6 0.5 0.1
v -0.3 0.5 0.1
v -0.2 0.5 0.1
v 0.5 0.5 0.1
v 0.6 0.5 0.1
v 0.9 0.5 0.1
v 1 0.5 0.1
v -0.7 0.5 0
v -0.6 0.5 0
v -0.3 0.5 0
v -0.2 0.5 0
v 0.5 0.5 0
v 0.6 0.5 0
v 0.9 0.5 0
v 1 0.5 0
v 1 0.5 -0.6
v 1.1 0.5 -0.6
v 1 0.5 -0.7
v 1.1 0.5 -0.7
v -0.6 0.6 0.1
v -0.3 0.6 0.1
v 0.6 0.6 0.1
v 0.9 0.6 0.1
v -0.6 0.6 0
v -0.3 0.6 0
v 0.6 0.6 0
v 0.9 0.6 0
v 1.1 0.7 -0.1
v 1.2 0.7 -0.1
v 1.1 0.7 -0.2
v 1.2 0.7 -0.2
v 1.1 0.7 -0.4
v 1.2 0.7 -0.4
v 1.1 0.7 -0.5
v 1.2 0.7 -0.5
v 1 0.7 -0.6
v 1.1 0.7 -0.6
v 1 0.7 -0.7
v 1.1 0.7 -0.7
v -0.7 0.8 -0.1
v -0.6 0.8 -0.1
v -0.7 0.8 -0.2
v -0.6 0.8 -0.2
v 1.1 0.8 -0.2
v 1.2 0.8 -0.2
v 1.1 0.8 -0.4
v 1.2 0.8 -0.4
v -0.7 0.8 -0.7
v 0.8 0.8 -0.7
v -0.7 0.8 -0.8
v 0.8 0.8 -0.8
v -0.8 0.9 0
v 1.1 0.9 0
v -0.7 0.9 -0.1
v -0.6 0.9 -0.1
v -0.5 0.9 -0.1
v -0.3 0.9 -0.1
v -0.2 0.9 -0.1
v 0 0.9 -0.1
v 0.1 0.9 -0.1
v 0.2 0.9 -0.1
v 0.3 0.9 -0.1
v 0.4 0.9 -0.1
v 0.5 0.9 -0.1
v 0.8 0.9 -0.1
v -0.7 0.9 -0.2
v -0.6 0.9 -0.2
v -0.5 0.9 -0.2
v -0.3 0.9 -0.2
v -0.2 0.9 -0.2
v 0 0.9 -0.2
v 0.1 0.9 -0.2
v 0.2 0.9 -0.2
v 0.3 0.9 -0.2
v 0.4 0.9 -0.2
v 0.5 0.9 -0.2
v 0.8 0.9 -0.2
v -0.5 0.9 -0.3
v -0.3 0.9 -0.3
v 0.6 0.9 -0.3
v 0.8 0.9 -0.3
v -0.5 0.9 -0.5
v -0.3 0.9 -0.5
v 0.6 0.9 -0.5
v 0.8 0.9 -0.5
v -0.7 0.9 -0.7
v 0.4 0.9 -0.7
v 0.8 0.9 -0.7
v 1 0.9 -0.7
v -0.8 0.9 -0.8
v -0.7 0.9 -0.8
v 0.8 0.9 -0.8
v 1 0.9 -0.8
v 1.1 0.9 -0.8
v -0.5 1 -0.1
v -0.3 1 -0.1
v -0.2 1 -0.1
v 0 1 -0.1
v 0.1 1 -0.1
v 0.2 1 -0.1
v 0.3 1 -0.1
v 0.4 1 -0.1
v 0.5 1 -0.1
v 0.8 1 -0.1
v -0.5 1 -0.2
v -0.3 1 -0.2
v -0.2 1 -0.2
v 0 1 -0.2
v 0.1 1 -0.2
v 0.2 1 -0.2
v 0.3 1 -0.2
v 0.4 1 -0.2
v 0.5 1 -0.2
v 0.8 1 -0.2
v 0.4 1 -0.7
v 0.8 1 -0.7
v 0.4 1 -0.8
v 0.8 1 -0.8
v 0 1.1 -0.7
v 0.4 1.1 -0.7
v 0 1.1 -0.8
v 0.4 1.1 -0.8
v -0.4 1.2 -0.7
v 0 1.2 -0.7
v -0.4 1.2 -0.8
v 0 1.2 -0.8
v -0.5 1.3 -0.3
v 0.8 1.3 -0.3
v -0.5 1.3 -0.5
v 0.8 1.3 -0.5
v -0.7 1.3 -0.7
v -0.4 1.3 -0.7
v -0.7 1.3 -0.8
v -0.4 1.3 -0.8

# faces
f 3/3/1 2/3/1 1/3/1
f 4/3/1 2/3/1 3/3/1
f 7/6/1 6/6/1 5/6/1
f 8/6/1 6/6/1 7/6/1
f 11/6/1 10/6/1 9/6/1
f 12/6/1 10/6/1 11/6/1
f 15/6/1 14/6/1 13/6/1
f 16/6/1 14/6/1 15/6/1
f 19/6/1 18/6/1 17/6/1
f 20/6/1 18/6/1 19/6/1
f 23/3/1 22/3/1 21/3/1
f 24/3/1 22/3/1 23/3/1
f 29/6/1 26/6/1 25/6/1
f 30/6/1 26/6/1 29/6/1
f 31/3/1 28/3/1 27/3/1
f 32/3/1 28/3/1 31/3/1
f 35/6/1 34/6/1 33/6/1
f 36/6/1 34/6/1 35/6/1
f 39/6/1 38/6/1 37/6/1
f 40/6/1 38/6/1 39/6/1
f 43/6/1 42/6/1 41/6/1
f 44/6/1 42/6/1 43/6/1
f 47/6/1 46/6/1 45/6/1
f 48/6/1 46/6/1 47/6/1
f 51/6/1 50/6/1 49/6/1
f 52/6/1 50/6/1 51/6/1
f 55/6/1 54/6/1 53/6/1
f 56/6/1 54/6/1 55/6/1
f 59/6/1 58/6/1 57/6/1
f 60/6/1 58/6/1 59/6/1
f 63/6/1 62/6/1 61/6/1
f 64/6/1 62/6/1 63/6/1
f 67/6/1 66/6/1 65/6/1
f 68/6/1 66/6/1 67/6/1
f 71/6/1 70/6/1 69/6/1
f 72/6/1 70/6/1 71/6/1
f 75/3/1 74/3/1 73/3/1
f 76/3/1 74/3/1 75/3/1
f 79/6/1 78/6/1 77/6/1
f 80/6/1 78/6/1 79/6/1
f 81/3/2 82/3/2 85/3/2
f 85/3/2 82/3/2 86/3/2
f 83/3/2 84/3/2 87/3/2
f 87/3/2 84/3/2 88/3/2
f 89/6/2 90/6/2 91/6/2
f 91/6/2 90/6/2 92/6/2
f 93/6/2 94/6/2 95/6/2
f 95/6/2 94/6/2 96/6/2
f 97/6/2 98/6/2 99/6/2
f 99/6/2 98/6/2 100/6/2
f 101/6/2 102/6/2 105/6/2
f 105/6/2 102/6/2 106/6/2
f 103/3/2 104/3/2 107/3/2
f 107/3/2 104/3/2 108/3/2
f 109/6/2 110/6/2 111/6/2
f 111/6/2 110/6/2 112/6/2
f 113/6/2 114/6/2 115/6/2
f 115/6/2 114/6/2 116/6/2
f 117/6/2 118/6/2 119/6/2
f 119/6/2 118/6/2 120/6/2
f 121/6/2 122/6/2 123/6/2
f 123/6/2 122/6/2 124/6/2
f 125/6/2 126/6/2 127/6/2
f 127/6/2 126/6/2 128/6/2
f 129/6/2 130/6/2 131/6/2
f 131/6/2 130/6/2 132/6/2
f 133/6/2 134/6/2 139/6/2
f 139/6/2 134/6/2 140/6/2
f 137/6/2 138/6/2 141/6/2
f 141/6/2 138/6/2 142/6/2
f 135/3/2 136/3/2 143/3/2
f 143/3/2 136/3/2 144/3/2
f 145/6/2 146/6/2 147/6/2
f 147/6/2 146/6/2 148/6/2
f 149/6/2 150/6/2 151/6/2
f 151/6/2 150/6/2 152/6/2
f 153/6/2 154/6/2 157/6/2
f 157/6/2 154/6/2 158/6/2
f 159/6/2 160/6/2 161/6/2
f 161/6/2 160/6/2 162/6/2
f 155/6/2 156/6/2 163/6/2
f 163/6/2 156/6/2 164/6/2
f 165/6/2 166/6/2 167/6/2
f 167/6/2 166/6/2 168/6/2
f 169/6/2 170/6/2 171/6/2
f 171/6/2 170/6/2 172/6/2
f 173/3/2 174/3/2 175/3/2
f 175/3/2 174/3/2 176/3/2
f 173/3/2 175/3/2 177/3/2
f 176/3/2 174/3/2 178/3/2
f 173/3/2 177/3/2 179/3/2
f 177/3/2 178/3/2 179/3/2
f 178/3/2 174/3/2 180/3/2
f 179/3/2 178/3/2 180/3/2
f 173/3/2 179/3/2 181/3/2
f 181/3/2 179/3/2 182/3/2
f 182/3/2 179/3/2 183/3/2
f 180/3/2 174/3/2 184/3/2
f 173/3/2 181/3/2 185/3/2
f 185/3/2 181/3/2 186/3/2
f 182/3/2 183/3/2 187/3/2
f 183/3/2 184/3/2 187/3/2
f 187/3/2 184/3/2 188/3/2
f 188/3/2 184/3/2 189/3/2
f 184/3/2 174/3/2 190/3/2
f 189/3/2 184/3/2 190/3/2
f 188/3/2 189/3/2 191/3/2
f 190/3/2 174/3/2 192/3/2
f 173/3/2 185/3/2 193/3/2
f 188/3/2 191/3/2 196/3/2
f 191/3/2 192/3/2 196/3/2
f 196/3/2 192/3/2 197/3/2
f 192/3/2 174/3/2 198/3/2
f 197/3/2 192/3/2 198/3/2
f 193/3/2 194/3/2 199/3/2
f 196/3/2 197/3/2 200/3/2
f 195/3/2 196/3/2 200/3/2
f 200/3/2 197/3/2 201/3/2
f 198/3/2 174/3/2 202/3/2
f 200/3/2 201/3/2 203/3/2
f 201/3/2 202/3/2 203/3/2
f 173/3/2 193/3/2 203/3/2
f 193/3/2 199/3/2 203/3/2
f 199/3/2 200/3/2 203/3/2
f 202/3/2 174/3/2 204/3/2
f 203/3/2 202/3/2 204/3/2
f 205/6/2 206/6/2 208/6/2
f 208/6/2 206/6/2 209/6/2
f 207/6/2 208/6/2 211/6/2
f 209/6/2 210/6/2 211/6/2
f 208/6/2 209/6/2 211/6/2
f 211/6/2 210/6/2 212/6/2
f 212/6/2 210/6/2 213/6/2
f 213/6/2 210/6/2 214/6/2
f 212/6/2 213/6/2 215/6/2
f 215/6/2 213/6/2 216/6/2
f 220/6/3 218/6/3 217/6/3
f 221/6/3 218/6/3 220/6/3
f 223/6/3 220/6/3 219/6/3
f 223/6/3 222/6/3 221/6/3
f 223/6/3 221/6/3 220/6/3
f 224/6/3 222/6/3 223/6/3
f 225/6/3 222/6/3 224/6/3
f 226/6/3 222/6/3 225/6/3
f 227/6/3 225/6/3 224/6/3
f 228/6/3 225/6/3 227/6/3
f 232/6/3 230/6/3 229/6/3
f 233/6/3 230/6/3 232/6/3
f 235/6/3 233/6/3 232/6/3
f 235/6/3 234/6/3 233/6/3
f 235/6/3 232/6/3 231/6/3
f 236/6/3 234/6/3 235/6/3
f 237/6/3 234/6/3 236/6/3
f 238/6/3 234/6/3 237/6/3
f 239/6/3 237/6/3 236/6/3
f 240/6/3 237/6/3 239/6/3
f 243/3/3 242/3/3 241/3/3
f 244/3/3 242/3/3 243/3/3
f 245/3/3 242/3/3 244/3/3
f 246/3/3 242/3/3 245/3/3
f 247/3/3 243/3/3 241/3/3
f 248/3/3 243/3/3 247/3/3
f 249/3/3 245/3/3 244/3/3
f 250/3/3 245/3/3 249/3/3
f 251/4/3 246/4/3 245/4/3
f 251/3/3 245/3/3 250/3/3
f 252/3/3 242/3/3 246/3/3
f 252/4/3 246/4/3 251/4/3
f 253/3/3 251/3/3 250/3/3
f 253/1/3 252/1/3 251/1/3
f 254/3/3 242/3/3 252/3/3
f 254/1/3 252/1/3 253/1/3
f 255/3/3 247/3/3 241/3/3
f 258/3/3 253/3/3 250/3/3
f 259/3/3 256/3/3 255/3/3
f 260/3/3 258/3/3 257/3/3
f 261/3/3 259/3/3 255/3/3
f 261/3/3 260/3/3 259/3/3
f 261/3/3 255/3/3 241/3/3
f 262/3/3 258/3/3 260/3/3
f 262/3/3 260/3/3 261/3/3
f 262/2/3 254/2/3 253/2/3
f 262/3/3 253/3/3 258/3/3
f 263/4/3 262/4/3 261/4/3
f 264/4/3 262/4/3 263/4/3
f 265/4/3 262/4/3 264/4/3
f 266/4/3 262/4/3 265/4/3
f 267/4/3 263/4/3 261/4/3
f 267/5/3 264/5/3 263/5/3
f 268/4/3 265/4/3 264/4/3
f 268/5/3 264/5/3 267/5/3
f 269/5/3 266/5/3 265/5/3
f 269/4/3 265/4/3 268/4/3
f 270/4/3 262/4/3 266/4/3
f 270/5/3 266/5/3 269/5/3
f 271/3/3 261/3/3 241/3/3
f 271/4/3 269/4/3 268/4/3
f 271/4/3 270/4/3 269/4/3
f 271/4/3 267/4/3 261/4/3
f 271/4/3 268/4/3 267/4/3
f 272/4/3 262/4/3 270/4/3
f 272/4/3 270/4/3 271/4/3
f 272/2/3 254/2/3 262/2/3
f 273/3/3 272/3/3 271/3/3
f 274/3/3 272/3/3 273/3/3
f 275/3/3 271/3/3 241/3/3
f 275/3/3 273/3/3 271/3/3
f 276/3/3 273/3/3 275/3/3
f 277/3/3 272/3/3 274/3/3
f 278/3/3 272/3/3 277/3/3
f 279/3/3 275/3/3 241/3/3
f 282/3/3 272/3/3 278/3/3
f 283/2/3 254/2/3 272/2/3
f 283/3/3 272/3/3 282/3/3
f 284/3/3 242/3/3 254/3/3
f 284/2/3 254/2/3 283/2/3
f 285/3/3 280/3/3 279/3/3
f 286/3/3 283/3/3 282/3/3
f 286/3/3 282/3/3 281/3/3
f 286/3/3 284/3/3 283/3/3
f 287/3/3 285/3/3 279/3/3
f 287/3/3 286/3/3 285/3/3
f 287/3/3 279/3/3 241/3/3
f 288/3/3 242/3/3 284/3/3
f 288/3/3 286/3/3 287/3/3
f 288/3/3 284/3/3 286/3/3
f 291/6/3 290/6/3 289/6/3
f 292/6/3 290/6/3 291/6/3
f 295/6/3 294/6/3 293/6/3
f 296/6/3 294/6/3 295/6/3
f 299/6/3 298/6/3 297/6/3
f 300/6/3 298/6/3 299/6/3
f 303/6/3 302/6/3 301/6/3
f 304/6/3 302/6/3 303/6/3
f 307/6/3 306/6/3 305/6/3
f 308/6/3 306/6/3 307/6/3
f 311/6/3 310/6/3 309/6/3
f 312/6/3 310/6/3 311/6/3
f 315/3/3 314/3/3 313/3/3
f 316/3/3 314/3/3 315/3/3
f 321/6/3 318/6/3 317/6/3
f 322/6/3 318/6/3 321/6/3
f 323/6/3 320/6/3 319/6/3
f 324/6/3 320/6/3 323/6/3
f 327/3/3 326/3/3 325/3/3
f 328/3/3 326/3/3 327/3/3
f 330/3/3 326/3/3 328/3/3
f 331/3/3 330/3/3 329/3/3
f 332/3/3 326/3/3 330/3/3
f 332/3/3 330/3/3 331/3/3
f 336/6/3 334/6/3 333/6/3
f 337/6/3 334/6/3 336/6/3
f 339/6/3 336/6/3 335/6/3
f 340/6/3 336/6/3 339/6/3
f 342/6/3 339/6/3 338/6/3
f 343/6/3 339/6/3 342/6/3
f 344/6/3 342/6/3 341/6/3
f 345/6/3 342/6/3 344/6/3
f 354/3/3 347/3/3 346/3/3
f 355/3/3 347/3/3 354/3/3
f 356/3/3 349/3/3 348/3/3
f 357/3/3 349/3/3 356/3/3
f 358/3/3 351/3/3 350/3/3
f 359/3/3 351/3/3 358/3/3
f 360/3/3 353/3/3 352/3/3
f 361/3/3 353/3/3 360/3/3
f 362/3/4 363/3/4 364/3/4
f 364/3/4 363/3/4 365/3/4
f 366/6/4 367/6/4 368/6/4
f 368/6/4 367/6/4 369/6/4
f 370/6/4 371/6/4 372/6/4
f 372/6/4 371/6/4 373/6/4
f 374/6/4 375/6/4 376/6/4
f 376/6/4 375/6/4 377/6/4
f 378/6/4 379/6/4 380/6/4
f 380/6/4 379/6/4 381/6/4
f 382/6/4 383/6/4 384/6/4
f 384/6/4 383/6/4 385/6/4
f 386/6/4 387/6/4 390/6/4
f 390/6/4 387/6/4 391/6/4
f 388/6/4 389/6/4 392/6/4
f 392/6/4 389/6/4 393/6/4
f 394/3/4 395/3/4 396/3/4
f 396/3/4 395/3/4 397/3/4
f 397/3/4 395/3/4 399/3/4
f 398/3/4 399/3/4 400/3/4
f 399/3/4 395/3/4 401/3/4
f 400/3/4 399/3/4 401/3/4
f 402/6/4 403/6/4 404/6/4
f 404/6/4 403/6/4 405/6/4
f 406/3/4 407/3/4 414/3/4
f 414/3/4 407/3/4 415/3/4
f 408/3/4 409/3/4 416/3/4
f 416/3/4 409/3/4 417/3/4
f 410/3/4 411/3/4 418/3/4
f 418/3/4 411/3/4 419/3/4
f 412/3/4 413/3/4 420/3/4
f 420/3/4 413/3/4 421/3/4
f 422/3/4 423/3/4 424/3/4
f 422/3/4 424/3/4 425/3/4
f 425/3/4 424/3/4 426/3/4
f 427/3/4 428/3/4 429/3/4
f 429/3/4 428/3/4 430/3/4
f 431/6/4 432/6/4 434/6/4
f 434/6/4 432/6/4 435/6/4
f 433/6/4 434/6/4 437/6/4
f 437/6/4 434/6/4 438/6/4
f 436/6/4 437/6/4 440/6/4
f 440/6/4 437/6/4 441/6/4
f 427/3/4 429/3/4 442/3/4
f 439/6/4 440/6/4 443/6/4
f 443/6/4 440/6/4 444/6/4
f 427/3/4 442/3/4 445/3/4
f 442/6/4 443/6/4 445/6/4
f 445/6/4 443/6/4 446/6/4
f 427/3/4 445/3/4 447/3/4
f 445/3/4 446/3/4 447/3/4
f 447/3/4 446/3/4 448/3/4
f 451/3/5 450/3/5 449/3/5
f 452/3/5 450/3/5 451/3/5
f 457/6/5 454/6/5 453/6/5
f 458/6/5 454/6/5 457/6/5
f 459/6/5 456/6/5 455/6/5
f 460/6/5 456/6/5 459/6/5
f 469/6/5 462/6/5 461/6/5
f 470/6/5 462/6/5 469/6/5
f 471/6/5 464/6/5 463/6/5
f 472/6/5 464/6/5 471/6/5
f 473/6/5 466/6/5 465/6/5
f 474/6/5 466/6/5 473/6/5
f 475/6/5 468/6/5 467/6/5
f 476/6/5 468/6/5 475/6/5
f 479/3/5 478/3/5 477/3/5
f 480/3/5 478/3/5 479/3/5
f 483/6/5 482/6/5 481/6/5
f 484/6/5 482/6/5 483/6/5
f 487/3/5 486/3/5 485/3/5
f 488/3/5 486/3/5 487/3/5
f 491/6/5 490/6/5 489/6/5
f 492/6/5 490/6/5 491/6/5
f 495/6/5 494/6/5 493/6/5
f 496/6/5 494/6/5 495/6/5
f 499/3/5 498/3/5 497/3/5
f 500/3/5 498/3/5 499/3/5
f 503/3/5 502/3/5 501/3/5
f 504/3/5 502/3/5 503/3/5
f 507/6/5 506/6/5 505/6/5
f 508/6/5 506/6/5 507/6/5
f 511/6/5 510/6/5 509/6/5
f 512/6/5 510/6/5 511/6/5
f 515/3/5 514/3/5 513/3/5
f 516/3/5 514/3/5 515/3/5
f 519/6/5 518/6/5 517/6/5
f 520/6/5 518/6/5 519/6/5
f 523/6/5 522/6/5 521/6/5
f 524/6/5 522/6/5 523/6/5
f 525/3/6 526/3/6 527/3/6
f 527/3/6 526/3/6 528/3/6
f 529/3/6 530/3/6 531/3/6
f 531/3/6 530/3/6 532/3/6
f 533/6/6 534/6/6 541/6/6
f 541/6/6 534/6/6 542/6/6
f 535/6/6 536/6/6 543/6/6
f 543/6/6 536/6/6 544/6/6
f 537/6/6 538/6/6 545/6/6
f 545/6/6 538/6/6 546/6/6
f 539/6/6 540/6/6 547/6/6
f 547/6/6 540/6/6 548/6/6
f 549/3/6 550/3/6 551/3/6
f 551/3/6 550/3/6 552/3/6
f 553/6/6 554/6/6 557/6/6
f 557/6/6 554/6/6 558/6/6
f 555/6/6 556/6/6 559/6/6
f 559/6/6 556/6/6 560/6/6
f 561/6/6 562/6/6 563/6/6
f 563/6/6 562/6/6 564/6/6
f 565/6/6 566/6/6 567/6/6
f 567/6/6 566/6/6 568/6/6
f 569/3/6 570/3/6 571/3/6
f 571/3/6 570/3/6 572/3/6
f 573/6/6 574/6/6 575/6/6
f 575/6/6 574/6/6 576/6/6
f 577/6/6 578/6/6 579/6/6
f 579/6/6 578/6/6 580/6/6
f 581/3/6 582/3/6 583/3/6
f 583/3/6 582/3/6 584/3/6
f 585/3/6 586/3/6 587/3/6
f 587/3/6 586/3/6 588/3/6
f 588/3/6 586/3/6 589/3/6
f 589/3/6 586/3/6 590/3/6
f 590/3/6 586/3/6 591/3/6
f 591/3/6 586/3/6 592/3/6
f 592/3/6 586/3/6 593/3/6
f 593/3/6 586/3/6 594/3/6
f 594/3/6 586/3/6 595/3/6
f 595/3/6 586/3/6 596/3/6
f 596/3/6 586/3/6 597/3/6
f 597/3/6 586/3/6 598/3/6
f 585/3/6 587/3/6 599/3/6
f 588/3/6 589/3/6 600/3/6
f 600/3/6 589/3/6 601/3/6
f 590/3/6 591/3/6 602/3/6
f 602/3/6 591/3/6 603/3/6
f 592/3/6 593/3/6 604/3/6
f 604/3/6 593/3/6 605/3/6
f 594/3/6 595/3/6 606/3/6
f 606/3/6 595/3/6 607/3/6
f 596/3/6 597/3/6 608/3/6
f 608/3/6 597/3/6 609/3/6
f 598/3/6 586/3/6 610/3/6
f 608/3/6 609/3/6 611/3/6
f 609/3/6 610/3/6 611/3/6
f 606/3/6 607/3/6 611/3/6
f 604/3/6 605/3/6 611/3/6
f 607/3/6 608/3/6 611/3/6
f 600/3/6 601/3/6 611/3/6
f 605/3/6 606/3/6 611/3/6
f 602/3/6 603/3/6 611/3/6
f 603/3/6 604/3/6 611/3/6
f 599/3/6 600/3/6 611/3/6
f 601/3/6 602/3/6 611/3/6
f 611/3/6 610/3/6 612/3/6
f 612/3/6 610/3/6 613/3/6
f 610/3/6 586/3/6 614/3/6
f 613/3/6 610/3/6 614/3/6
f 599/3/6 611/3/6 615/3/6
f 612/3/6 613/3/6 616/3/6
f 616/3/6 613/3/6 617/3/6
f 614/3/6 586/3/6 618/3/6
f 599/3/6 615/3/6 619/3/6
f 617/3/6 618/3/6 619/3/6
f 585/3/6 599/3/6 619/3/6
f 616/3/6 617/3/6 619/3/6
f 615/3/6 616/3/6 619/3/6
f 619/3/6 618/3/6 620/3/6
f 618/3/6 586/3/6 621/3/6
f 620/3/6 618/3/6 621/3/6
f 621/3/6 586/3/6 622/3/6
f 585/3/6 619/3/6 623/3/6
f 623/3/6 619/3/6 624/3/6
f 621/6/6 622/6/6 625/6/6
f 622/3/6 586/3/6 626/3/6
f 625/6/6 622/6/6 626/6/6
f 626/3/6 586/3/6 627/3/6
f 628/6/6 629/6/6 638/6/6
f 638/6/6 629/6/6 639/6/6
f 630/6/6 631/6/6 640/6/6
f 640/6/6 631/6/6 641/6/6
f 632/6/6 633/6/6 642/6/6
f 642/6/6 633/6/6 643/6/6
f 634/6/6 635/6/6 644/6/6
f 644/6/6 635/6/6 645/6/6
f 636/6/6 637/6/6 646/6/6
f 646/6/6 637/6/6 647/6/6
f 648/6/6 649/6/6 650/6/6
f 650/6/6 649/6/6 651/6/6
f 652/6/6 653/6/6 654/6/6
f 654/6/6 653/6/6 655/6/6
f 656/6/6 657/6/6 658/6/6
f 658/6/6 657/6/6 659/6/6
f 660/3/6 661/3/6 662/3/6
f 662/3/6 661/3/6 663/3/6
f 664/6/6 665/6/6 666/6/6
f 666/6/6 665/6/6 667/6/6
