# MagicaVoxel @ Ephtracy

# group
o 

# material
mtllib Controller.mtl
usemtl palette

# normals
vn -1 0 0
vn 1 0 0
vn 0 0 1
vn 0 0 -1
vn 0 -1 0
vn 0 1 0

# texcoords
vt 0.0644531 0.5
vt 0.412109 0.5
vt 0.443359 0.5
vt 0.798828 0.5

# verts
v -2 0 -0.9
v -2 0 -2
v -2 0.3 -0.9
v -2 0.3 -2
v -1.9 0.3 -1
v -1.9 0.3 -1.2
v -1.9 0.4 -1
v -1.9 0.4 -1.2
v -1.7 0.7 -1.3
v -1.7 0.7 -1.6
v -1.7 1 -1.3
v -1.7 1 -1.6
v -1.6 0.3 -1.4
v -1.6 0.3 -1.5
v -1.6 0.4 -1.4
v -1.6 0.4 -1.5
v -1.6 0.6 -1.3
v -1.6 0.6 -1.6
v -1.6 0.7 -1.2
v -1.6 0.7 -1.3
v -1.6 0.7 -1.6
v -1.6 0.7 -1.7
v -1.6 1 -1.2
v -1.6 1 -1.3
v -1.6 1 -1.6
v -1.6 1 -1.7
v -1.6 1.1 -1.3
v -1.6 1.1 -1.6
v -1.5 0.3 -1.3
v -1.5 0.3 -1.4
v -1.5 0.3 -1.5
v -1.5 0.3 -1.6
v -1.5 0.4 -1.3
v -1.5 0.4 -1.4
v -1.5 0.4 -1.5
v -1.5 0.4 -1.6
v -1.5 0.6 -1.4
v -1.5 0.6 -1.5
v -1.2 0.3 -1
v -1.2 0.3 -1.2
v -1.2 0.4 -1
v -1.2 0.4 -1.2
v -1.7 0.3 -1
v -1.7 0.3 -1.2
v -1.7 0.4 -1
v -1.7 0.4 -1.2
v -1.4 0.3 -1.3
v -1.4 0.3 -1.4
v -1.4 0.3 -1.5
v -1.4 0.3 -1.6
v -1.4 0.4 -1.3
v -1.4 0.4 -1.4
v -1.4 0.4 -1.5
v -1.4 0.4 -1.6
v -1.4 0.6 -1.4
v -1.4 0.6 -1.5
v -1.3 0.3 -1.4
v -1.3 0.3 -1.5
v -1.3 0.4 -1.4
v -1.3 0.4 -1.5
v -1.3 0.6 -1.3
v -1.3 0.6 -1.6
v -1.3 0.7 -1.2
v -1.3 0.7 -1.3
v -1.3 0.7 -1.6
v -1.3 0.7 -1.7
v -1.3 1 -1.2
v -1.3 1 -1.3
v -1.3 1 -1.6
v -1.3 1 -1.7
v -1.3 1.1 -1.3
v -1.3 1.1 -1.6
v -1.2 0.7 -1.3
v -1.2 0.7 -1.6
v -1.2 1 -1.3
v -1.2 1 -1.6
v -1 0.3 -1
v -1 0.3 -1.2
v -1 0.4 -1
v -1 0.4 -1.2
v -0.9 0 -0.9
v -0.9 0 -2
v -0.9 0.3 -0.9
v -0.9 0.3 -2
v -2 0 -0.9
v -2 0.3 -0.9
v -0.9 0 -0.9
v -0.9 0.3 -0.9
v -1.9 0.3 -1
v -1.9 0.4 -1
v -1.7 0.3 -1
v -1.7 0.4 -1
v -1.2 0.3 -1
v -1.2 0.4 -1
v -1 0.3 -1
v -1 0.4 -1
v -1.6 0.7 -1.2
v -1.6 1 -1.2
v -1.3 0.7 -1.2
v -1.3 1 -1.2
v -1.7 0.7 -1.3
v -1.7 1 -1.3
v -1.6 0.6 -1.3
v -1.6 0.7 -1.3
v -1.6 1 -1.3
v -1.6 1.1 -1.3
v -1.5 0.3 -1.3
v -1.5 0.4 -1.3
v -1.4 0.3 -1.3
v -1.4 0.4 -1.3
v -1.3 0.6 -1.3
v -1.3 0.7 -1.3
v -1.3 1 -1.3
v -1.3 1.1 -1.3
v -1.2 0.7 -1.3
v -1.2 1 -1.3
v -1.6 0.3 -1.4
v -1.6 0.4 -1.4
v -1.5 0.3 -1.4
v -1.5 0.4 -1.4
v -1.5 0.6 -1.4
v -1.4 0.3 -1.4
v -1.4 0.4 -1.4
v -1.4 0.6 -1.4
v -1.3 0.3 -1.4
v -1.3 0.4 -1.4
v -1.9 0.3 -1.2
v -1.9 0.4 -1.2
v -1.7 0.3 -1.2
v -1.7 0.4 -1.2
v -1.2 0.3 -1.2
v -1.2 0.4 -1.2
v -1 0.3 -1.2
v -1 0.4 -1.2
v -1.6 0.3 -1.5
v -1.6 0.4 -1.5
v -1.5 0.3 -1.5
v -1.5 0.4 -1.5
v -1.5 0.6 -1.5
v -1.4 0.3 -1.5
v -1.4 0.4 -1.5
v -1.4 0.6 -1.5
v -1.3 0.3 -1.5
v -1.3 0.4 -1.5
v -1.7 0.7 -1.6
v -1.7 1 -1.6
v -1.6 0.6 -1.6
v -1.6 0.7 -1.6
v -1.6 1 -1.6
v -1.6 1.1 -1.6
v -1.5 0.3 -1.6
v -1.5 0.4 -1.6
v -1.4 0.3 -1.6
v -1.4 0.4 -1.6
v -1.3 0.6 -1.6
v -1.3 0.7 -1.6
v -1.3 1 -1.6
v -1.3 1.1 -1.6
v -1.2 0.7 -1.6
v -1.2 1 -1.6
v -1.6 0.7 -1.7
v -1.6 1 -1.7
v -1.3 0.7 -1.7
v -1.3 1 -1.7
v -2 0 -2
v -2 0.3 -2
v -0.9 0 -2
v -0.9 0.3 -2
v -2 0 -0.9
v -0.9 0 -0.9
v -2 0 -2
v -0.9 0 -2
v -1.6 0.6 -1.3
v -1.3 0.6 -1.3
v -1.5 0.6 -1.4
v -1.4 0.6 -1.4
v -1.5 0.6 -1.5
v -1.4 0.6 -1.5
v -1.6 0.6 -1.6
v -1.3 0.6 -1.6
v -1.6 0.7 -1.2
v -1.3 0.7 -1.2
v -1.7 0.7 -1.3
v -1.6 0.7 -1.3
v -1.3 0.7 -1.3
v -1.2 0.7 -1.3
v -1.7 0.7 -1.6
v -1.6 0.7 -1.6
v -1.3 0.7 -1.6
v -1.2 0.7 -1.6
v -1.6 0.7 -1.7
v -1.3 0.7 -1.7
v -2 0.3 -0.9
v -0.9 0.3 -0.9
v -1.9 0.3 -1
v -1.7 0.3 -1
v -1.2 0.3 -1
v -1 0.3 -1
v -1.9 0.3 -1.2
v -1.7 0.3 -1.2
v -1.2 0.3 -1.2
v -1 0.3 -1.2
v -1.5 0.3 -1.3
v -1.4 0.3 -1.3
v -1.6 0.3 -1.4
v -1.5 0.3 -1.4
v -1.4 0.3 -1.4
v -1.3 0.3 -1.4
v -1.6 0.3 -1.5
v -1.5 0.3 -1.5
v -1.4 0.3 -1.5
v -1.3 0.3 -1.5
v -1.5 0.3 -1.6
v -1.4 0.3 -1.6
v -1.9 0.3 -1.9
v -1 0.3 -1.9
v -2 0.3 -2
v -0.9 0.3 -2
v -1.9 0.4 -1
v -1.7 0.4 -1
v -1.2 0.4 -1
v -1 0.4 -1
v -1.9 0.4 -1.2
v -1.7 0.4 -1.2
v -1.2 0.4 -1.2
v -1 0.4 -1.2
v -1.5 0.4 -1.3
v -1.4 0.4 -1.3
v -1.6 0.4 -1.4
v -1.5 0.4 -1.4
v -1.4 0.4 -1.4
v -1.3 0.4 -1.4
v -1.6 0.4 -1.5
v -1.5 0.4 -1.5
v -1.4 0.4 -1.5
v -1.3 0.4 -1.5
v -1.5 0.4 -1.6
v -1.4 0.4 -1.6
v -1.6 1 -1.2
v -1.3 1 -1.2
v -1.7 1 -1.3
v -1.6 1 -1.3
v -1.3 1 -1.3
v -1.2 1 -1.3
v -1.7 1 -1.6
v -1.6 1 -1.6
v -1.3 1 -1.6
v -1.2 1 -1.6
v -1.6 1 -1.7
v -1.3 1 -1.7
v -1.6 1.1 -1.3
v -1.3 1.1 -1.3
v -1.6 1.1 -1.6
v -1.3 1.1 -1.6

# faces
f 3/2/1 2/2/1 1/2/1
f 4/2/1 2/2/1 3/2/1
f 7/1/1 6/1/1 5/1/1
f 8/1/1 6/1/1 7/1/1
f 11/1/1 10/1/1 9/1/1
f 12/1/1 10/1/1 11/1/1
f 15/4/1 14/4/1 13/4/1
f 16/4/1 14/4/1 15/4/1
f 20/1/1 18/1/1 17/1/1
f 21/1/1 18/1/1 20/1/1
f 23/1/1 20/1/1 19/1/1
f 24/1/1 20/1/1 23/1/1
f 25/1/1 22/1/1 21/1/1
f 26/1/1 22/1/1 25/1/1
f 27/1/1 25/1/1 24/1/1
f 28/1/1 25/1/1 27/1/1
f 33/4/1 30/4/1 29/4/1
f 34/4/1 30/4/1 33/4/1
f 35/4/1 32/4/1 31/4/1
f 36/4/1 32/4/1 35/4/1
f 37/4/1 35/4/1 34/4/1
f 38/4/1 35/4/1 37/4/1
f 41/1/1 40/1/1 39/1/1
f 42/1/1 40/1/1 41/1/1
f 43/1/2 44/1/2 45/1/2
f 45/1/2 44/1/2 46/1/2
f 47/4/2 48/4/2 51/4/2
f 51/4/2 48/4/2 52/4/2
f 49/4/2 50/4/2 53/4/2
f 53/4/2 50/4/2 54/4/2
f 52/4/2 53/4/2 55/4/2
f 55/4/2 53/4/2 56/4/2
f 57/4/2 58/4/2 59/4/2
f 59/4/2 58/4/2 60/4/2
f 61/1/2 62/1/2 64/1/2
f 64/1/2 62/1/2 65/1/2
f 63/1/2 64/1/2 67/1/2
f 67/1/2 64/1/2 68/1/2
f 65/1/2 66/1/2 69/1/2
f 69/1/2 66/1/2 70/1/2
f 68/1/2 69/1/2 71/1/2
f 71/1/2 69/1/2 72/1/2
f 73/1/2 74/1/2 75/1/2
f 75/1/2 74/1/2 76/1/2
f 77/1/2 78/1/2 79/1/2
f 79/1/2 78/1/2 80/1/2
f 81/2/2 82/2/2 83/2/2
f 83/2/2 82/2/2 84/2/2
f 87/2/3 86/2/3 85/2/3
f 88/2/3 86/2/3 87/2/3
f 91/1/3 90/1/3 89/1/3
f 92/1/3 90/1/3 91/1/3
f 95/1/3 94/1/3 93/1/3
f 96/1/3 94/1/3 95/1/3
f 99/1/3 98/1/3 97/1/3
f 100/1/3 98/1/3 99/1/3
f 104/1/3 102/1/3 101/1/3
f 105/1/3 102/1/3 104/1/3
f 109/4/3 108/4/3 107/4/3
f 110/4/3 108/4/3 109/4/3
f 111/1/3 104/1/3 103/1/3
f 112/1/3 104/1/3 111/1/3
f 113/1/3 106/1/3 105/1/3
f 114/1/3 106/1/3 113/1/3
f 115/1/3 113/1/3 112/1/3
f 116/1/3 113/1/3 115/1/3
f 119/4/3 118/4/3 117/4/3
f 120/4/3 118/4/3 119/4/3
f 123/4/3 121/4/3 120/4/3
f 124/4/3 121/4/3 123/4/3
f 125/4/3 123/4/3 122/4/3
f 126/4/3 123/4/3 125/4/3
f 127/1/4 128/1/4 129/1/4
f 129/1/4 128/1/4 130/1/4
f 131/1/4 132/1/4 133/1/4
f 133/1/4 132/1/4 134/1/4
f 135/4/4 136/4/4 137/4/4
f 137/4/4 136/4/4 138/4/4
f 138/4/4 139/4/4 141/4/4
f 141/4/4 139/4/4 142/4/4
f 140/4/4 141/4/4 143/4/4
f 143/4/4 141/4/4 144/4/4
f 145/1/4 146/1/4 148/1/4
f 148/1/4 146/1/4 149/1/4
f 151/4/4 152/4/4 153/4/4
f 153/4/4 152/4/4 154/4/4
f 147/1/4 148/1/4 155/1/4
f 155/1/4 148/1/4 156/1/4
f 149/1/4 150/1/4 157/1/4
f 157/1/4 150/1/4 158/1/4
f 156/1/4 157/1/4 159/1/4
f 159/1/4 157/1/4 160/1/4
f 161/1/4 162/1/4 163/1/4
f 163/1/4 162/1/4 164/1/4
f 165/2/4 166/2/4 167/2/4
f 167/2/4 166/2/4 168/2/4
f 171/2/5 170/2/5 169/2/5
f 172/2/5 170/2/5 171/2/5
f 175/1/5 174/1/5 173/1/5
f 176/1/5 174/1/5 175/1/5
f 177/1/5 175/1/5 173/1/5
f 178/1/5 174/1/5 176/1/5
f 179/1/5 177/1/5 173/1/5
f 179/1/5 178/1/5 177/1/5
f 180/1/5 174/1/5 178/1/5
f 180/1/5 178/1/5 179/1/5
f 184/1/5 182/1/5 181/1/5
f 185/1/5 182/1/5 184/1/5
f 187/1/5 184/1/5 183/1/5
f 188/1/5 184/1/5 187/1/5
f 189/1/5 186/1/5 185/1/5
f 190/1/5 186/1/5 189/1/5
f 191/1/5 189/1/5 188/1/5
f 192/1/5 189/1/5 191/1/5
f 193/2/6 194/2/6 195/2/6
f 195/2/6 194/2/6 196/2/6
f 196/2/6 194/2/6 197/2/6
f 197/2/6 194/2/6 198/2/6
f 193/2/6 195/2/6 199/2/6
f 196/3/6 197/3/6 200/3/6
f 200/3/6 197/3/6 201/3/6
f 198/2/6 194/2/6 202/2/6
f 200/3/6 201/3/6 203/3/6
f 201/3/6 202/3/6 203/3/6
f 199/3/6 200/3/6 203/3/6
f 203/3/6 202/3/6 204/3/6
f 199/3/6 203/3/6 205/3/6
f 205/3/6 203/3/6 206/3/6
f 204/3/6 202/3/6 207/3/6
f 207/3/6 202/3/6 208/3/6
f 199/3/6 205/3/6 209/3/6
f 208/3/6 202/3/6 212/3/6
f 209/3/6 210/3/6 213/3/6
f 211/3/6 212/3/6 214/3/6
f 193/2/6 199/2/6 215/2/6
f 213/3/6 214/3/6 215/3/6
f 209/3/6 213/3/6 215/3/6
f 199/3/6 209/3/6 215/3/6
f 202/2/6 194/2/6 216/2/6
f 215/3/6 214/3/6 216/3/6
f 214/3/6 212/3/6 216/3/6
f 212/3/6 202/3/6 216/3/6
f 193/2/6 215/2/6 217/2/6
f 215/2/6 216/2/6 217/2/6
f 216/2/6 194/2/6 218/2/6
f 217/2/6 216/2/6 218/2/6
f 219/1/6 220/1/6 223/1/6
f 223/1/6 220/1/6 224/1/6
f 221/1/6 222/1/6 225/1/6
f 225/1/6 222/1/6 226/1/6
f 227/4/6 228/4/6 230/4/6
f 230/4/6 228/4/6 231/4/6
f 229/4/6 230/4/6 233/4/6
f 233/4/6 230/4/6 234/4/6
f 231/4/6 232/4/6 235/4/6
f 235/4/6 232/4/6 236/4/6
f 234/4/6 235/4/6 237/4/6
f 237/4/6 235/4/6 238/4/6
f 239/1/6 240/1/6 242/1/6
f 242/1/6 240/1/6 243/1/6
f 241/1/6 242/1/6 245/1/6
f 245/1/6 242/1/6 246/1/6
f 243/1/6 244/1/6 247/1/6
f 247/1/6 244/1/6 248/1/6
f 246/1/6 247/1/6 249/1/6
f 249/1/6 247/1/6 250/1/6
f 251/1/6 252/1/6 253/1/6
f 253/1/6 252/1/6 254/1/6
