# MagicaVoxel @ Ephtracy

# group
o 

# material
mtllib FlappyBird.mtl
usemtl palette

# normals
vn -1 0 0
vn 1 0 0
vn 0 0 1
vn 0 0 -1
vn 0 -1 0
vn 0 1 0

# texcoords
vt 0.208984 0.5
vt 0.373047 0.5
vt 0.427734 0.5
vt 0.958984 0.5
vt 0.994141 0.5

# verts
v -2.1 0 -0.7
v -2.1 0 -1
v -2.1 0.1 -0.7
v -2.1 0.1 -1
v -2 0 -0.6
v -2 0 -0.7
v -2 0 -1
v -2 0 -1.1
v -2 0.1 -0.6
v -2 0.1 -0.7
v -2 0.1 -1
v -2 0.1 -1.1
v -1.9 0 -0.5
v -1.9 0 -0.6
v -1.9 0.1 -0.5
v -1.9 0.1 -0.6
v -1.8 0 -1.1
v -1.8 0 -1.2
v -1.8 0.1 -1.1
v -1.8 0.1 -1.2
v -1.7 0 -0.4
v -1.7 0 -0.5
v -1.7 0 -1.2
v -1.7 0 -1.3
v -1.7 0.1 -0.4
v -1.7 0.1 -0.5
v -1.7 0.1 -1.2
v -1.7 0.1 -1.3
v -1.6 0 -0.3
v -1.6 0 -0.4
v -1.6 0.1 -0.3
v -1.6 0.1 -0.4
v -1.5 0 -1.3
v -1.5 0 -1.4
v -1.5 0.1 -1.3
v -1.5 0.1 -1.4
v -1.4 0 -0.2
v -1.4 0 -0.3
v -1.4 0.1 -0.2
v -1.4 0.1 -0.3
v -1 0 -0.2
v -1 0 -0.3
v -1 0.1 -0.2
v -1 0.1 -0.3
v -0.9 0 -1.3
v -0.9 0 -1.4
v -0.9 0.1 -1.3
v -0.9 0.1 -1.4
v -0.8 0 -1.2
v -0.8 0 -1.3
v -0.8 0.1 -1.2
v -0.8 0.1 -1.3
v -0.7 0 -1.1
v -0.7 0 -1.2
v -0.7 0.1 -1.1
v -0.7 0.1 -1.2
v -0.6 0 -0.8
v -0.6 0 -1.1
v -0.6 0.1 -0.8
v -0.6 0.1 -1.1
v -0.5 0 -0.3
v -0.5 0 -0.6
v -0.5 0 -0.7
v -0.5 0 -0.8
v -0.5 0.1 -0.3
v -0.5 0.1 -0.6
v -0.5 0.1 -0.7
v -0.5 0.1 -0.8
v -0.4 0 -0.6
v -0.4 0 -0.7
v -0.4 0.1 -0.6
v -0.4 0.1 -0.7
v -1.4 0 -0.2
v -1.4 0.1 -0.2
v -1 0 -0.2
v -1 0.1 -0.2
v -1.6 0 -0.3
v -1.6 0.1 -0.3
v -1.4 0 -0.3
v -1.4 0.1 -0.3
v -1 0 -0.3
v -1 0.1 -0.3
v -0.5 0 -0.3
v -0.5 0.1 -0.3
v -1.7 0 -0.4
v -1.7 0.1 -0.4
v -1.6 0 -0.4
v -1.6 0.1 -0.4
v -1.9 0 -0.5
v -1.9 0.1 -0.5
v -1.7 0 -0.5
v -1.7 0.1 -0.5
v -2 0 -0.6
v -2 0.1 -0.6
v -1.9 0 -0.6
v -1.9 0.1 -0.6
v -0.5 0 -0.6
v -0.5 0.1 -0.6
v -0.4 0 -0.6
v -0.4 0.1 -0.6
v -2.1 0 -0.7
v -2.1 0.1 -0.7
v -2 0 -0.7
v -2 0.1 -0.7
v -0.5 0 -0.7
v -0.5 0.1 -0.7
v -0.4 0 -0.7
v -0.4 0.1 -0.7
v -0.6 0 -0.8
v -0.6 0.1 -0.8
v -0.5 0 -0.8
v -0.5 0.1 -0.8
v -2.1 0 -1
v -2.1 0.1 -1
v -2 0 -1
v -2 0.1 -1
v -2 0 -1.1
v -2 0.1 -1.1
v -1.8 0 -1.1
v -1.8 0.1 -1.1
v -0.7 0 -1.1
v -0.7 0.1 -1.1
v -0.6 0 -1.1
v -0.6 0.1 -1.1
v -1.8 0 -1.2
v -1.8 0.1 -1.2
v -1.7 0 -1.2
v -1.7 0.1 -1.2
v -0.8 0 -1.2
v -0.8 0.1 -1.2
v -0.7 0 -1.2
v -0.7 0.1 -1.2
v -1.7 0 -1.3
v -1.7 0.1 -1.3
v -1.5 0 -1.3
v -1.5 0.1 -1.3
v -0.9 0 -1.3
v -0.9 0.1 -1.3
v -0.8 0 -1.3
v -0.8 0.1 -1.3
v -1.5 0 -1.4
v -1.5 0.1 -1.4
v -0.9 0 -1.4
v -0.9 0.1 -1.4
v -1.4 0 -0.2
v -1 0 -0.2
v -1.6 0 -0.3
v -1.4 0 -0.3
v -1 0 -0.3
v -0.5 0 -0.3
v -1.7 0 -0.4
v -1.6 0 -0.4
v -1.4 0 -0.4
v -1.1 0 -0.4
v -1 0 -0.4
v -0.6 0 -0.4
v -1.9 0 -0.5
v -1.7 0 -0.5
v -1.2 0 -0.5
v -1.1 0 -0.5
v -1 0 -0.5
v -0.6 0 -0.5
v -2 0 -0.6
v -1.9 0 -0.6
v -1.6 0 -0.6
v -1.5 0 -0.6
v -1.2 0 -0.6
v -1.1 0 -0.6
v -1 0 -0.6
v -0.5 0 -0.6
v -0.4 0 -0.6
v -2.1 0 -0.7
v -2 0 -0.7
v -1.9 0 -0.7
v -1.6 0 -0.7
v -1.5 0 -0.7
v -1.4 0 -0.7
v -1.1 0 -0.7
v -1 0 -0.7
v -0.5 0 -0.7
v -0.4 0 -0.7
v -2 0 -0.8
v -1.9 0 -0.8
v -1.6 0 -0.8
v -1.5 0 -0.8
v -1.1 0 -0.8
v -1 0 -0.8
v -0.7 0 -0.8
v -0.6 0 -0.8
v -0.5 0 -0.8
v -1.6 0 -0.9
v -1.5 0 -0.9
v -1.4 0 -0.9
v -1.2 0 -0.9
v -1.1 0 -0.9
v -1 0 -0.9
v -0.9 0 -0.9
v -0.8 0 -0.9
v -2.1 0 -1
v -2 0 -1
v -1.6 0 -1
v -1.5 0 -1
v -2 0 -1.1
v -1.8 0 -1.1
v -1.7 0 -1.1
v -1.6 0 -1.1
v -0.9 0 -1.1
v -0.8 0 -1.1
v -0.7 0 -1.1
v -0.6 0 -1.1
v -1.8 0 -1.2
v -1.7 0 -1.2
v -1.5 0 -1.2
v -1.2 0 -1.2
v -1.1 0 -1.2
v -1 0 -1.2
v -0.9 0 -1.2
v -0.8 0 -1.2
v -0.7 0 -1.2
v -1.7 0 -1.3
v -1.5 0 -1.3
v -1.1 0 -1.3
v -1 0 -1.3
v -0.9 0 -1.3
v -0.8 0 -1.3
v -1.5 0 -1.4
v -0.9 0 -1.4
v -1.4 0.1 -0.2
v -1 0.1 -0.2
v -1.6 0.1 -0.3
v -1.4 0.1 -0.3
v -1 0.1 -0.3
v -0.5 0.1 -0.3
v -1.7 0.1 -0.4
v -1.6 0.1 -0.4
v -1.4 0.1 -0.4
v -1.1 0.1 -0.4
v -1 0.1 -0.4
v -0.6 0.1 -0.4
v -1.9 0.1 -0.5
v -1.7 0.1 -0.5
v -1.2 0.1 -0.5
v -1.1 0.1 -0.5
v -1 0.1 -0.5
v -0.6 0.1 -0.5
v -2 0.1 -0.6
v -1.9 0.1 -0.6
v -1.6 0.1 -0.6
v -1.5 0.1 -0.6
v -1.2 0.1 -0.6
v -1.1 0.1 -0.6
v -1 0.1 -0.6
v -0.5 0.1 -0.6
v -0.4 0.1 -0.6
v -2.1 0.1 -0.7
v -2 0.1 -0.7
v -1.9 0.1 -0.7
v -1.6 0.1 -0.7
v -1.5 0.1 -0.7
v -1.4 0.1 -0.7
v -1.1 0.1 -0.7
v -1 0.1 -0.7
v -0.5 0.1 -0.7
v -0.4 0.1 -0.7
v -2 0.1 -0.8
v -1.9 0.1 -0.8
v -1.6 0.1 -0.8
v -1.5 0.1 -0.8
v -1.1 0.1 -0.8
v -1 0.1 -0.8
v -0.7 0.1 -0.8
v -0.6 0.1 -0.8
v -0.5 0.1 -0.8
v -1.6 0.1 -0.9
v -1.5 0.1 -0.9
v -1.4 0.1 -0.9
v -1.2 0.1 -0.9
v -1.1 0.1 -0.9
v -1 0.1 -0.9
v -0.9 0.1 -0.9
v -0.8 0.1 -0.9
v -2.1 0.1 -1
v -2 0.1 -1
v -1.6 0.1 -1
v -1.5 0.1 -1
v -2 0.1 -1.1
v -1.8 0.1 -1.1
v -1.7 0.1 -1.1
v -1.6 0.1 -1.1
v -0.9 0.1 -1.1
v -0.8 0.1 -1.1
v -0.7 0.1 -1.1
v -0.6 0.1 -1.1
v -1.8 0.1 -1.2
v -1.7 0.1 -1.2
v -1.5 0.1 -1.2
v -1.2 0.1 -1.2
v -1.1 0.1 -1.2
v -1 0.1 -1.2
v -0.9 0.1 -1.2
v -0.8 0.1 -1.2
v -0.7 0.1 -1.2
v -1.7 0.1 -1.3
v -1.5 0.1 -1.3
v -1.1 0.1 -1.3
v -1 0.1 -1.3
v -0.9 0.1 -1.3
v -0.8 0.1 -1.3
v -1.5 0.1 -1.4
v -0.9 0.1 -1.4

# faces
f 3/5/1 2/5/1 1/5/1
f 4/5/1 2/5/1 3/5/1
f 9/5/1 6/5/1 5/5/1
f 10/5/1 6/5/1 9/5/1
f 11/5/1 8/5/1 7/5/1
f 12/5/1 8/5/1 11/5/1
f 15/5/1 14/5/1 13/5/1
f 16/5/1 14/5/1 15/5/1
f 19/5/1 18/5/1 17/5/1
f 20/5/1 18/5/1 19/5/1
f 25/5/1 22/5/1 21/5/1
f 26/5/1 22/5/1 25/5/1
f 27/5/1 24/5/1 23/5/1
f 28/5/1 24/5/1 27/5/1
f 31/5/1 30/5/1 29/5/1
f 32/5/1 30/5/1 31/5/1
f 35/5/1 34/5/1 33/5/1
f 36/5/1 34/5/1 35/5/1
f 39/5/1 38/5/1 37/5/1
f 40/5/1 38/5/1 39/5/1
f 41/5/2 42/5/2 43/5/2
f 43/5/2 42/5/2 44/5/2
f 45/5/2 46/5/2 47/5/2
f 47/5/2 46/5/2 48/5/2
f 49/5/2 50/5/2 51/5/2
f 51/5/2 50/5/2 52/5/2
f 53/5/2 54/5/2 55/5/2
f 55/5/2 54/5/2 56/5/2
f 57/5/2 58/5/2 59/5/2
f 59/5/2 58/5/2 60/5/2
f 61/5/2 62/5/2 65/5/2
f 65/5/2 62/5/2 66/5/2
f 63/5/2 64/5/2 67/5/2
f 67/5/2 64/5/2 68/5/2
f 69/5/2 70/5/2 71/5/2
f 71/5/2 70/5/2 72/5/2
f 75/5/3 74/5/3 73/5/3
f 76/5/3 74/5/3 75/5/3
f 79/5/3 78/5/3 77/5/3
f 80/5/3 78/5/3 79/5/3
f 83/5/3 82/5/3 81/5/3
f 84/5/3 82/5/3 83/5/3
f 87/5/3 86/5/3 85/5/3
f 88/5/3 86/5/3 87/5/3
f 91/5/3 90/5/3 89/5/3
f 92/5/3 90/5/3 91/5/3
f 95/5/3 94/5/3 93/5/3
f 96/5/3 94/5/3 95/5/3
f 99/5/3 98/5/3 97/5/3
f 100/5/3 98/5/3 99/5/3
f 103/5/3 102/5/3 101/5/3
f 104/5/3 102/5/3 103/5/3
f 105/5/4 106/5/4 107/5/4
f 107/5/4 106/5/4 108/5/4
f 109/5/4 110/5/4 111/5/4
f 111/5/4 110/5/4 112/5/4
f 113/5/4 114/5/4 115/5/4
f 115/5/4 114/5/4 116/5/4
f 117/5/4 118/5/4 119/5/4
f 119/5/4 118/5/4 120/5/4
f 121/5/4 122/5/4 123/5/4
f 123/5/4 122/5/4 124/5/4
f 125/5/4 126/5/4 127/5/4
f 127/5/4 126/5/4 128/5/4
f 129/5/4 130/5/4 131/5/4
f 131/5/4 130/5/4 132/5/4
f 133/5/4 134/5/4 135/5/4
f 135/5/4 134/5/4 136/5/4
f 137/5/4 138/5/4 139/5/4
f 139/5/4 138/5/4 140/5/4
f 141/5/4 142/5/4 143/5/4
f 143/5/4 142/5/4 144/5/4
f 148/5/5 146/5/5 145/5/5
f 149/5/5 146/5/5 148/5/5
f 152/5/5 148/5/5 147/5/5
f 153/2/5 149/2/5 148/2/5
f 153/5/5 148/5/5 152/5/5
f 154/2/5 149/2/5 153/2/5
f 155/5/5 150/5/5 149/5/5
f 155/2/5 149/2/5 154/2/5
f 156/5/5 150/5/5 155/5/5
f 158/5/5 152/5/5 151/5/5
f 159/2/5 154/2/5 153/2/5
f 159/2/5 153/2/5 152/2/5
f 160/5/5 155/5/5 154/5/5
f 160/2/5 154/2/5 159/2/5
f 161/1/5 156/1/5 155/1/5
f 161/5/5 155/5/5 160/5/5
f 162/5/5 150/5/5 156/5/5
f 162/1/5 156/1/5 161/1/5
f 164/5/5 158/5/5 157/5/5
f 165/5/5 152/5/5 158/5/5
f 165/2/5 159/2/5 152/2/5
f 165/5/5 158/5/5 164/5/5
f 166/2/5 159/2/5 165/2/5
f 167/5/5 160/5/5 159/5/5
f 167/2/5 159/2/5 166/2/5
f 168/1/5 161/1/5 160/1/5
f 168/5/5 160/5/5 167/5/5
f 169/5/5 162/5/5 161/5/5
f 169/1/5 161/1/5 168/1/5
f 170/5/5 150/5/5 162/5/5
f 170/5/5 162/5/5 169/5/5
f 173/5/5 164/5/5 163/5/5
f 174/3/5 165/3/5 164/3/5
f 174/5/5 164/5/5 173/5/5
f 175/5/5 166/5/5 165/5/5
f 175/3/5 165/3/5 174/3/5
f 176/3/5 167/3/5 166/3/5
f 176/5/5 166/5/5 175/5/5
f 176/3/5 168/3/5 167/3/5
f 177/3/5 168/3/5 176/3/5
f 178/5/5 169/5/5 168/5/5
f 178/3/5 168/3/5 177/3/5
f 179/1/5 170/1/5 169/1/5
f 179/5/5 169/5/5 178/5/5
f 180/5/5 171/5/5 170/5/5
f 180/1/5 170/1/5 179/1/5
f 181/5/5 171/5/5 180/5/5
f 182/3/5 174/3/5 173/3/5
f 182/5/5 173/5/5 172/5/5
f 183/4/5 175/4/5 174/4/5
f 183/3/5 174/3/5 182/3/5
f 184/3/5 176/3/5 175/3/5
f 184/4/5 175/4/5 183/4/5
f 185/5/5 177/5/5 176/5/5
f 185/3/5 176/3/5 184/3/5
f 186/3/5 179/3/5 178/3/5
f 186/3/5 178/3/5 177/3/5
f 187/5/5 180/5/5 179/5/5
f 187/3/5 179/3/5 186/3/5
f 188/5/5 180/5/5 187/5/5
f 189/5/5 180/5/5 188/5/5
f 190/5/5 180/5/5 189/5/5
f 191/4/5 184/4/5 183/4/5
f 191/4/5 185/4/5 184/4/5
f 191/4/5 183/4/5 182/4/5
f 192/5/5 177/5/5 185/5/5
f 192/4/5 185/4/5 191/4/5
f 193/3/5 186/3/5 177/3/5
f 193/5/5 177/5/5 192/5/5
f 194/3/5 186/3/5 193/3/5
f 195/5/5 187/5/5 186/5/5
f 195/3/5 186/3/5 194/3/5
f 196/4/5 188/4/5 187/4/5
f 196/5/5 187/5/5 195/5/5
f 197/4/5 188/4/5 196/4/5
f 198/4/5 188/4/5 197/4/5
f 199/5/5 182/5/5 172/5/5
f 200/4/5 191/4/5 182/4/5
f 200/5/5 182/5/5 199/5/5
f 201/5/5 192/5/5 191/5/5
f 201/4/5 191/4/5 200/4/5
f 202/3/5 194/3/5 193/3/5
f 202/5/5 192/5/5 201/5/5
f 202/3/5 193/3/5 192/3/5
f 203/5/5 201/5/5 200/5/5
f 204/5/5 201/5/5 203/5/5
f 205/5/5 201/5/5 204/5/5
f 206/3/5 202/3/5 201/3/5
f 206/5/5 201/5/5 205/5/5
f 207/5/5 198/5/5 197/5/5
f 207/4/5 196/4/5 195/4/5
f 207/4/5 197/4/5 196/4/5
f 208/4/5 188/4/5 198/4/5
f 208/5/5 198/5/5 207/5/5
f 209/5/5 189/5/5 188/5/5
f 209/4/5 188/4/5 208/4/5
f 210/5/5 189/5/5 209/5/5
f 211/5/5 205/5/5 204/5/5
f 212/3/5 206/3/5 205/3/5
f 212/5/5 205/5/5 211/5/5
f 213/3/5 194/3/5 202/3/5
f 213/3/5 206/3/5 212/3/5
f 213/3/5 202/3/5 206/3/5
f 214/5/5 195/5/5 194/5/5
f 214/3/5 194/3/5 213/3/5
f 215/4/5 207/4/5 195/4/5
f 215/5/5 195/5/5 214/5/5
f 215/4/5 208/4/5 207/4/5
f 216/4/5 208/4/5 215/4/5
f 217/4/5 208/4/5 216/4/5
f 218/5/5 209/5/5 208/5/5
f 218/4/5 208/4/5 217/4/5
f 219/5/5 209/5/5 218/5/5
f 220/5/5 213/5/5 212/5/5
f 221/3/5 214/3/5 213/3/5
f 221/5/5 213/5/5 220/5/5
f 221/3/5 215/3/5 214/3/5
f 222/5/5 216/5/5 215/5/5
f 222/3/5 215/3/5 221/3/5
f 223/4/5 217/4/5 216/4/5
f 223/5/5 216/5/5 222/5/5
f 224/5/5 218/5/5 217/5/5
f 224/4/5 217/4/5 223/4/5
f 225/5/5 218/5/5 224/5/5
f 226/5/5 222/5/5 221/5/5
f 226/5/5 223/5/5 222/5/5
f 226/5/5 224/5/5 223/5/5
f 227/5/5 224/5/5 226/5/5
f 228/5/6 229/5/6 231/5/6
f 231/5/6 229/5/6 232/5/6
f 230/5/6 231/5/6 235/5/6
f 231/2/6 232/2/6 236/2/6
f 235/5/6 231/5/6 236/5/6
f 236/2/6 232/2/6 237/2/6
f 232/5/6 233/5/6 238/5/6
f 237/2/6 232/2/6 238/2/6
f 238/5/6 233/5/6 239/5/6
f 234/5/6 235/5/6 241/5/6
f 236/2/6 237/2/6 242/2/6
f 235/2/6 236/2/6 242/2/6
f 237/5/6 238/5/6 243/5/6
f 242/2/6 237/2/6 243/2/6
f 238/1/6 239/1/6 244/1/6
f 243/5/6 238/5/6 244/5/6
f 239/5/6 233/5/6 245/5/6
f 244/1/6 239/1/6 245/1/6
f 240/5/6 241/5/6 247/5/6
f 241/5/6 235/5/6 248/5/6
f 235/2/6 242/2/6 248/2/6
f 247/5/6 241/5/6 248/5/6
f 248/2/6 242/2/6 249/2/6
f 242/5/6 243/5/6 250/5/6
f 249/2/6 242/2/6 250/2/6
f 243/1/6 244/1/6 251/1/6
f 250/5/6 243/5/6 251/5/6
f 244/5/6 245/5/6 252/5/6
f 251/1/6 244/1/6 252/1/6
f 245/5/6 233/5/6 253/5/6
f 252/5/6 245/5/6 253/5/6
f 246/5/6 247/5/6 256/5/6
f 247/3/6 248/3/6 257/3/6
f 256/5/6 247/5/6 257/5/6
f 248/5/6 249/5/6 258/5/6
f 257/3/6 248/3/6 258/3/6
f 249/3/6 250/3/6 259/3/6
f 258/5/6 249/5/6 259/5/6
f 250/3/6 251/3/6 259/3/6
f 259/3/6 251/3/6 260/3/6
f 251/5/6 252/5/6 261/5/6
f 260/3/6 251/3/6 261/3/6
f 252/1/6 253/1/6 262/1/6
f 261/5/6 252/5/6 262/5/6
f 253/5/6 254/5/6 263/5/6
f 262/1/6 253/1/6 263/1/6
f 263/5/6 254/5/6 264/5/6
f 256/3/6 257/3/6 265/3/6
f 255/5/6 256/5/6 265/5/6
f 257/4/6 258/4/6 266/4/6
f 265/3/6 257/3/6 266/3/6
f 258/3/6 259/3/6 267/3/6
f 266/4/6 258/4/6 267/4/6
f 259/5/6 260/5/6 268/5/6
f 267/3/6 259/3/6 268/3/6
f 261/3/6 262/3/6 269/3/6
f 260/3/6 261/3/6 269/3/6
f 262/5/6 263/5/6 270/5/6
f 269/3/6 262/3/6 270/3/6
f 270/5/6 263/5/6 271/5/6
f 271/5/6 263/5/6 272/5/6
f 272/5/6 263/5/6 273/5/6
f 266/4/6 267/4/6 274/4/6
f 267/4/6 268/4/6 274/4/6
f 265/4/6 266/4/6 274/4/6
f 268/5/6 260/5/6 275/5/6
f 274/4/6 268/4/6 275/4/6
f 260/3/6 269/3/6 276/3/6
f 275/5/6 260/5/6 276/5/6
f 276/3/6 269/3/6 277/3/6
f 269/5/6 270/5/6 278/5/6
f 277/3/6 269/3/6 278/3/6
f 270/4/6 271/4/6 279/4/6
f 278/5/6 270/5/6 279/5/6
f 279/4/6 271/4/6 280/4/6
f 280/4/6 271/4/6 281/4/6
f 255/5/6 265/5/6 282/5/6
f 265/4/6 274/4/6 283/4/6
f 282/5/6 265/5/6 283/5/6
f 274/5/6 275/5/6 284/5/6
f 283/4/6 274/4/6 284/4/6
f 276/3/6 277/3/6 285/3/6
f 284/5/6 275/5/6 285/5/6
f 275/3/6 276/3/6 285/3/6
f 283/5/6 284/5/6 286/5/6
f 286/5/6 284/5/6 287/5/6
f 287/5/6 284/5/6 288/5/6
f 284/3/6 285/3/6 289/3/6
f 288/5/6 284/5/6 289/5/6
f 280/5/6 281/5/6 290/5/6
f 278/4/6 279/4/6 290/4/6
f 279/4/6 280/4/6 290/4/6
f 281/4/6 271/4/6 291/4/6
f 290/5/6 281/5/6 291/5/6
f 271/5/6 272/5/6 292/5/6
f 291/4/6 271/4/6 292/4/6
f 292/5/6 272/5/6 293/5/6
f 287/5/6 288/5/6 294/5/6
f 288/3/6 289/3/6 295/3/6
f 294/5/6 288/5/6 295/5/6
f 285/3/6 277/3/6 296/3/6
f 295/3/6 289/3/6 296/3/6
f 289/3/6 285/3/6 296/3/6
f 277/5/6 278/5/6 297/5/6
f 296/3/6 277/3/6 297/3/6
f 278/4/6 290/4/6 298/4/6
f 297/5/6 278/5/6 298/5/6
f 290/4/6 291/4/6 298/4/6
f 298/4/6 291/4/6 299/4/6
f 299/4/6 291/4/6 300/4/6
f 291/5/6 292/5/6 301/5/6
f 300/4/6 291/4/6 301/4/6
f 301/5/6 292/5/6 302/5/6
f 295/5/6 296/5/6 303/5/6
f 296/3/6 297/3/6 304/3/6
f 303/5/6 296/5/6 304/5/6
f 297/3/6 298/3/6 304/3/6
f 298/5/6 299/5/6 305/5/6
f 304/3/6 298/3/6 305/3/6
f 299/4/6 300/4/6 306/4/6
f 305/5/6 299/5/6 306/5/6
f 300/5/6 301/5/6 307/5/6
f 306/4/6 300/4/6 307/4/6
f 307/5/6 301/5/6 308/5/6
f 304/5/6 305/5/6 309/5/6
f 305/5/6 306/5/6 309/5/6
f 306/5/6 307/5/6 309/5/6
f 309/5/6 307/5/6 310/5/6
