# MagicaVoxel @ Ephtracy

# group
o 

# material
mtllib GameBoy.mtl
usemtl palette

# normals
vn -1 0 0
vn 1 0 0
vn 0 0 1
vn 0 0 -1
vn 0 -1 0
vn 0 1 0

# texcoords
vt 0.513672 0.5
vt 0.771484 0.5
vt 0.896484 0.5
vt 0.923828 0.5
vt 0.962891 0.5
vt 0.990234 0.5

# verts
v -1.8 0.4 -0.9
v -1.8 0.4 -3.9
v -1.8 0.5 -3.6
v -1.8 0.5 -3.7
v -1.8 0.6 -3.1
v -1.8 0.6 -3.4
v -1.8 0.6 -3.6
v -1.8 0.6 -3.7
v -1.8 0.7 -3.1
v -1.8 0.7 -3.4
v -1.8 0.8 -0.9
v -1.8 0.8 -3.9
v -1.7 0.5 -3.6
v -1.7 0.5 -3.7
v -1.7 0.6 -3.1
v -1.7 0.6 -3.4
v -1.7 0.6 -3.6
v -1.7 0.6 -3.7
v -1.7 0.7 -3.1
v -1.7 0.7 -3.4
v -1.7 0.8 -1.9
v -1.7 0.8 -2.1
v -1.7 0.9 -1.9
v -1.7 0.9 -2.1
v -1.5 0.8 -1.7
v -1.5 0.8 -1.9
v -1.5 0.8 -2.1
v -1.5 0.8 -2.3
v -1.5 0.9 -1.7
v -1.5 0.9 -1.9
v -1.5 0.9 -2.1
v -1.5 0.9 -2.3
v -1.3 0.8 -1.4
v -1.3 0.8 -1.5
v -1.3 0.9 -1.4
v -1.3 0.9 -1.5
v -1.2 0.8 -1.5
v -1.2 0.8 -1.6
v -1.2 0.9 -1.5
v -1.2 0.9 -1.6
v -1 0.6 -0.9
v -1 0.6 -1
v -1 0.7 -0.9
v -1 0.7 -1
v -1 0.8 -1.4
v -1 0.8 -1.5
v -1 0.9 -1.4
v -1 0.9 -1.5
v -0.9 0.8 -1.5
v -0.9 0.8 -1.6
v -0.9 0.9 -1.5
v -0.9 0.9 -1.6
v -0.8 0.8 -1.8
v -0.8 0.8 -2
v -0.8 0.9 -1.8
v -0.8 0.9 -2
v -0.7 0.7 -1.2
v -0.7 0.7 -1.3
v -0.7 0.8 -1.2
v -0.7 0.8 -1.3
v -0.6 0.7 -1.1
v -0.6 0.7 -1.2
v -0.6 0.7 -1.3
v -0.6 0.7 -1.4
v -0.6 0.7 -2.7
v -0.6 0.7 -3.6
v -0.6 0.8 -1.1
v -0.6 0.8 -1.2
v -0.6 0.8 -1.3
v -0.6 0.8 -1.4
v -0.6 0.8 -2.7
v -0.6 0.8 -3.6
v -0.5 0.4 -3.2
v -0.5 0.4 -3.9
v -0.5 0.5 -3.2
v -0.5 0.5 -3.9
v -0.5 0.7 -1.2
v -0.5 0.7 -1.3
v -0.5 0.7 -1.4
v -0.5 0.7 -1.5
v -0.5 0.8 -1.2
v -0.5 0.8 -1.3
v -0.5 0.8 -1.4
v -0.5 0.8 -1.5
v -0.5 0.8 -1.9
v -0.5 0.8 -2.1
v -0.5 0.9 -1.9
v -0.5 0.9 -2.1
v -0.4 0.7 -1.3
v -0.4 0.7 -1.4
v -0.4 0.8 -1.3
v -0.4 0.8 -1.4
v -1.5 0.4 -3.2
v -1.5 0.4 -3.9
v -1.5 0.5 -3.2
v -1.5 0.5 -3.9
v -1.5 0.7 -2.7
v -1.5 0.7 -3.6
v -1.5 0.8 -2.7
v -1.5 0.8 -3.6
v -1.3 0.8 -1.7
v -1.3 0.8 -1.9
v -1.3 0.8 -2.1
v -1.3 0.8 -2.3
v -1.3 0.9 -1.7
v -1.3 0.9 -1.9
v -1.3 0.9 -2.1
v -1.3 0.9 -2.3
v -1.2 0.8 -1.4
v -1.2 0.8 -1.5
v -1.2 0.9 -1.4
v -1.2 0.9 -1.5
v -1.1 0.6 -0.9
v -1.1 0.6 -1
v -1.1 0.7 -0.9
v -1.1 0.7 -1
v -1.1 0.8 -1.5
v -1.1 0.8 -1.6
v -1.1 0.8 -1.9
v -1.1 0.8 -2.1
v -1.1 0.9 -1.5
v -1.1 0.9 -1.6
v -1.1 0.9 -1.9
v -1.1 0.9 -2.1
v -0.9 0.8 -1.4
v -0.9 0.8 -1.5
v -0.9 0.9 -1.4
v -0.9 0.9 -1.5
v -0.8 0.7 -1.2
v -0.8 0.7 -1.3
v -0.8 0.8 -1.2
v -0.8 0.8 -1.3
v -0.8 0.8 -1.5
v -0.8 0.8 -1.6
v -0.8 0.9 -1.5
v -0.8 0.9 -1.6
v -0.7 0.7 -1.1
v -0.7 0.7 -1.2
v -0.7 0.7 -1.3
v -0.7 0.7 -1.4
v -0.7 0.8 -1.1
v -0.7 0.8 -1.2
v -0.7 0.8 -1.3
v -0.7 0.8 -1.4
v -0.6 0.4 -0.9
v -0.6 0.4 -1
v -0.6 0.7 -1.2
v -0.6 0.7 -1.3
v -0.6 0.7 -1.4
v -0.6 0.7 -1.5
v -0.6 0.8 -0.9
v -0.6 0.8 -1
v -0.6 0.8 -1.2
v -0.6 0.8 -1.3
v -0.6 0.8 -1.4
v -0.6 0.8 -1.5
v -0.6 0.8 -1.8
v -0.6 0.8 -2
v -0.6 0.9 -1.8
v -0.6 0.9 -2
v -0.5 0.7 -1.3
v -0.5 0.7 -1.4
v -0.5 0.8 -1.3
v -0.5 0.8 -1.4
v -0.4 0.4 -1
v -0.4 0.4 -1.1
v -0.4 0.8 -1
v -0.4 0.8 -1.1
v -0.3 0.4 -1.1
v -0.3 0.4 -1.3
v -0.3 0.5 -2.9
v -0.3 0.5 -3.2
v -0.3 0.5 -3.3
v -0.3 0.5 -3.6
v -0.3 0.6 -2.9
v -0.3 0.6 -3.2
v -0.3 0.6 -3.3
v -0.3 0.6 -3.6
v -0.3 0.8 -1.1
v -0.3 0.8 -1.3
v -0.3 0.8 -1.9
v -0.3 0.8 -2.1
v -0.3 0.9 -1.9
v -0.3 0.9 -2.1
v -0.2 0.4 -1.3
v -0.2 0.4 -3.9
v -0.2 0.5 -2.9
v -0.2 0.5 -3.2
v -0.2 0.5 -3.3
v -0.2 0.5 -3.6
v -0.2 0.6 -2.9
v -0.2 0.6 -3.2
v -0.2 0.6 -3.3
v -0.2 0.6 -3.6
v -0.2 0.8 -1.3
v -0.2 0.8 -3.9
v -1.8 0.4 -0.9
v -1.8 0.8 -0.9
v -1.1 0.6 -0.9
v -1.1 0.7 -0.9
v -1 0.6 -0.9
v -1 0.7 -0.9
v -0.6 0.4 -0.9
v -0.6 0.8 -0.9
v -1.1 0.6 -1
v -1.1 0.7 -1
v -1 0.6 -1
v -1 0.7 -1
v -0.6 0.4 -1
v -0.6 0.8 -1
v -0.4 0.4 -1
v -0.4 0.8 -1
v -0.4 0.4 -1.1
v -0.4 0.8 -1.1
v -0.3 0.4 -1.1
v -0.3 0.8 -1.1
v -0.7 0.7 -1.2
v -0.7 0.8 -1.2
v -0.6 0.7 -1.2
v -0.6 0.8 -1.2
v -0.8 0.7 -1.3
v -0.8 0.8 -1.3
v -0.7 0.7 -1.3
v -0.7 0.8 -1.3
v -0.6 0.7 -1.3
v -0.6 0.8 -1.3
v -0.5 0.7 -1.3
v -0.5 0.8 -1.3
v -0.3 0.4 -1.3
v -0.3 0.8 -1.3
v -0.2 0.4 -1.3
v -0.2 0.8 -1.3
v -1.3 0.8 -1.4
v -1.3 0.9 -1.4
v -1.2 0.8 -1.4
v -1.2 0.9 -1.4
v -1 0.8 -1.4
v -1 0.9 -1.4
v -0.9 0.8 -1.4
v -0.9 0.9 -1.4
v -0.7 0.7 -1.4
v -0.7 0.8 -1.4
v -0.6 0.7 -1.4
v -0.6 0.8 -1.4
v -0.5 0.7 -1.4
v -0.5 0.8 -1.4
v -0.4 0.7 -1.4
v -0.4 0.8 -1.4
v -1.2 0.8 -1.5
v -1.2 0.9 -1.5
v -1.1 0.8 -1.5
v -1.1 0.9 -1.5
v -0.9 0.8 -1.5
v -0.9 0.9 -1.5
v -0.8 0.8 -1.5
v -0.8 0.9 -1.5
v -0.6 0.7 -1.5
v -0.6 0.8 -1.5
v -0.5 0.7 -1.5
v -0.5 0.8 -1.5
v -1.5 0.8 -1.7
v -1.5 0.9 -1.7
v -1.3 0.8 -1.7
v -1.3 0.9 -1.7
v -0.8 0.8 -1.8
v -0.8 0.9 -1.8
v -0.6 0.8 -1.8
v -0.6 0.9 -1.8
v -1.7 0.8 -1.9
v -1.7 0.9 -1.9
v -1.5 0.8 -1.9
v -1.5 0.9 -1.9
v -1.3 0.8 -1.9
v -1.3 0.9 -1.9
v -1.1 0.8 -1.9
v -1.1 0.9 -1.9
v -0.5 0.8 -1.9
v -0.5 0.9 -1.9
v -0.3 0.8 -1.9
v -0.3 0.9 -1.9
v -0.3 0.5 -3.2
v -0.3 0.6 -3.2
v -0.2 0.5 -3.2
v -0.2 0.6 -3.2
v -1.8 0.6 -3.4
v -1.8 0.7 -3.4
v -1.7 0.6 -3.4
v -1.7 0.7 -3.4
v -1.5 0.7 -3.6
v -1.5 0.8 -3.6
v -0.6 0.7 -3.6
v -0.6 0.8 -3.6
v -0.3 0.5 -3.6
v -0.3 0.6 -3.6
v -0.2 0.5 -3.6
v -0.2 0.6 -3.6
v -1.8 0.5 -3.7
v -1.8 0.6 -3.7
v -1.7 0.5 -3.7
v -1.7 0.6 -3.7
v -0.7 0.7 -1.1
v -0.7 0.8 -1.1
v -0.6 0.7 -1.1
v -0.6 0.8 -1.1
v -0.8 0.7 -1.2
v -0.8 0.8 -1.2
v -0.7 0.7 -1.2
v -0.7 0.8 -1.2
v -0.6 0.7 -1.2
v -0.6 0.8 -1.2
v -0.5 0.7 -1.2
v -0.5 0.8 -1.2
v -0.7 0.7 -1.3
v -0.7 0.8 -1.3
v -0.6 0.7 -1.3
v -0.6 0.8 -1.3
v -0.5 0.7 -1.3
v -0.5 0.8 -1.3
v -0.4 0.7 -1.3
v -0.4 0.8 -1.3
v -0.6 0.7 -1.4
v -0.6 0.8 -1.4
v -0.5 0.7 -1.4
v -0.5 0.8 -1.4
v -1.3 0.8 -1.5
v -1.3 0.9 -1.5
v -1.2 0.8 -1.5
v -1.2 0.9 -1.5
v -1 0.8 -1.5
v -1 0.9 -1.5
v -0.9 0.8 -1.5
v -0.9 0.9 -1.5
v -1.2 0.8 -1.6
v -1.2 0.9 -1.6
v -1.1 0.8 -1.6
v -1.1 0.9 -1.6
v -0.9 0.8 -1.6
v -0.9 0.9 -1.6
v -0.8 0.8 -1.6
v -0.8 0.9 -1.6
v -0.8 0.8 -2
v -0.8 0.9 -2
v -0.6 0.8 -2
v -0.6 0.9 -2
v -1.7 0.8 -2.1
v -1.7 0.9 -2.1
v -1.5 0.8 -2.1
v -1.5 0.9 -2.1
v -1.3 0.8 -2.1
v -1.3 0.9 -2.1
v -1.1 0.8 -2.1
v -1.1 0.9 -2.1
v -0.5 0.8 -2.1
v -0.5 0.9 -2.1
v -0.3 0.8 -2.1
v -0.3 0.9 -2.1
v -1.5 0.8 -2.3
v -1.5 0.9 -2.3
v -1.3 0.8 -2.3
v -1.3 0.9 -2.3
v -1.5 0.7 -2.7
v -1.5 0.8 -2.7
v -0.6 0.7 -2.7
v -0.6 0.8 -2.7
v -0.3 0.5 -2.9
v -0.3 0.6 -2.9
v -0.2 0.5 -2.9
v -0.2 0.6 -2.9
v -1.8 0.6 -3.1
v -1.8 0.7 -3.1
v -1.7 0.6 -3.1
v -1.7 0.7 -3.1
v -1.5 0.4 -3.2
v -1.5 0.5 -3.2
v -0.5 0.4 -3.2
v -0.5 0.5 -3.2
v -0.3 0.5 -3.3
v -0.3 0.6 -3.3
v -0.2 0.5 -3.3
v -0.2 0.6 -3.3
v -1.8 0.5 -3.6
v -1.8 0.6 -3.6
v -1.7 0.5 -3.6
v -1.7 0.6 -3.6
v -1.8 0.4 -3.9
v -1.8 0.8 -3.9
v -1.5 0.4 -3.9
v -1.5 0.5 -3.9
v -0.5 0.4 -3.9
v -0.5 0.5 -3.9
v -0.2 0.4 -3.9
v -0.2 0.8 -3.9
v -1.8 0.4 -0.9
v -0.6 0.4 -0.9
v -0.6 0.4 -1
v -0.4 0.4 -1
v -0.4 0.4 -1.1
v -0.3 0.4 -1.1
v -0.3 0.4 -1.3
v -0.2 0.4 -1.3
v -1.5 0.4 -3.2
v -0.5 0.4 -3.2
v -1.8 0.4 -3.9
v -1.5 0.4 -3.9
v -0.5 0.4 -3.9
v -0.2 0.4 -3.9
v -1.5 0.5 -3.2
v -0.5 0.5 -3.2
v -1.5 0.5 -3.9
v -0.5 0.5 -3.9
v -0.3 0.6 -2.9
v -0.2 0.6 -2.9
v -0.3 0.6 -3.2
v -0.2 0.6 -3.2
v -0.3 0.6 -3.3
v -0.2 0.6 -3.3
v -1.8 0.6 -3.6
v -1.7 0.6 -3.6
v -0.3 0.6 -3.6
v -0.2 0.6 -3.6
v -1.8 0.6 -3.7
v -1.7 0.6 -3.7
v -1.1 0.7 -0.9
v -1 0.7 -0.9
v -1.1 0.7 -1
v -1 0.7 -1
v -1.8 0.7 -3.1
v -1.7 0.7 -3.1
v -1.8 0.7 -3.4
v -1.7 0.7 -3.4
v -0.3 0.5 -2.9
v -0.2 0.5 -2.9
v -0.3 0.5 -3.2
v -0.2 0.5 -3.2
v -0.3 0.5 -3.3
v -0.2 0.5 -3.3
v -1.8 0.5 -3.6
v -1.7 0.5 -3.6
v -0.3 0.5 -3.6
v -0.2 0.5 -3.6
v -1.8 0.5 -3.7
v -1.7 0.5 -3.7
v -1.1 0.6 -0.9
v -1 0.6 -0.9
v -1.1 0.6 -1
v -1 0.6 -1
v -1.8 0.6 -3.1
v -1.7 0.6 -3.1
v -1.8 0.6 -3.4
v -1.7 0.6 -3.4
v -0.7 0.7 -1.1
v -0.6 0.7 -1.1
v -0.8 0.7 -1.2
v -0.7 0.7 -1.2
v -0.6 0.7 -1.2
v -0.5 0.7 -1.2
v -0.8 0.7 -1.3
v -0.7 0.7 -1.3
v -0.6 0.7 -1.3
v -0.5 0.7 -1.3
v -0.4 0.7 -1.3
v -0.7 0.7 -1.4
v -0.6 0.7 -1.4
v -0.5 0.7 -1.4
v -0.4 0.7 -1.4
v -0.6 0.7 -1.5
v -0.5 0.7 -1.5
v -1.5 0.7 -2.7
v -0.6 0.7 -2.7
v -1.5 0.7 -3.6
v -0.6 0.7 -3.6
v -1.8 0.8 -0.9
v -0.6 0.8 -0.9
v -0.6 0.8 -1
v -0.4 0.8 -1
v -0.7 0.8 -1.1
v -0.6 0.8 -1.1
v -0.4 0.8 -1.1
v -0.3 0.8 -1.1
v -0.8 0.8 -1.2
v -0.7 0.8 -1.2
v -0.6 0.8 -1.2
v -0.5 0.8 -1.2
v -0.8 0.8 -1.3
v -0.7 0.8 -1.3
v -0.6 0.8 -1.3
v -0.5 0.8 -1.3
v -0.4 0.8 -1.3
v -0.3 0.8 -1.3
v -0.2 0.8 -1.3
v -1.3 0.8 -1.4
v -1.2 0.8 -1.4
v -1 0.8 -1.4
v -0.9 0.8 -1.4
v -0.7 0.8 -1.4
v -0.6 0.8 -1.4
v -0.5 0.8 -1.4
v -0.4 0.8 -1.4
v -1.3 0.8 -1.5
v -1.2 0.8 -1.5
v -1.1 0.8 -1.5
v -1 0.8 -1.5
v -0.9 0.8 -1.5
v -0.8 0.8 -1.5
v -0.6 0.8 -1.5
v -0.5 0.8 -1.5
v -1.2 0.8 -1.6
v -1.1 0.8 -1.6
v -0.9 0.8 -1.6
v -0.8 0.8 -1.6
v -1.5 0.8 -1.7
v -1.3 0.8 -1.7
v -0.8 0.8 -1.8
v -0.6 0.8 -1.8
v -1.7 0.8 -1.9
v -1.5 0.8 -1.9
v -1.3 0.8 -1.9
v -1.1 0.8 -1.9
v -0.5 0.8 -1.9
v -0.3 0.8 -1.9
v -0.8 0.8 -2
v -0.6 0.8 -2
v -1.7 0.8 -2.1
v -1.5 0.8 -2.1
v -1.3 0.8 -2.1
v -1.1 0.8 -2.1
v -0.5 0.8 -2.1
v -0.3 0.8 -2.1
v -1.5 0.8 -2.3
v -1.3 0.8 -2.3
v -1.7 0.8 -2.4
v -0.9 0.8 -2.4
v -1.7 0.8 -2.5
v -0.9 0.8 -2.5
v -1.7 0.8 -2.6
v -0.6 0.8 -2.6
v -1.5 0.8 -2.7
v -0.6 0.8 -2.7
v -0.5 0.8 -2.7
v -0.5 0.8 -2.8
v -0.4 0.8 -2.8
v -1.5 0.8 -3.6
v -0.6 0.8 -3.6
v -1.7 0.8 -3.7
v -0.4 0.8 -3.7
v -1.8 0.8 -3.9
v -0.2 0.8 -3.9
v -1.3 0.9 -1.4
v -1.2 0.9 -1.4
v -1 0.9 -1.4
v -0.9 0.9 -1.4
v -1.3 0.9 -1.5
v -1.2 0.9 -1.5
v -1.1 0.9 -1.5
v -1 0.9 -1.5
v -0.9 0.9 -1.5
v -0.8 0.9 -1.5
v -1.2 0.9 -1.6
v -1.1 0.9 -1.6
v -0.9 0.9 -1.6
v -0.8 0.9 -1.6
v -1.5 0.9 -1.7
v -1.3 0.9 -1.7
v -0.8 0.9 -1.8
v -0.6 0.9 -1.8
v -1.7 0.9 -1.9
v -1.5 0.9 -1.9
v -1.3 0.9 -1.9
v -1.1 0.9 -1.9
v -0.5 0.9 -1.9
v -0.3 0.9 -1.9
v -0.8 0.9 -2
v -0.6 0.9 -2
v -1.7 0.9 -2.1
v -1.5 0.9 -2.1
v -1.3 0.9 -2.1
v -1.1 0.9 -2.1
v -0.5 0.9 -2.1
v -0.3 0.9 -2.1
v -1.5 0.9 -2.3
v -1.3 0.9 -2.3

# faces
f 3/5/1 2/5/1 1/5/1
f 4/5/1 2/5/1 3/5/1
f 5/5/1 3/5/1 1/5/1
f 6/5/1 3/5/1 5/5/1
f 7/5/1 3/5/1 6/5/1
f 8/5/1 2/5/1 4/5/1
f 9/5/1 5/5/1 1/5/1
f 10/5/1 7/5/1 6/5/1
f 10/5/1 8/5/1 7/5/1
f 11/5/1 9/5/1 1/5/1
f 11/5/1 10/5/1 9/5/1
f 12/5/1 8/5/1 10/5/1
f 12/5/1 10/5/1 11/5/1
f 12/5/1 2/5/1 8/5/1
f 17/6/1 14/6/1 13/6/1
f 18/6/1 14/6/1 17/6/1
f 19/6/1 16/6/1 15/6/1
f 20/6/1 16/6/1 19/6/1
f 23/6/1 22/6/1 21/6/1
f 24/6/1 22/6/1 23/6/1
f 29/6/1 26/6/1 25/6/1
f 30/6/1 26/6/1 29/6/1
f 31/6/1 28/6/1 27/6/1
f 32/6/1 28/6/1 31/6/1
f 35/4/1 34/4/1 33/4/1
f 36/4/1 34/4/1 35/4/1
f 39/4/1 38/4/1 37/4/1
f 40/4/1 38/4/1 39/4/1
f 43/5/1 42/5/1 41/5/1
f 44/5/1 42/5/1 43/5/1
f 47/4/1 46/4/1 45/4/1
f 48/4/1 46/4/1 47/4/1
f 51/4/1 50/4/1 49/4/1
f 52/4/1 50/4/1 51/4/1
f 55/3/1 54/3/1 53/3/1
f 56/3/1 54/3/1 55/3/1
f 59/5/1 58/5/1 57/5/1
f 60/5/1 58/5/1 59/5/1
f 67/5/1 62/5/1 61/5/1
f 68/5/1 62/5/1 67/5/1
f 69/5/1 64/5/1 63/5/1
f 70/5/1 64/5/1 69/5/1
f 71/4/1 66/4/1 65/4/1
f 72/4/1 66/4/1 71/4/1
f 75/5/1 74/5/1 73/5/1
f 76/5/1 74/5/1 75/5/1
f 81/5/1 78/5/1 77/5/1
f 82/5/1 78/5/1 81/5/1
f 83/5/1 80/5/1 79/5/1
f 84/5/1 80/5/1 83/5/1
f 87/3/1 86/3/1 85/3/1
f 88/3/1 86/3/1 87/3/1
f 91/5/1 90/5/1 89/5/1
f 92/5/1 90/5/1 91/5/1
f 93/5/2 94/5/2 95/5/2
f 95/5/2 94/5/2 96/5/2
f 97/4/2 98/4/2 99/4/2
f 99/4/2 98/4/2 100/4/2
f 101/6/2 102/6/2 105/6/2
f 105/6/2 102/6/2 106/6/2
f 103/6/2 104/6/2 107/6/2
f 107/6/2 104/6/2 108/6/2
f 109/4/2 110/4/2 111/4/2
f 111/4/2 110/4/2 112/4/2
f 113/5/2 114/5/2 115/5/2
f 115/5/2 114/5/2 116/5/2
f 117/4/2 118/4/2 121/4/2
f 121/4/2 118/4/2 122/4/2
f 119/6/2 120/6/2 123/6/2
f 123/6/2 120/6/2 124/6/2
f 125/4/2 126/4/2 127/4/2
f 127/4/2 126/4/2 128/4/2
f 129/5/2 130/5/2 131/5/2
f 131/5/2 130/5/2 132/5/2
f 133/4/2 134/4/2 135/4/2
f 135/4/2 134/4/2 136/4/2
f 137/5/2 138/5/2 141/5/2
f 141/5/2 138/5/2 142/5/2
f 139/5/2 140/5/2 143/5/2
f 143/5/2 140/5/2 144/5/2
f 145/5/2 146/5/2 151/5/2
f 151/5/2 146/5/2 152/5/2
f 147/5/2 148/5/2 153/5/2
f 153/5/2 148/5/2 154/5/2
f 149/5/2 150/5/2 155/5/2
f 155/5/2 150/5/2 156/5/2
f 157/3/2 158/3/2 159/3/2
f 159/3/2 158/3/2 160/3/2
f 161/5/2 162/5/2 163/5/2
f 163/5/2 162/5/2 164/5/2
f 165/5/2 166/5/2 167/5/2
f 167/5/2 166/5/2 168/5/2
f 171/6/2 172/6/2 175/6/2
f 175/6/2 172/6/2 176/6/2
f 173/6/2 174/6/2 177/6/2
f 177/6/2 174/6/2 178/6/2
f 169/5/2 170/5/2 179/5/2
f 179/5/2 170/5/2 180/5/2
f 181/3/2 182/3/2 183/3/2
f 183/3/2 182/3/2 184/3/2
f 185/5/2 186/5/2 187/5/2
f 187/5/2 186/5/2 188/5/2
f 188/5/2 186/5/2 189/5/2
f 189/5/2 186/5/2 190/5/2
f 185/5/2 187/5/2 191/5/2
f 188/5/2 189/5/2 192/5/2
f 192/5/2 189/5/2 193/5/2
f 190/5/2 186/5/2 194/5/2
f 192/5/2 193/5/2 195/5/2
f 193/5/2 194/5/2 195/5/2
f 185/5/2 191/5/2 195/5/2
f 191/5/2 192/5/2 195/5/2
f 194/5/2 186/5/2 196/5/2
f 195/5/2 194/5/2 196/5/2
f 199/5/3 198/5/3 197/5/3
f 200/5/3 198/5/3 199/5/3
f 201/5/3 199/5/3 197/5/3
f 202/5/3 198/5/3 200/5/3
f 203/5/3 201/5/3 197/5/3
f 203/5/3 202/5/3 201/5/3
f 204/5/3 198/5/3 202/5/3
f 204/5/3 202/5/3 203/5/3
f 207/6/3 206/6/3 205/6/3
f 208/6/3 206/6/3 207/6/3
f 211/5/3 210/5/3 209/5/3
f 212/5/3 210/5/3 211/5/3
f 215/5/3 214/5/3 213/5/3
f 216/5/3 214/5/3 215/5/3
f 219/5/3 218/5/3 217/5/3
f 220/5/3 218/5/3 219/5/3
f 223/5/3 222/5/3 221/5/3
f 224/5/3 222/5/3 223/5/3
f 227/5/3 226/5/3 225/5/3
f 228/5/3 226/5/3 227/5/3
f 231/5/3 230/5/3 229/5/3
f 232/5/3 230/5/3 231/5/3
f 235/4/3 234/4/3 233/4/3
f 236/4/3 234/4/3 235/4/3
f 239/4/3 238/4/3 237/4/3
f 240/4/3 238/4/3 239/4/3
f 243/5/3 242/5/3 241/5/3
f 244/5/3 242/5/3 243/5/3
f 247/5/3 246/5/3 245/5/3
f 248/5/3 246/5/3 247/5/3
f 251/4/3 250/4/3 249/4/3
f 252/4/3 250/4/3 251/4/3
f 255/4/3 254/4/3 253/4/3
f 256/4/3 254/4/3 255/4/3
f 259/5/3 258/5/3 257/5/3
f 260/5/3 258/5/3 259/5/3
f 263/6/3 262/6/3 261/6/3
f 264/6/3 262/6/3 263/6/3
f 267/3/3 266/3/3 265/3/3
f 268/3/3 266/3/3 267/3/3
f 271/6/3 270/6/3 269/6/3
f 272/6/3 270/6/3 271/6/3
f 275/6/3 274/6/3 273/6/3
f 276/6/3 274/6/3 275/6/3
f 279/3/3 278/3/3 277/3/3
f 280/3/3 278/3/3 279/3/3
f 283/5/3 282/5/3 281/5/3
f 284/5/3 282/5/3 283/5/3
f 287/5/3 286/5/3 285/5/3
f 288/5/3 286/5/3 287/5/3
f 291/4/3 290/4/3 289/4/3
f 292/4/3 290/4/3 291/4/3
f 295/5/3 294/5/3 293/5/3
f 296/5/3 294/5/3 295/5/3
f 299/5/3 298/5/3 297/5/3
f 300/5/3 298/5/3 299/5/3
f 301/5/4 302/5/4 303/5/4
f 303/5/4 302/5/4 304/5/4
f 305/5/4 306/5/4 307/5/4
f 307/5/4 306/5/4 308/5/4
f 309/5/4 310/5/4 311/5/4
f 311/5/4 310/5/4 312/5/4
f 313/5/4 314/5/4 315/5/4
f 315/5/4 314/5/4 316/5/4
f 317/5/4 318/5/4 319/5/4
f 319/5/4 318/5/4 320/5/4
f 321/5/4 322/5/4 323/5/4
f 323/5/4 322/5/4 324/5/4
f 325/4/4 326/4/4 327/4/4
f 327/4/4 326/4/4 328/4/4
f 329/4/4 330/4/4 331/4/4
f 331/4/4 330/4/4 332/4/4
f 333/4/4 334/4/4 335/4/4
f 335/4/4 334/4/4 336/4/4
f 337/4/4 338/4/4 339/4/4
f 339/4/4 338/4/4 340/4/4
f 341/3/4 342/3/4 343/3/4
f 343/3/4 342/3/4 344/3/4
f 345/6/4 346/6/4 347/6/4
f 347/6/4 346/6/4 348/6/4
f 349/6/4 350/6/4 351/6/4
f 351/6/4 350/6/4 352/6/4
f 353/3/4 354/3/4 355/3/4
f 355/3/4 354/3/4 356/3/4
f 357/6/4 358/6/4 359/6/4
f 359/6/4 358/6/4 360/6/4
f 361/4/4 362/4/4 363/4/4
f 363/4/4 362/4/4 364/4/4
f 365/5/4 366/5/4 367/5/4
f 367/5/4 366/5/4 368/5/4
f 369/5/4 370/5/4 371/5/4
f 371/5/4 370/5/4 372/5/4
f 373/5/4 374/5/4 375/5/4
f 375/5/4 374/5/4 376/5/4
f 377/5/4 378/5/4 379/5/4
f 379/5/4 378/5/4 380/5/4
f 381/5/4 382/5/4 383/5/4
f 383/5/4 382/5/4 384/5/4
f 385/5/4 386/5/4 387/5/4
f 387/5/4 386/5/4 388/5/4
f 388/5/4 386/5/4 390/5/4
f 389/5/4 390/5/4 391/5/4
f 390/5/4 386/5/4 392/5/4
f 391/5/4 390/5/4 392/5/4
f 395/5/5 394/5/5 393/5/5
f 397/5/5 396/5/5 395/5/5
f 399/5/5 398/5/5 397/5/5
f 401/5/5 395/5/5 393/5/5
f 401/5/5 400/5/5 399/5/5
f 401/5/5 399/5/5 397/5/5
f 401/5/5 397/5/5 395/5/5
f 402/5/5 400/5/5 401/5/5
f 403/5/5 401/5/5 393/5/5
f 404/5/5 401/5/5 403/5/5
f 405/5/5 400/5/5 402/5/5
f 406/5/5 400/5/5 405/5/5
f 409/5/5 408/5/5 407/5/5
f 410/5/5 408/5/5 409/5/5
f 413/5/5 412/5/5 411/5/5
f 414/5/5 412/5/5 413/5/5
f 419/5/5 416/5/5 415/5/5
f 420/5/5 416/5/5 419/5/5
f 421/5/5 418/5/5 417/5/5
f 422/5/5 418/5/5 421/5/5
f 425/5/5 424/5/5 423/5/5
f 426/5/5 424/5/5 425/5/5
f 429/5/5 428/5/5 427/5/5
f 430/5/5 428/5/5 429/5/5
f 431/5/6 432/5/6 433/5/6
f 433/5/6 432/5/6 434/5/6
f 435/5/6 436/5/6 439/5/6
f 439/5/6 436/5/6 440/5/6
f 437/5/6 438/5/6 441/5/6
f 441/5/6 438/5/6 442/5/6
f 443/5/6 444/5/6 445/5/6
f 445/5/6 444/5/6 446/5/6
f 447/5/6 448/5/6 449/5/6
f 449/5/6 448/5/6 450/5/6
f 451/5/6 452/5/6 454/5/6
f 454/5/6 452/5/6 455/5/6
f 453/5/6 454/5/6 457/5/6
f 457/5/6 454/5/6 458/5/6
f 455/5/6 456/5/6 459/5/6
f 459/5/6 456/5/6 460/5/6
f 458/5/6 459/5/6 462/5/6
f 462/5/6 459/5/6 463/5/6
f 460/5/6 461/5/6 464/5/6
f 464/5/6 461/5/6 465/5/6
f 463/5/6 464/5/6 466/5/6
f 466/5/6 464/5/6 467/5/6
f 468/1/6 469/1/6 470/1/6
f 470/1/6 469/1/6 471/1/6
f 472/5/6 473/5/6 474/5/6
f 472/5/6 474/5/6 476/5/6
f 474/5/6 475/5/6 476/5/6
f 476/5/6 475/5/6 477/5/6
f 477/5/6 475/5/6 478/5/6
f 472/5/6 476/5/6 480/5/6
f 480/5/6 476/5/6 481/5/6
f 478/5/6 479/5/6 482/5/6
f 477/5/6 478/5/6 482/5/6
f 482/5/6 479/5/6 483/5/6
f 472/5/6 480/5/6 484/5/6
f 481/5/6 482/5/6 485/5/6
f 485/5/6 482/5/6 486/5/6
f 483/5/6 479/5/6 487/5/6
f 487/5/6 479/5/6 488/5/6
f 488/5/6 479/5/6 489/5/6
f 472/5/6 484/5/6 491/5/6
f 484/5/6 485/5/6 491/5/6
f 491/5/6 485/5/6 492/5/6
f 492/5/6 485/5/6 493/5/6
f 493/5/6 485/5/6 494/5/6
f 494/5/6 485/5/6 495/5/6
f 486/5/6 487/5/6 496/5/6
f 496/5/6 487/5/6 497/5/6
f 489/5/6 490/5/6 498/5/6
f 488/5/6 489/5/6 498/5/6
f 472/5/6 491/5/6 499/5/6
f 492/5/6 493/5/6 500/5/6
f 500/5/6 493/5/6 501/5/6
f 501/5/6 493/5/6 502/5/6
f 495/5/6 496/5/6 503/5/6
f 494/5/6 495/5/6 503/5/6
f 503/5/6 496/5/6 504/5/6
f 504/5/6 496/5/6 505/5/6
f 497/5/6 498/5/6 506/5/6
f 499/5/6 500/5/6 507/5/6
f 501/5/6 502/5/6 508/5/6
f 502/5/6 503/5/6 508/5/6
f 508/5/6 503/5/6 509/5/6
f 504/5/6 505/5/6 510/5/6
f 505/5/6 506/5/6 510/5/6
f 508/5/6 509/5/6 511/5/6
f 509/5/6 510/5/6 511/5/6
f 499/5/6 507/5/6 511/5/6
f 507/5/6 508/5/6 511/5/6
f 472/5/6 499/5/6 511/5/6
f 511/5/6 510/5/6 512/5/6
f 510/5/6 506/5/6 513/5/6
f 512/5/6 510/5/6 513/5/6
f 513/5/6 506/5/6 514/5/6
f 472/5/6 511/5/6 515/5/6
f 515/5/6 511/5/6 516/5/6
f 512/5/6 513/5/6 517/5/6
f 517/5/6 513/5/6 518/5/6
f 514/5/6 506/5/6 519/5/6
f 506/5/6 498/5/6 519/5/6
f 498/5/6 490/5/6 520/5/6
f 519/5/6 498/5/6 520/5/6
f 518/5/6 513/5/6 521/5/6
f 514/5/6 519/5/6 522/5/6
f 472/5/6 515/5/6 523/5/6
f 518/5/6 521/5/6 526/5/6
f 521/5/6 522/5/6 526/5/6
f 522/5/6 519/5/6 527/5/6
f 526/5/6 522/5/6 527/5/6
f 520/5/6 490/5/6 528/5/6
f 523/5/6 524/5/6 529/5/6
f 526/5/6 527/5/6 530/5/6
f 527/5/6 528/5/6 530/5/6
f 525/5/6 526/5/6 530/5/6
f 523/5/6 529/5/6 531/5/6
f 529/5/6 530/5/6 531/5/6
f 472/5/6 523/5/6 531/5/6
f 530/5/6 528/5/6 532/5/6
f 531/5/6 530/5/6 532/5/6
f 472/5/6 531/5/6 533/5/6
f 531/2/6 532/2/6 533/2/6
f 532/5/6 528/5/6 534/5/6
f 533/2/6 532/2/6 534/2/6
f 472/5/6 533/5/6 535/5/6
f 533/5/6 534/5/6 535/5/6
f 534/5/6 528/5/6 536/5/6
f 535/5/6 534/5/6 536/5/6
f 535/4/6 536/4/6 537/4/6
f 536/5/6 528/5/6 538/5/6
f 537/4/6 536/4/6 538/4/6
f 538/5/6 528/5/6 539/5/6
f 539/5/6 528/5/6 540/5/6
f 538/4/6 539/4/6 540/4/6
f 540/5/6 528/5/6 541/5/6
f 535/4/6 537/4/6 542/4/6
f 538/4/6 540/4/6 543/4/6
f 540/4/6 541/4/6 543/4/6
f 472/5/6 535/5/6 544/5/6
f 542/4/6 543/4/6 544/4/6
f 535/4/6 542/4/6 544/4/6
f 543/4/6 541/4/6 545/4/6
f 544/4/6 543/4/6 545/4/6
f 541/5/6 528/5/6 545/5/6
f 472/5/6 544/5/6 546/5/6
f 544/5/6 545/5/6 546/5/6
f 545/5/6 528/5/6 547/5/6
f 546/5/6 545/5/6 547/5/6
f 528/5/6 490/5/6 547/5/6
f 548/4/6 549/4/6 552/4/6
f 552/4/6 549/4/6 553/4/6
f 550/4/6 551/4/6 555/4/6
f 555/4/6 551/4/6 556/4/6
f 553/4/6 554/4/6 558/4/6
f 558/4/6 554/4/6 559/4/6
f 556/4/6 557/4/6 560/4/6
f 560/4/6 557/4/6 561/4/6
f 562/6/6 563/6/6 567/6/6
f 567/6/6 563/6/6 568/6/6
f 564/3/6 565/3/6 572/3/6
f 572/3/6 565/3/6 573/3/6
f 566/6/6 567/6/6 574/6/6
f 567/6/6 568/6/6 574/6/6
f 568/6/6 569/6/6 574/6/6
f 574/6/6 569/6/6 575/6/6
f 575/6/6 569/6/6 576/6/6
f 576/6/6 569/6/6 577/6/6
f 570/3/6 571/3/6 578/3/6
f 578/3/6 571/3/6 579/3/6
f 575/6/6 576/6/6 580/6/6
f 580/6/6 576/6/6 581/6/6
