# MagicaVoxel @ Ephtracy

# group
o 

# material
mtllib NyanCatRainbow.mtl
usemtl palette

# normals
vn -1 0 0
vn 1 0 0
vn 0 0 1
vn 0 0 -1
vn 0 -1 0
vn 0 1 0

# texcoords
vt 0.146484 0.5
vt 0.330078 0.5
vt 0.482422 0.5
vt 0.541016 0.5
vt 0.728516 0.5
vt 0.771484 0.5

# verts
v -2 2.2 1.1
v -2 2.2 0.5
v -2 2.3 0.5
v -2 2.3 -0.1
v -2 2.4 1.1
v -2 2.4 0.5
v -2 2.5 0.5
v -2 2.5 -0.1
v -2 2.6 1.1
v -2 2.6 0.5
v -2 2.7 0.5
v -2 2.7 -0.1
v -2 2.8 1.1
v -2 2.8 0.5
v -2 2.9 0.5
v -2 2.9 -0.1
v -2 3 1.1
v -2 3 0.5
v -2 3.1 0.5
v -2 3.1 -0.1
v -2 3.2 1.1
v -2 3.2 0.5
v -2 3.3 0.5
v -2 3.3 -0.1
v -2 3.4 1.1
v -2 3.4 0.5
v -2 3.5 0.5
v -2 3.5 -0.1
v -1.9 2.2 1.1
v -1.9 2.2 0.5
v -1.9 2.3 0.5
v -1.9 2.3 -0.1
v -1.9 2.4 1.1
v -1.9 2.4 0.5
v -1.9 2.5 0.5
v -1.9 2.5 -0.1
v -1.9 2.6 1.1
v -1.9 2.6 0.5
v -1.9 2.7 0.5
v -1.9 2.7 -0.1
v -1.9 2.8 1.1
v -1.9 2.8 0.5
v -1.9 2.9 0.5
v -1.9 2.9 -0.1
v -1.9 3 1.1
v -1.9 3 0.5
v -1.9 3.1 0.5
v -1.9 3.1 -0.1
v -1.9 3.2 1.1
v -1.9 3.2 0.5
v -1.9 3.3 0.5
v -1.9 3.3 -0.1
v -1.9 3.4 1.1
v -1.9 3.4 0.5
v -1.9 3.5 0.5
v -1.9 3.5 -0.1
v -2 2.2 1.1
v -2 2.4 1.1
v -2 2.6 1.1
v -2 2.8 1.1
v -2 3 1.1
v -2 3.2 1.1
v -2 3.4 1.1
v -1.9 2.2 1.1
v -1.9 2.4 1.1
v -1.9 2.6 1.1
v -1.9 2.8 1.1
v -1.9 3 1.1
v -1.9 3.2 1.1
v -1.9 3.4 1.1
v -2 3.4 0.5
v -2 3.5 0.5
v -1.9 3.4 0.5
v -1.9 3.5 0.5
v -2 2.2 0.5
v -2 2.3 0.5
v -1.9 2.2 0.5
v -1.9 2.3 0.5
v -2 2.3 -0.1
v -2 2.5 -0.1
v -2 2.7 -0.1
v -2 2.9 -0.1
v -2 3.1 -0.1
v -2 3.3 -0.1
v -2 3.5 -0.1
v -1.9 2.3 -0.1
v -1.9 2.5 -0.1
v -1.9 2.7 -0.1
v -1.9 2.9 -0.1
v -1.9 3.1 -0.1
v -1.9 3.3 -0.1
v -1.9 3.5 -0.1
v -2 2.2 1.1
v -1.9 2.2 1.1
v -2 2.2 0.5
v -1.9 2.2 0.5
v -2 2.3 0.5
v -1.9 2.3 0.5
v -2 2.3 -0.1
v -1.9 2.3 -0.1
v -2 3.4 1.1
v -1.9 3.4 1.1
v -2 3.4 0.5
v -1.9 3.4 0.5
v -2 3.5 0.5
v -1.9 3.5 0.5
v -2 3.5 -0.1
v -1.9 3.5 -0.1

# faces
f 3/6/1 2/6/1 1/6/1
f 5/6/1 3/6/1 1/6/1
f 5/6/1 4/6/1 3/6/1
f 6/6/1 4/6/1 5/6/1
f 7/5/1 6/5/1 5/5/1
f 7/6/1 4/6/1 6/6/1
f 8/6/1 4/6/1 7/6/1
f 9/5/1 7/5/1 5/5/1
f 9/5/1 8/5/1 7/5/1
f 10/5/1 8/5/1 9/5/1
f 11/4/1 10/4/1 9/4/1
f 11/5/1 8/5/1 10/5/1
f 12/5/1 8/5/1 11/5/1
f 13/4/1 11/4/1 9/4/1
f 13/4/1 12/4/1 11/4/1
f 14/4/1 12/4/1 13/4/1
f 15/3/1 14/3/1 13/3/1
f 15/4/1 12/4/1 14/4/1
f 16/4/1 12/4/1 15/4/1
f 17/3/1 15/3/1 13/3/1
f 17/3/1 16/3/1 15/3/1
f 18/3/1 16/3/1 17/3/1
f 19/2/1 18/2/1 17/2/1
f 19/3/1 16/3/1 18/3/1
f 20/3/1 16/3/1 19/3/1
f 21/2/1 19/2/1 17/2/1
f 21/2/1 20/2/1 19/2/1
f 22/2/1 20/2/1 21/2/1
f 23/1/1 22/1/1 21/1/1
f 23/2/1 20/2/1 22/2/1
f 24/2/1 20/2/1 23/2/1
f 25/1/1 23/1/1 21/1/1
f 25/1/1 24/1/1 23/1/1
f 26/1/1 24/1/1 25/1/1
f 27/1/1 24/1/1 26/1/1
f 28/1/1 24/1/1 27/1/1
f 29/6/2 30/6/2 31/6/2
f 29/6/2 31/6/2 33/6/2
f 31/6/2 32/6/2 33/6/2
f 33/6/2 32/6/2 34/6/2
f 33/5/2 34/5/2 35/5/2
f 34/6/2 32/6/2 35/6/2
f 35/6/2 32/6/2 36/6/2
f 33/5/2 35/5/2 37/5/2
f 35/5/2 36/5/2 37/5/2
f 37/5/2 36/5/2 38/5/2
f 37/4/2 38/4/2 39/4/2
f 38/5/2 36/5/2 39/5/2
f 39/5/2 36/5/2 40/5/2
f 37/4/2 39/4/2 41/4/2
f 39/4/2 40/4/2 41/4/2
f 41/4/2 40/4/2 42/4/2
f 41/3/2 42/3/2 43/3/2
f 42/4/2 40/4/2 43/4/2
f 43/4/2 40/4/2 44/4/2
f 41/3/2 43/3/2 45/3/2
f 43/3/2 44/3/2 45/3/2
f 45/3/2 44/3/2 46/3/2
f 45/2/2 46/2/2 47/2/2
f 46/3/2 44/3/2 47/3/2
f 47/3/2 44/3/2 48/3/2
f 45/2/2 47/2/2 49/2/2
f 47/2/2 48/2/2 49/2/2
f 49/2/2 48/2/2 50/2/2
f 49/1/2 50/1/2 51/1/2
f 50/2/2 48/2/2 51/2/2
f 51/2/2 48/2/2 52/2/2
f 49/1/2 51/1/2 53/1/2
f 51/1/2 52/1/2 53/1/2
f 53/1/2 52/1/2 54/1/2
f 54/1/2 52/1/2 55/1/2
f 55/1/2 52/1/2 56/1/2
f 64/6/3 58/6/3 57/6/3
f 65/5/3 59/5/3 58/5/3
f 65/6/3 58/6/3 64/6/3
f 66/4/3 60/4/3 59/4/3
f 66/5/3 59/5/3 65/5/3
f 67/3/3 61/3/3 60/3/3
f 67/4/3 60/4/3 66/4/3
f 68/2/3 62/2/3 61/2/3
f 68/3/3 61/3/3 67/3/3
f 69/1/3 63/1/3 62/1/3
f 69/2/3 62/2/3 68/2/3
f 70/1/3 63/1/3 69/1/3
f 73/1/3 72/1/3 71/1/3
f 74/1/3 72/1/3 73/1/3
f 75/6/4 76/6/4 77/6/4
f 77/6/4 76/6/4 78/6/4
f 79/6/4 80/6/4 86/6/4
f 80/5/4 81/5/4 87/5/4
f 86/6/4 80/6/4 87/6/4
f 81/4/4 82/4/4 88/4/4
f 87/5/4 81/5/4 88/5/4
f 82/3/4 83/3/4 89/3/4
f 88/4/4 82/4/4 89/4/4
f 83/2/4 84/2/4 90/2/4
f 89/3/4 83/3/4 90/3/4
f 84/1/4 85/1/4 91/1/4
f 90/2/4 84/2/4 91/2/4
f 91/1/4 85/1/4 92/1/4
f 95/6/5 94/6/5 93/6/5
f 96/6/5 94/6/5 95/6/5
f 99/6/5 98/6/5 97/6/5
f 100/6/5 98/6/5 99/6/5
f 101/1/6 102/1/6 103/1/6
f 103/1/6 102/1/6 104/1/6
f 105/1/6 106/1/6 107/1/6
f 107/1/6 106/1/6 108/1/6
