# This file uses centimeters as units for non-parametric coordinates.

mtllib Floppydisk.mtl
g default
v 3.518893 7.629938 0.154851
v 3.468833 7.728186 0.154851
v 3.390863 7.806157 0.154851
v 3.292615 7.856216 0.154851
v 3.183706 7.873466 0.154851
v 3.536143 7.521029 0.154851
v 3.536143 7.521029 -0.154851
v 3.183706 7.873466 -0.154851
v 3.292615 7.856216 -0.154851
v 3.390863 7.806157 -0.154851
v 3.468833 7.728186 -0.154851
v 3.518893 7.629938 -0.154851
v -3.518893 1.067560 0.154851
v -3.468833 0.969311 0.154851
v -3.390863 0.891341 0.154851
v -3.292615 0.841281 0.154851
v -3.183706 0.824032 0.154851
v -3.536143 1.176468 0.154851
v -3.292615 0.841281 -0.154851
v -3.390863 0.891341 -0.154851
v -3.468833 0.969311 -0.154851
v -3.518893 1.067560 -0.154851
v -3.536143 1.176468 -0.154851
v -3.183706 0.824032 -0.154851
v 3.292615 0.841281 0.154851
v 3.390863 0.891341 0.154851
v 3.468833 0.969311 0.154851
v 3.518893 1.067560 0.154851
v 3.536143 1.176468 0.154851
v 3.183706 0.824032 0.154851
v 3.518893 1.067560 -0.154851
v 3.468833 0.969311 -0.154851
v 3.390863 0.891341 -0.154851
v 3.292615 0.841281 -0.154851
v 3.183706 0.824032 -0.154851
v 3.536143 1.176468 -0.154851
v -3.536143 7.203833 0.154851
v -2.866510 7.873466 0.154851
v -3.536143 7.203833 -0.154851
v -2.866510 7.873466 -0.154851
vt 0.810073 0.506001
vt 0.832020 0.505919
vt 0.833699 0.955520
vt 0.811752 0.955602
vt 0.810044 0.498187
vt 0.831990 0.498105
vt 0.811781 0.963416
vt 0.833728 0.963334
vt 0.810014 0.490373
vt 0.831961 0.490291
vt 0.688020 0.000000
vt 0.833757 0.971148
vt 0.809985 0.482559
vt 0.831932 0.482477
vt 0.687978 0.007814
vt 0.709925 0.007932
vt 0.704882 0.946528
vt 0.682935 0.946411
vt 0.685230 0.519290
vt 0.707177 0.519408
vt 0.682893 0.954224
vt 0.704840 0.954342
vt 0.685591 0.452182
vt 0.707537 0.452299
vt 0.682851 0.962038
vt 0.704798 0.962156
vt 0.682809 0.969852
vt 0.704756 0.969970
vt 0.687894 0.023442
vt 0.709841 0.023560
vt 0.687936 0.015628
vt 0.709883 0.015746
vt 0.808242 0.015710
vt 0.830189 0.015628
vt 0.831874 0.466849
vt 0.809927 0.466931
vt 0.808213 0.007896
vt 0.830159 0.007814
vt 0.809956 0.474745
vt 0.831903 0.474663
vt 0.808184 0.000082
vt 0.830130 0.000000
vt 0.483913 0.001221
vt 0.490876 0.004767
vt 0.496402 0.010292
vt 0.499951 0.017253
vt 0.501175 0.024971
vt 0.501258 0.474576
vt 0.500037 0.482294
vt 0.496491 0.489257
vt 0.490967 0.494783
vt 0.484005 0.498332
vt 0.476288 0.499556
vt 0.047542 0.499635
vt 0.000080 0.452191
vt 0.000000 0.025064
vt 0.001221 0.017346
vt 0.004767 0.010383
vt 0.010291 0.004857
vt 0.017253 0.001308
vt 0.024971 0.000084
vt 0.476195 0.000000
vt 0.499144 0.982714
vt 0.495602 0.989688
vt 0.490086 0.995222
vt 0.483135 0.998776
vt 0.475430 1.000000
vt 0.024935 1.000000
vt 0.017230 0.998776
vt 0.010279 0.995222
vt 0.004762 0.989688
vt 0.001220 0.982714
vt 0.000000 0.974984
vt 0.000000 0.547166
vt 0.047377 0.499635
vt 0.475430 0.499635
vt 0.483135 0.500860
vt 0.490086 0.504413
vt 0.495602 0.509947
vt 0.499144 0.516921
vt 0.500364 0.524651
vt 0.500364 0.974984
vt 0.811810 0.971230
vt 0.709967 0.000118
vn 0.000000 1.000000 0.000000
vn 0.000000 1.000000 0.000000
vn 0.002801 0.999996 0.000000
vn 0.002801 0.999996 0.000000
vn -0.002663 -0.999996 0.000000
vn -0.002663 -0.999996 0.000000
vn 0.002663 -0.999996 0.000000
vn 0.002663 -0.999996 0.000000
vn 0.999996 -0.002673 0.000000
vn 0.999996 -0.002673 0.000000
vn 0.999996 0.002673 0.000000
vn 0.999996 0.002673 0.000000
vn -0.999996 -0.002811 0.000000
vn -0.999996 -0.002811 0.000000
vn -1.000000 0.000000 0.000000
vn -1.000000 0.000000 0.000000
vn 0.002801 0.999996 0.000000
vn 0.309017 0.951057 0.000000
vn 0.309017 0.951057 0.000000
vn 0.002801 0.999996 0.000000
vn 0.309017 0.951057 0.000000
vn 0.587783 0.809018 0.000000
vn 0.587783 0.809018 0.000000
vn 0.309017 0.951057 0.000000
vn 0.587783 0.809018 0.000000
vn 0.809017 0.587785 0.000000
vn 0.809017 0.587785 0.000000
vn 0.587783 0.809018 0.000000
vn 0.809017 0.587785 0.000000
vn 0.951057 0.309016 0.000000
vn 0.951057 0.309016 0.000000
vn 0.809017 0.587785 0.000000
vn 0.951057 0.309016 0.000000
vn 0.999996 0.002673 0.000000
vn 0.999996 0.002673 0.000000
vn 0.951057 0.309016 0.000000
vn -0.002663 -0.999996 0.000000
vn -0.309017 -0.951057 0.000000
vn -0.309017 -0.951057 0.000000
vn -0.002663 -0.999996 0.000000
vn -0.309017 -0.951057 0.000000
vn -0.587784 -0.809018 0.000000
vn -0.587784 -0.809018 0.000000
vn -0.309017 -0.951057 0.000000
vn -0.587784 -0.809018 0.000000
vn -0.809017 -0.587786 0.000000
vn -0.809017 -0.587786 0.000000
vn -0.587784 -0.809018 0.000000
vn -0.809017 -0.587786 0.000000
vn -0.951057 -0.309017 0.000000
vn -0.951057 -0.309017 0.000000
vn -0.809017 -0.587786 0.000000
vn -0.951057 -0.309017 0.000000
vn -0.999996 -0.002811 0.000000
vn -0.999996 -0.002811 0.000000
vn -0.951057 -0.309017 0.000000
vn 0.999996 -0.002673 0.000000
vn 0.951057 -0.309017 0.000000
vn 0.951057 -0.309017 0.000000
vn 0.999996 -0.002673 0.000000
vn 0.951057 -0.309017 0.000000
vn 0.809017 -0.587786 0.000000
vn 0.809017 -0.587786 0.000000
vn 0.951057 -0.309017 0.000000
vn 0.809017 -0.587786 0.000000
vn 0.587784 -0.809018 0.000000
vn 0.587784 -0.809018 0.000000
vn 0.809017 -0.587786 0.000000
vn 0.587784 -0.809018 0.000000
vn 0.309017 -0.951057 0.000000
vn 0.309017 -0.951057 0.000000
vn 0.587784 -0.809018 0.000000
vn 0.309017 -0.951057 0.000000
vn 0.002663 -0.999996 0.000000
vn 0.002663 -0.999996 0.000000
vn 0.309017 -0.951057 0.000000
vn -0.000000 0.000000 1.000000
vn -0.000000 0.000000 1.000000
vn -0.000000 0.000000 1.000000
vn -0.000000 0.000000 1.000000
vn -0.000000 0.000000 1.000000
vn -0.000000 0.000000 1.000000
vn -0.000000 0.000000 1.000000
vn -0.000000 0.000000 1.000000
vn -0.000000 0.000000 1.000000
vn -0.000000 0.000000 1.000000
vn -0.000000 0.000000 1.000000
vn -0.000000 0.000000 1.000000
vn -0.000000 0.000000 1.000000
vn -0.000000 0.000000 1.000000
vn -0.000000 0.000000 1.000000
vn -0.000000 0.000000 1.000000
vn -0.000000 0.000000 1.000000
vn -0.000000 0.000000 1.000000
vn -0.000000 0.000000 1.000000
vn -0.000000 0.000000 1.000000
vn -0.000000 0.000000 -1.000000
vn -0.000000 0.000000 -1.000000
vn -0.000000 0.000000 -1.000000
vn -0.000000 0.000000 -1.000000
vn -0.000000 0.000000 -1.000000
vn -0.000000 0.000000 -1.000000
vn -0.000000 0.000000 -1.000000
vn -0.000000 0.000000 -1.000000
vn -0.000000 0.000000 -1.000000
vn -0.000000 0.000000 -1.000000
vn -0.000000 0.000000 -1.000000
vn -0.000000 0.000000 -1.000000
vn -0.000000 0.000000 -1.000000
vn -0.000000 0.000000 -1.000000
vn -0.000000 0.000000 -1.000000
vn -0.000000 0.000000 -1.000000
vn -0.000000 0.000000 -1.000000
vn -0.000000 0.000000 -1.000000
vn -0.000000 0.000000 -1.000000
vn -0.000000 0.000000 -1.000000
vn -0.707107 0.707107 0.000000
vn -0.707107 0.707107 0.000000
vn -0.707107 0.707107 0.000000
vn -0.707107 0.707107 0.000000
s off
g pCube1
usemtl pCube1SG
f 40/24/1 38/23/2 5/29/3 8/30/4
f 17/33/5 24/34/6 35/35/7 30/36/8
f 29/1/9 36/2/10 7/3/11 6/4/12
f 23/17/13 18/18/14 37/19/15 39/20/16
f 5/29/17 4/31/18 9/32/19 8/30/20
f 4/31/21 3/15/22 10/16/23 9/32/24
f 3/15/25 2/11/26 11/84/27 10/16/28
f 2/83/29 1/7/30 12/8/31 11/12/32
f 1/7/33 6/4/34 7/3/35 12/8/36
f 17/33/37 16/37/38 19/38/39 24/34/40
f 16/37/41 15/41/42 20/42/43 19/38/44
f 15/27/45 14/25/46 21/26/47 20/28/48
f 14/25/49 13/21/50 22/22/51 21/26/52
f 13/21/53 18/18/54 23/17/55 22/22/56
f 29/1/57 28/5/58 31/6/59 36/2/60
f 28/5/61 27/9/62 32/10/63 31/6/64
f 27/9/65 26/13/66 33/14/67 32/10/68
f 26/13/69 25/39/70 34/40/71 33/14/72
f 25/39/73 30/36/74 35/35/75 34/40/76
f 25/43/77 26/44/78 27/45/79 28/46/80 29/47/81 6/48/82 1/49/83 2/50/84 3/51/85 4/52/86 5/53/87 38/54/88 37/55/89 18/56/90 13/57/91 14/58/92 15/59/93 16/60/94 17/61/95 30/62/96
f 31/63/97 32/64/98 33/65/99 34/66/100 35/67/101 24/68/102 19/69/103 20/70/104 21/71/105 22/72/106 23/73/107 39/74/108 40/75/109 8/76/110 9/77/111 10/78/112 11/79/113 12/80/114 7/81/115 36/82/116
f 37/19/117 38/23/118 40/24/119 39/20/120
