# This file uses centimeters as units for non-parametric coordinates.

mtllib Lamp.mtl
g default
v -0.878836 0.878836 3.351884
v 0.878836 0.878836 3.351884
v -0.878836 0.878836 -3.350134
v 0.878836 0.878836 -3.350134
v -1.110030 1.110030 0.034323
v 1.110030 0.000000 -3.581327
v -1.110030 -0.000000 -3.581327
v 1.110030 -0.000000 3.583079
v 0.000000 1.110030 3.583079
v -1.110030 0.000000 3.583079
v 1.110030 1.110030 0.034323
v 0.000000 1.110030 -3.581327
v 0.000000 -0.000000 3.989041
v 0.000000 1.515993 0.034323
v 0.000000 -0.000000 -3.987290
v 1.515993 -0.000000 0.034323
v -1.515993 -0.000000 0.034323
v 0.563254 0.563254 3.791303
v -0.563254 0.563254 3.791303
v -0.563254 1.318254 3.036302
v 0.563254 1.318254 3.036302
v 0.563254 1.318254 -3.034552
v -0.563254 1.318254 -3.034552
v -0.563254 0.563254 -3.789552
v 0.563254 0.563254 -3.789552
v 1.318254 0.563254 -3.034552
v 1.318254 0.563254 3.036302
v -1.318254 0.563254 3.036302
v -1.318254 0.563254 -3.034552
v 0.605199 -0.000000 3.887176
v 0.000000 0.605199 3.887176
v -0.605199 0.000000 3.887176
v -0.000000 1.414127 3.078247
v 0.605199 1.414127 0.034323
v 0.000000 1.414127 -3.076496
v -0.605199 1.414127 0.034323
v -0.000000 0.605199 -3.885425
v 0.605199 0.000000 -3.885425
v -0.605199 -0.000000 -3.885425
v 1.414127 -0.000000 -3.076496
v 1.414127 0.605199 0.034323
v 1.414127 0.000000 3.078247
v -1.414127 -0.000000 3.078247
v -1.414127 0.605199 0.034323
v -1.414127 0.000000 -3.076496
v 1.033631 0.521309 3.506679
v 0.521310 1.033631 3.506679
v -0.521310 1.033631 3.506679
v -1.033631 0.521309 3.506679
v 1.033631 1.033631 2.994358
v 1.033631 1.033631 -2.992607
v 0.521310 1.033631 -3.504929
v -0.521310 1.033631 -3.504929
v -1.033631 1.033631 -2.992607
v -1.033631 1.033631 2.994358
v 1.033631 0.521310 -3.504929
v -1.033631 0.521310 -3.504929
v 0.000000 -0.000000 3.583079
v -0.000000 0.000000 3.078247
v 0.000000 0.000000 -3.076496
v -0.000000 -0.000000 -3.581327
v -1.087110 0.156393 3.560159
v -1.385365 0.168976 3.065664
v -1.485433 0.181560 0.034323
v -1.385365 0.168976 -3.063913
v -1.087110 0.156393 -3.558408
v -0.592615 0.168976 -3.856663
v 0.000000 0.181560 -3.956730
v 0.592615 0.168976 -3.856663
v 1.087110 0.156393 -3.558408
v 1.385365 0.168976 -3.063913
v 1.485433 0.181560 0.034323
v 1.385365 0.168976 3.065664
v 1.087110 0.156393 3.560159
v 0.592615 0.168976 3.858414
v 0.000000 0.181560 3.958481
v -0.592615 0.168976 3.858414
v 0.643292 -0.000000 4.131795
v 0.000000 -0.000000 4.240071
v 0.629917 0.168976 4.101223
v 0.000000 0.181560 4.207588
v 1.179900 -0.000000 3.808556
v 1.155537 0.156393 3.784194
v -0.643292 0.000000 4.131795
v -1.179900 0.000000 3.808556
v -0.629917 0.168976 4.101223
v -1.155537 0.156393 3.784194
v -0.629917 0.168976 -4.099472
v 0.000000 0.181560 -4.205838
v 0.000000 -0.000000 -4.238321
v -0.643292 -0.000000 -4.130044
v -1.155537 0.156393 -3.782444
v -1.179900 -0.000000 -3.806805
v 0.629917 0.168976 -4.099472
v 1.155537 0.156393 -3.782444
v 1.179900 0.000000 -3.806805
v 0.643292 0.000000 -4.130044
v 1.503138 -0.000000 -3.270198
v 1.611415 -0.000000 0.036429
v 1.472566 0.168976 -3.256823
v 1.578932 0.181560 0.036429
v 1.503138 0.000000 3.271949
v 1.472566 0.168976 3.258573
v -1.503138 -0.000000 3.271949
v -1.611415 -0.000000 0.036429
v -1.472566 0.168976 3.258573
v -1.578932 0.181560 0.036429
v -1.503138 0.000000 -3.270198
v -1.472566 0.168976 -3.256823
vt 0.266583 0.499082
vt 0.017518 0.896334
vt 0.238856 0.492586
vt 0.265431 0.491177
vt 0.057176 0.958323
vt 0.213695 0.488100
vt 0.887062 0.051702
vt 0.932202 0.062354
vt 0.918191 0.095562
vt 0.883200 0.098341
vt 0.839070 0.050225
vt 0.839279 0.099556
vt 0.368972 0.077551
vt 0.013441 0.745252
vt 0.291310 0.484910
vt 0.367122 0.084170
vt 0.791091 0.052110
vt 0.795349 0.098714
vt 0.746044 0.063144
vt 0.760336 0.096232
vt 0.992223 0.319678
vt 0.988557 0.263026
vt 0.839494 0.150194
vt 0.686625 0.378539
vt 0.686626 0.316496
vt 0.686629 0.256882
vt 0.992220 0.437413
vt 0.938164 0.124924
vt 0.686624 0.500196
vt 0.686623 0.440582
vt 0.470144 0.144719
vt 0.525132 0.148579
vt 0.377875 0.494018
vt 0.440328 0.095174
vt 0.477026 0.096438
vt 0.522983 0.095650
vt 0.579627 0.140274
vt 0.627324 0.118412
vt 0.568853 0.092710
vt 0.605328 0.088475
vt 0.571118 0.043806
vt 0.618713 0.053227
vt 0.520890 0.044085
vt 0.029395 0.158945
vt 0.017729 0.182863
vt 0.010255 0.180034
vt 0.983618 0.719070
vt 0.045527 0.139122
vt 0.943960 0.657082
vt 0.470804 0.047879
vt 0.424129 0.061127
vt 0.010632 0.208510
vt 0.009594 0.234047
vt 0.002864 0.234937
vt 0.987695 0.870152
vt 0.096116 0.375500
vt 0.889450 0.973848
vt 0.016999 0.258420
vt 0.102304 0.370526
vt 0.372370 0.550222
vt 0.686630 0.560060
vt 0.121214 0.994580
vt 0.191488 0.475618
vt 0.971442 0.088479
vt 0.139196 0.817455
vt 0.861940 0.797950
vt 0.866422 0.964009
vt 0.501445 0.985829
vt 0.143678 0.983514
vt 0.204032 0.090424
vt 0.111687 0.641557
vt 0.341797 0.078559
vt 0.205375 0.098249
vt 0.994073 0.206814
vt 0.686638 0.197018
vt 0.879923 0.620825
vt 0.067216 0.125762
vt 0.660728 0.079047
vt 0.032243 0.820341
vt 0.079915 0.819055
vt 0.083432 0.949404
vt 0.046123 0.891086
vt 0.921222 0.796350
vt 0.924740 0.926700
vt 0.968894 0.795064
vt 0.958850 0.866454
vt 0.076397 0.688705
vt 0.042287 0.748950
vt 0.134715 0.651395
vt 0.491836 0.629787
vt 0.857459 0.631891
vt 0.917704 0.666001
vt 0.955014 0.724319
vt 0.334575 0.083698
vt 0.358888 0.090182
vt 0.205965 0.102217
vt 0.075730 0.128193
vt 0.054894 0.142514
vt 0.039191 0.162645
vt 0.027796 0.186674
vt 0.020423 0.212225
vt 0.018859 0.237708
vt 0.024989 0.262237
vt 0.105375 0.367944
vt 0.189485 0.466992
vt 0.212115 0.478265
vt 0.237337 0.482226
vt 0.263876 0.480532
vt 0.289792 0.474626
vt 0.491287 0.618589
vt 0.064589 0.118845
vt 0.041074 0.133999
vt 0.049698 0.681215
vt 0.341957 0.071178
vt 0.501500 0.997041
vt 0.186719 0.481275
vt 0.211377 0.494481
vt 0.951439 0.934190
vt 0.010450 0.261864
vt 0.003295 0.207626
vt 0.998372 0.794268
vt 0.023311 0.154748
vt 0.002765 0.821137
vt 0.294054 0.491723
vt 0.238139 0.499942
vt 0.784022 0.018736
vt 0.734233 0.033852
vt 0.838912 0.013123
vt 0.893848 0.018270
vt 0.943764 0.032963
vt 0.988304 0.057582
vt 0.686635 0.603858
vt 0.367941 0.590910
vt 0.410668 0.030953
vt 0.462145 0.013258
vt 0.519315 0.005304
vt 0.576942 0.008597
vt 0.629684 0.022061
vt 0.677182 0.046105
vt 0.686645 0.153219
vt 0.998523 0.166128
vt 0.317877 0.479092
vt 0.314387 0.473166
vt 0.312155 0.463370
vt 0.998514 0.590963
vt 0.994066 0.550277
vt 0.689903 0.058848
vt 0.707027 0.089601
vt 0.740613 0.125762
vt 0.988552 0.494065
vt 0.891840 0.144153
vt 0.996259 0.378546
vt 0.787098 0.144597
vt 0.365275 0.058769
vt 0.384345 0.090268
vt 0.367951 0.166154
vt 0.372378 0.206842
vt 0.377880 0.263047
vt 0.420831 0.126795
vt 0.370163 0.378532
vt 0.374206 0.319682
vt 0.374203 0.437382
vn 0.000000 0.183230 0.983070
vn 0.333780 0.193337 0.922611
vn 0.329205 0.193065 0.924311
vn -0.000000 0.183230 0.983070
vn 0.691932 0.206061 0.691932
vn 0.691932 0.206060 0.691931
vn 0.329414 0.360207 0.872776
vn 0.664676 0.341190 0.664676
vn 0.577350 0.577351 0.577350
vn 0.313220 0.671526 0.671525
vn 0.000000 0.377706 0.925926
vn -0.000000 0.707107 0.707107
vn -0.691932 0.206060 0.691932
vn -0.333780 0.193337 0.922611
vn -0.329205 0.193065 0.924311
vn -0.691932 0.206060 0.691931
vn -0.329414 0.360207 0.872776
vn -0.313220 0.671526 0.671525
vn -0.664677 0.341190 0.664676
vn -0.577350 0.577351 0.577350
vn -0.337930 0.936137 0.097212
vn -0.704586 0.704586 0.084359
vn -0.000000 0.993899 0.110293
vn -0.000000 1.000000 -0.000001
vn -0.344564 0.938763 -0.000002
vn -0.707107 0.707107 -0.000002
vn 0.337930 0.936137 0.097212
vn 0.704586 0.704586 0.084359
vn 0.707107 0.707107 -0.000002
vn 0.344564 0.938763 -0.000002
vn 0.337922 0.936332 -0.095348
vn -0.000000 0.994124 -0.108246
vn 0.704685 0.704686 -0.082686
vn 0.577350 0.577350 -0.577350
vn 0.313219 0.671526 -0.671526
vn 0.000000 0.707107 -0.707107
vn -0.337922 0.936332 -0.095348
vn -0.704685 0.704685 -0.082686
vn -0.313219 0.671526 -0.671526
vn -0.577350 0.577350 -0.577350
vn -0.329413 0.360207 -0.872776
vn -0.664676 0.341190 -0.664676
vn 0.000000 0.377706 -0.925926
vn -0.329205 0.193065 -0.924311
vn -0.000000 0.183231 -0.983070
vn -0.000000 0.183231 -0.983070
vn -0.333780 0.193337 -0.922611
vn -0.691932 0.206060 -0.691932
vn -0.691932 0.206060 -0.691932
vn 0.329413 0.360207 -0.872776
vn 0.664676 0.341190 -0.664676
vn 0.329205 0.193065 -0.924311
vn 0.691932 0.206060 -0.691932
vn 0.691932 0.206060 -0.691932
vn 0.333780 0.193337 -0.922611
vn 0.983985 0.178250 -0.000001
vn 0.977017 0.184523 -0.106724
vn 0.977581 0.184154 -0.102090
vn 0.983985 0.178250 0.000000
vn 0.924380 0.369686 -0.094101
vn 0.926562 0.376143 -0.000001
vn 0.976774 0.184642 0.108722
vn 0.977355 0.184271 0.104030
vn 0.924186 0.369695 0.095951
vn -0.000000 -1.000000 -0.000000
vn -0.000000 -1.000000 0.000000
vn -0.000000 -1.000000 0.000000
vn -0.000000 -1.000000 0.000000
vn -0.000000 -1.000000 0.000000
vn -0.983985 0.178250 -0.000001
vn -0.976774 0.184643 0.108722
vn -0.977355 0.184271 0.104030
vn -0.983985 0.178250 0.000000
vn -0.924186 0.369695 0.095951
vn -0.926562 0.376143 -0.000001
vn -0.977017 0.184523 -0.106724
vn -0.977581 0.184154 -0.102090
vn -0.924380 0.369685 -0.094101
vn -0.000000 -1.000000 0.000000
vn -0.000000 -1.000000 -0.000000
vn 0.000000 -1.000000 -0.000000
vn 0.000000 -1.000000 -0.000000
vn 0.000000 -1.000000 0.000000
vn 0.000000 -1.000000 -0.000000
vn 0.000000 -1.000000 0.000000
vn 0.000000 -1.000000 -0.000000
vn 0.000000 -1.000000 0.000000
vn -0.000000 -1.000000 0.000000
vn 0.000000 -1.000000 -0.000000
vn 0.000000 -1.000000 -0.000000
vn 0.000000 -1.000000 -0.000000
vn 0.000000 -1.000000 0.000000
vn 0.000000 -1.000000 0.000000
vn -0.978612 0.174097 0.109586
vn -0.693667 0.194045 0.693666
vn -0.985784 0.168015 -0.000000
vn -0.978859 0.173981 -0.107548
vn -0.693667 0.194045 -0.693667
vn -0.343945 0.182493 -0.921085
vn 0.000000 0.172966 -0.984928
vn 0.343945 0.182493 -0.921085
vn 0.693667 0.194045 -0.693666
vn 0.978859 0.173981 -0.107548
vn 0.985784 0.168015 -0.000000
vn 0.978612 0.174097 0.109586
vn 0.693666 0.194045 0.693666
vn 0.343945 0.182493 0.921085
vn -0.000000 0.172966 0.984928
vn -0.343945 0.182493 0.921085
vn 0.000000 -1.000000 -0.000000
vn 0.000000 -1.000000 -0.000000
vn 0.000000 -1.000000 -0.000000
vn 0.000000 -1.000000 -0.000000
vn 0.020321 0.999792 -0.001541
vn 0.020321 0.999792 -0.001541
vn 0.020321 0.999792 -0.001541
vn 0.020321 0.999792 -0.001541
vn 0.000000 -1.000000 0.000000
vn 0.000000 -1.000000 0.000000
vn 0.000000 -1.000000 0.000000
vn 0.000000 -1.000000 0.000000
vn 0.021700 0.999752 -0.004915
vn 0.021700 0.999752 -0.004915
vn 0.021700 0.999752 -0.004915
vn 0.021700 0.999752 -0.004915
vn 0.000000 -1.000000 0.000000
vn 0.000000 -1.000000 0.000000
vn 0.000000 -1.000000 0.000000
vn 0.000000 -1.000000 0.000000
vn -0.021700 0.999752 -0.004915
vn -0.021700 0.999752 -0.004915
vn -0.021700 0.999752 -0.004915
vn -0.021700 0.999752 -0.004915
vn -0.000000 -1.000000 -0.000000
vn -0.000000 -1.000000 -0.000000
vn -0.000000 -1.000000 -0.000000
vn -0.000000 -1.000000 -0.000000
vn -0.020321 0.999792 -0.001541
vn -0.020321 0.999792 -0.001541
vn -0.020321 0.999792 -0.001541
vn -0.020321 0.999792 -0.001541
vn -0.020321 0.999792 0.001541
vn -0.020321 0.999792 0.001541
vn -0.020321 0.999792 0.001541
vn -0.020321 0.999792 0.001541
vn 0.000000 -1.000000 -0.000000
vn 0.000000 -1.000000 -0.000000
vn 0.000000 -1.000000 -0.000000
vn 0.000000 -1.000000 -0.000000
vn -0.021700 0.999752 0.004915
vn -0.021700 0.999752 0.004915
vn -0.021700 0.999752 0.004915
vn -0.021700 0.999752 0.004915
vn -0.000000 -1.000000 0.000000
vn -0.000000 -1.000000 0.000000
vn -0.000000 -1.000000 0.000000
vn -0.000000 -1.000000 0.000000
vn 0.021700 0.999752 0.004915
vn 0.021700 0.999752 0.004915
vn 0.021700 0.999752 0.004915
vn 0.021700 0.999752 0.004915
vn 0.000000 -1.000000 -0.000000
vn 0.000000 -1.000000 -0.000000
vn 0.000000 -1.000000 -0.000000
vn 0.000000 -1.000000 -0.000000
vn 0.020321 0.999792 0.001541
vn 0.020321 0.999792 0.001541
vn 0.020321 0.999792 0.001541
vn 0.020321 0.999792 0.001541
vn 0.000000 -1.000000 0.000000
vn 0.000000 -1.000000 0.000000
vn 0.000000 -1.000000 0.000000
vn 0.000000 -1.000000 0.000000
vn -0.000000 -1.000000 -0.000000
vn -0.000000 -1.000000 -0.000000
vn -0.000000 -1.000000 -0.000000
vn -0.000000 -1.000000 -0.000000
vn -0.004021 0.999985 -0.003808
vn -0.004021 0.999985 -0.003808
vn -0.004021 0.999985 -0.003808
vn -0.004021 0.999985 -0.003808
vn -0.000000 -1.000000 -0.000000
vn -0.000000 -1.000000 -0.000000
vn -0.000000 -1.000000 -0.000000
vn -0.000000 -1.000000 -0.000000
vn -0.025257 0.999637 -0.009427
vn -0.025257 0.999637 -0.009427
vn -0.025257 0.999637 -0.009427
vn -0.025257 0.999637 -0.009427
vn 0.000000 -1.000000 -0.000000
vn 0.000000 -1.000000 -0.000000
vn 0.000000 -1.000000 -0.000000
vn 0.000000 -1.000000 -0.000000
vn -0.025258 0.999637 0.009428
vn -0.025258 0.999637 0.009428
vn -0.025258 0.999636 0.009428
vn -0.025258 0.999637 0.009428
vn -0.000000 -1.000000 0.000000
vn -0.000000 -1.000000 0.000000
vn -0.000000 -1.000000 0.000000
vn -0.000000 -1.000000 0.000000
vn -0.004194 0.999984 0.003886
vn -0.004194 0.999984 0.003886
vn -0.004194 0.999984 0.003886
vn -0.004194 0.999984 0.003886
vn -0.000000 -1.000000 -0.000000
vn -0.000000 -1.000000 -0.000000
vn -0.000000 -1.000000 -0.000000
vn -0.000000 -1.000000 -0.000000
vn 0.004194 0.999984 0.003886
vn 0.004194 0.999984 0.003886
vn 0.004194 0.999984 0.003886
vn 0.004194 0.999984 0.003886
vn 0.000000 -1.000000 0.000000
vn 0.000000 -1.000000 0.000000
vn 0.000000 -1.000000 0.000000
vn 0.000000 -1.000000 0.000000
vn 0.025257 0.999637 0.009428
vn 0.025257 0.999637 0.009428
vn 0.025257 0.999637 0.009428
vn 0.025257 0.999636 0.009428
vn -0.000000 -1.000000 0.000000
vn -0.000000 -1.000000 0.000000
vn -0.000000 -1.000000 0.000000
vn -0.000000 -1.000000 0.000000
vn 0.025258 0.999637 -0.009428
vn 0.025258 0.999637 -0.009428
vn 0.025258 0.999636 -0.009428
vn 0.025258 0.999637 -0.009428
vn 0.000000 -1.000000 -0.000000
vn 0.000000 -1.000000 -0.000000
vn 0.000000 -1.000000 -0.000000
vn 0.000000 -1.000000 -0.000000
vn 0.004021 0.999985 -0.003808
vn 0.004021 0.999985 -0.003808
vn 0.004021 0.999985 -0.003808
vn 0.004021 0.999985 -0.003808
s 1
g pCube1
usemtl initialShadingGroup
f 79/1/1 78/125/2 80/3/3 81/4/4
f 78/125/2 82/117/5 83/6/6 80/3/3
s 2
f 18/7/7 46/8/8 2/9/9 47/10/10
f 31/11/11 18/7/7 47/10/10 9/12/12
s 1
f 85/142/13 84/124/14 86/15/15 87/143/16
f 84/124/14 79/1/1 81/4/4 86/15/15
s 2
f 19/17/17 31/11/11 9/12/12 48/18/18
f 49/19/19 19/17/17 48/18/18 1/20/20
f 1/20/20 48/18/18 20/153/21 55/149/22
f 48/18/18 9/12/12 33/23/23 20/153/21
f 20/21/21 33/152/23 14/24/24 36/25/25
f 55/22/22 20/21/21 36/25/25 5/26/26
f 9/12/12 47/10/10 21/151/27 33/23/23
f 47/10/10 2/9/9 50/28/28 21/151/27
f 21/27/27 50/150/28 11/29/29 34/30/30
f 33/152/23 21/27/27 34/30/30 14/24/24
f 14/24/24 34/30/30 22/162/31 35/160/32
f 34/30/30 11/29/29 51/33/33 22/162/31
f 22/31/31 51/159/33 4/34/34 52/35/35
f 35/32/32 22/31/31 52/35/35 12/36/36
f 5/26/26 36/25/25 23/161/37 54/158/38
f 36/25/25 14/24/24 35/160/32 23/161/37
f 23/37/37 35/32/32 12/36/36 53/39/39
f 54/38/38 23/37/37 53/39/39 3/40/40
f 3/40/40 53/39/39 24/41/41 57/42/42
f 53/39/39 12/36/36 37/43/43 24/41/41
s 1
f 88/44/44 89/45/45 90/46/46 91/122/47
f 92/48/48 88/44/44 91/122/47 93/112/49
s 2
f 12/36/36 52/35/35 25/50/50 37/43/43
f 52/35/35 4/34/34 56/51/51 25/50/50
s 1
f 94/52/52 95/53/53 96/54/54 97/120/55
f 89/45/45 94/52/52 97/120/55 90/46/46
f 99/56/56 98/119/57 100/58/58 101/59/59
f 98/119/57 96/54/54 95/53/53 100/58/58
s 2
f 26/155/60 56/51/51 4/34/34 51/159/33
f 41/61/61 26/60/60 51/33/33 11/29/29
s 1
f 82/117/5 102/116/62 103/63/63 83/6/6
f 102/116/62 99/56/56 101/59/59 103/63/63
s 2
f 27/146/64 41/61/61 11/29/29 50/150/28
f 46/8/8 27/64/64 50/28/28 2/9/9
s 5
f 59/65/65 60/66/66 40/67/67 16/68/68 42/69/69
s 1
f 105/70/70 104/114/71 106/72/72 107/73/73
f 104/114/71 85/13/13 87/16/16 106/72/72
s 2
f 28/148/74 49/19/19 1/20/20 55/149/22
f 44/75/75 28/74/74 55/22/22 5/26/26
s 1
f 93/112/49 108/111/76 109/77/77 92/48/48
f 108/111/76 105/70/70 107/73/73 109/77/77
s 2
f 29/157/78 44/75/75 5/26/26 54/158/38
f 57/42/42 29/78/78 54/38/38 3/40/40
s 5
f 13/79/79 58/80/80 8/81/81 30/82/82
f 58/80/80 59/65/65 42/69/69 8/81/81
f 40/67/67 60/66/66 61/83/83 6/84/84
f 6/84/84 61/83/83 15/85/85 38/86/86
f 10/87/87 58/80/80 13/79/79 32/88/88
f 43/89/89 59/65/65 58/80/80 10/87/87
f 17/90/90 45/91/91 60/66/66 59/65/65 43/89/89
f 61/83/83 60/66/66 45/91/91 7/92/92
f 15/85/85 61/83/83 7/92/92 39/93/93
s 2
f 63/147/94 62/127/95 49/19/19 28/148/74
f 64/140/96 63/141/94 28/74/74 44/75/75
f 65/156/97 64/140/96 44/75/75 29/157/78
f 66/138/98 65/139/97 29/78/78 57/42/42
f 57/42/42 24/41/41 67/137/99 66/138/98
f 24/41/41 37/43/43 68/136/100 67/137/99
f 37/43/43 25/50/50 69/135/101 68/136/100
f 25/50/50 56/51/51 70/134/102 69/135/101
f 71/154/103 70/134/102 56/51/51 26/155/60
f 72/132/104 71/133/103 26/60/60 41/61/61
f 73/145/105 72/132/104 41/61/61 27/146/64
f 74/130/106 73/131/105 27/64/64 46/8/8
f 75/129/107 74/130/106 46/8/8 18/7/7
f 76/128/108 75/129/107 18/7/7 31/11/11
f 77/126/109 76/128/108 31/11/11 19/17/17
f 62/127/95 77/126/109 19/17/17 49/19/19
s off
f 13/79/110 30/82/111 78/2/112 79/123/113
f 75/107/114 76/108/115 81/4/116 80/3/117
f 30/82/118 8/81/119 82/5/120 78/2/121
f 74/106/122 75/107/123 80/3/124 83/6/125
f 10/87/126 32/88/127 84/14/128 85/113/129
f 77/109/130 62/144/131 87/143/132 86/15/133
f 32/88/134 13/79/135 79/123/136 84/14/137
f 76/108/138 77/109/139 86/15/140 81/4/141
f 67/99/142 68/100/143 89/45/144 88/44/145
f 15/85/146 39/93/147 91/47/148 90/121/149
f 66/98/150 67/99/151 88/44/152 92/48/153
f 39/93/154 7/92/155 93/49/156 91/47/157
f 69/101/158 70/102/159 95/53/160 94/52/161
f 6/84/162 38/86/163 97/55/164 96/118/165
f 68/100/166 69/101/167 94/52/168 89/45/169
f 38/86/170 15/85/171 90/121/172 97/55/173
f 16/68/174 40/67/175 98/57/176 99/115/177
f 71/103/178 72/104/179 101/59/180 100/58/181
f 40/67/182 6/84/183 96/118/184 98/57/185
f 70/102/186 71/103/187 100/58/188 95/53/189
f 8/81/190 42/69/191 102/62/192 82/5/193
f 73/105/194 74/106/195 83/6/196 103/63/197
f 42/69/198 16/68/199 99/115/200 102/62/201
f 72/104/202 73/105/203 103/63/204 101/59/205
f 17/90/206 43/89/207 104/71/208 105/110/209
f 63/94/210 64/96/211 107/73/212 106/72/213
f 43/89/214 10/87/215 85/113/216 104/71/217
f 62/95/218 63/94/219 106/72/220 87/16/221
f 7/92/222 45/91/223 108/76/224 93/49/225
f 65/97/226 66/98/227 92/48/228 109/77/229
f 45/91/230 17/90/231 105/110/232 108/76/233
f 64/96/234 65/97/235 109/77/236 107/73/237
