# This file uses meters as units for non-parametric coordinates.

mtllib Billboard.mtl
g default
v -2.500000 0.000000 200.000000
v 2.500000 0.000000 200.000000
v -2.500000 200.000000 200.000000
v 2.500000 200.000000 200.000000
v -2.500000 200.000000 -200.000000
v 2.500000 200.000000 -200.000000
v -2.500000 0.000000 -200.000000
v 2.500000 0.000000 -200.000000
vt 0.684202 0.718150
vt 0.155506 0.042365
vt 0.344204 0.724442
vt 0.912795 0.036653
vt 0.339450 0.050039
vt 0.609876 0.037423
vt 0.002248 0.052416
vt 0.458416 0.037809
vt 0.458426 0.041595
vt 0.007002 0.726820
vt 0.609885 0.041210
vt 0.004046 0.042750
vt 0.695682 0.058006
vt 0.155497 0.038579
vt 0.365609 0.052266
vt 0.354130 0.712411
vt 0.004037 0.038964
vt 0.912805 0.040440
vn 0.000000 0.000000 1.000000
vn 0.000000 0.000000 1.000000
vn 0.000000 0.000000 1.000000
vn 0.000000 0.000000 1.000000
vn 0.000000 1.000000 0.000000
vn 0.000000 1.000000 0.000000
vn 0.000000 1.000000 0.000000
vn 0.000000 1.000000 0.000000
vn 0.000000 0.000000 -1.000000
vn 0.000000 0.000000 -1.000000
vn 0.000000 0.000000 -1.000000
vn 0.000000 0.000000 -1.000000
vn 0.000000 -1.000000 0.000000
vn 0.000000 -1.000000 0.000000
vn 0.000000 -1.000000 0.000000
vn 0.000000 -1.000000 0.000000
vn 1.000000 0.000000 0.000000
vn 1.000000 0.000000 0.000000
vn 1.000000 0.000000 0.000000
vn 1.000000 0.000000 0.000000
vn -1.000000 0.000000 0.000000
vn -1.000000 0.000000 0.000000
vn -1.000000 0.000000 0.000000
vn -1.000000 0.000000 0.000000
s off
g pCube1
usemtl initialShadingGroup
f 1/14/1 2/2/2 4/12/3 3/17/4
f 3/4/5 4/18/6 6/11/7 5/6/8
f 5/6/9 6/11/10 8/9/11 7/8/12
f 7/8/13 8/9/14 2/2/15 1/14/16
f 2/10/17 8/7/18 6/5/19 4/3/20
f 7/13/21 1/1/22 3/16/23 5/15/24
g default
v -1.218679 200.000000 145.179017
v 1.218679 200.000000 145.179017
v -1.218679 220.380500 145.179017
v 1.218679 220.380500 145.179017
v -1.218679 220.380500 142.741660
v 1.218679 220.380500 142.741660
v -1.218679 200.000000 142.741660
v 1.218679 200.000000 142.741660
vt 0.811465 0.097239
vt 0.858631 0.097239
vt 0.811465 0.144405
vt 0.858631 0.144405
vt 0.811465 0.191572
vt 0.858631 0.191572
vt 0.811465 0.238738
vt 0.858631 0.238738
vt 0.811465 0.285904
vt 0.858631 0.285904
vt 0.905797 0.097239
vt 0.905797 0.144405
vt 0.764298 0.097239
vt 0.764298 0.144405
vn 0.000000 0.000000 1.000000
vn 0.000000 0.000000 1.000000
vn 0.000000 0.000000 1.000000
vn 0.000000 0.000000 1.000000
vn 0.000000 1.000000 0.000000
vn 0.000000 1.000000 0.000000
vn 0.000000 1.000000 0.000000
vn 0.000000 1.000000 0.000000
vn 0.000000 0.000000 -1.000000
vn 0.000000 0.000000 -1.000000
vn 0.000000 0.000000 -1.000000
vn 0.000000 0.000000 -1.000000
vn 0.000000 -1.000000 0.000000
vn 0.000000 -1.000000 0.000000
vn 0.000000 -1.000000 0.000000
vn 0.000000 -1.000000 0.000000
vn 1.000000 0.000000 0.000000
vn 1.000000 0.000000 0.000000
vn 1.000000 0.000000 0.000000
vn 1.000000 0.000000 0.000000
vn -1.000000 0.000000 0.000000
vn -1.000000 0.000000 0.000000
vn -1.000000 0.000000 0.000000
vn -1.000000 0.000000 0.000000
s off
g pCube2
usemtl initialShadingGroup
f 9/19/25 10/20/26 12/22/27 11/21/28
f 11/21/29 12/22/30 14/24/31 13/23/32
f 13/23/33 14/24/34 16/26/35 15/25/36
f 15/25/37 16/26/38 10/28/39 9/27/40
f 10/20/41 16/29/42 14/30/43 12/22/44
f 15/31/45 9/19/46 11/21/47 13/32/48
g default
v 11.509607 212.296638 6.882672
v 24.906696 209.133971 6.882672
v 19.726281 218.729419 0.363771
v 20.434361 218.562261 0.363771
v 19.726281 218.729419 -0.363771
v 20.434361 218.562261 -0.363771
v 11.509607 212.296638 -6.882672
v 24.906696 209.133971 -6.882672
v 12.340875 212.100382 -6.028553
v 24.075429 209.330209 -6.028553
v 24.075429 209.330209 6.028553
v 12.340875 212.100382 6.028553
v 15.882425 215.180399 -3.289392
v 22.285220 213.668884 -3.289392
v 22.285220 213.668884 3.289402
v 15.882425 215.180399 3.289402
vt 0.629575 0.784472
vt 0.679351 0.791166
vt 0.648073 0.825376
vt 0.650704 0.825729
vt 0.647714 0.828017
vt 0.650354 0.828350
vt 0.618775 0.863238
vt 0.682446 0.908536
vt 0.600738 0.912530
vt 0.643748 0.941497
vt 0.695166 0.838835
vt 0.651540 0.828249
vt 0.601728 0.826268
vt 0.646601 0.827585
vt 0.620921 0.866874
vt 0.677909 0.908328
vt 0.643484 0.937321
vt 0.604768 0.911244
vt 0.571131 0.974412
vt 0.659481 0.902303
vt 0.641849 0.917332
vt 0.623670 0.904651
vt 0.631869 0.884120
vt 0.571131 0.997035
vt 0.593754 0.997035
vt 0.593754 0.974412
vt 0.665676 0.871266
vt 0.654571 0.887038
vt 0.669142 0.868597
vn 0.143528 0.607988 0.780865
vn 0.143528 0.607988 0.780865
vn 0.143528 0.607988 0.780865
vn 0.143528 0.607988 0.780865
vn 0.229756 0.973248 0.000000
vn 0.229756 0.973248 0.000000
vn 0.229756 0.973248 0.000000
vn 0.229756 0.973248 0.000000
vn 0.143528 0.607988 -0.780865
vn 0.143528 0.607988 -0.780865
vn 0.143528 0.607988 -0.780865
vn 0.143528 0.607988 -0.780865
vn -0.229756 -0.973248 0.000000
vn -0.229756 -0.973248 0.000000
vn -0.229756 -0.973248 0.000000
vn -0.229756 -0.973248 0.000000
vn 0.903504 0.428580 0.000000
vn 0.903504 0.428580 0.000000
vn 0.903504 0.428580 0.000000
vn 0.903504 0.428580 0.000000
vn -0.616447 0.787396 0.000000
vn -0.616447 0.787396 0.000000
vn -0.616447 0.787396 0.000000
vn -0.616447 0.787396 0.000000
vn -0.229755 -0.973248 -0.000010
vn -0.229755 -0.973248 -0.000010
vn -0.229755 -0.973248 -0.000010
vn -0.229755 -0.973248 -0.000010
vn -0.229756 -0.973248 0.000000
vn -0.229756 -0.973248 0.000000
vn -0.229756 -0.973248 0.000000
vn -0.229756 -0.973248 0.000000
vn -0.229755 -0.973248 0.000010
vn -0.229755 -0.973248 0.000010
vn -0.229755 -0.973248 0.000010
vn -0.229755 -0.973248 0.000010
vn -0.229775 -0.973244 0.000000
vn -0.229775 -0.973244 0.000000
vn -0.229775 -0.973244 0.000000
vn -0.229775 -0.973244 0.000000
vn -0.134086 -0.567994 0.812037
vn -0.134086 -0.567994 0.812037
vn -0.134086 -0.567994 0.812037
vn -0.134086 -0.567994 0.812037
vn -0.924401 -0.381423 0.000000
vn -0.924401 -0.381423 0.000000
vn -0.924401 -0.381423 0.000000
vn -0.924401 -0.381423 0.000000
vn -0.134086 -0.567992 -0.812038
vn -0.134086 -0.567992 -0.812038
vn -0.134086 -0.567992 -0.812038
vn -0.134086 -0.567992 -0.812038
vn 0.656228 -0.754562 0.000000
vn 0.656228 -0.754562 0.000000
vn 0.656228 -0.754562 0.000000
vn 0.656228 -0.754562 0.000000
s off
g pCube3
usemtl initialShadingGroup
f 17/33/49 18/34/50 20/36/51 19/35/52
f 19/35/53 20/36/54 22/38/55 21/37/56
f 21/37/57 22/38/58 24/61/59 23/39/60
f 29/51/61 30/58/62 31/57/63 32/56/64
f 18/34/65 24/43/66 22/44/67 20/36/68
f 23/45/69 17/33/70 19/35/71 21/46/72
f 23/39/73 24/61/74 26/59/75 25/47/76
f 24/40/77 18/42/78 27/49/79 26/48/80
f 18/42/81 17/41/82 28/50/83 27/49/84
f 17/41/85 23/39/86 25/47/87 28/50/88
f 25/47/89 26/59/90 30/60/91 29/55/92
f 26/48/93 27/49/94 31/53/95 30/52/96
f 27/49/97 28/50/98 32/54/99 31/53/100
f 28/50/101 25/47/102 29/55/103 32/54/104
g default
v -1.218679 200.000000 1.218679
v 1.218679 200.000000 1.218679
v -1.218679 220.380500 1.218679
v 1.218679 220.380500 1.218679
v -1.218679 220.380500 -1.218679
v 1.218679 220.380500 -1.218679
v -1.218679 200.000000 -1.218679
v 1.218679 200.000000 -1.218679
vt 0.901792 0.482671
vt 0.940010 0.482671
vt 0.901792 0.520889
vt 0.940010 0.520889
vt 0.901792 0.559107
vt 0.940010 0.559107
vt 0.901792 0.597325
vt 0.940010 0.597325
vt 0.901792 0.635543
vt 0.940010 0.635543
vt 0.978227 0.482671
vt 0.978227 0.520889
vt 0.863574 0.482671
vt 0.863574 0.520889
vn 0.000000 0.000000 1.000000
vn 0.000000 0.000000 1.000000
vn 0.000000 0.000000 1.000000
vn 0.000000 0.000000 1.000000
vn 0.000000 1.000000 0.000000
vn 0.000000 1.000000 0.000000
vn 0.000000 1.000000 0.000000
vn 0.000000 1.000000 0.000000
vn 0.000000 0.000000 -1.000000
vn 0.000000 0.000000 -1.000000
vn 0.000000 0.000000 -1.000000
vn 0.000000 0.000000 -1.000000
vn 0.000000 -1.000000 0.000000
vn 0.000000 -1.000000 0.000000
vn 0.000000 -1.000000 0.000000
vn 0.000000 -1.000000 0.000000
vn 1.000000 0.000000 0.000000
vn 1.000000 0.000000 0.000000
vn 1.000000 0.000000 0.000000
vn 1.000000 0.000000 0.000000
vn -1.000000 0.000000 0.000000
vn -1.000000 0.000000 0.000000
vn -1.000000 0.000000 0.000000
vn -1.000000 0.000000 0.000000
s off
g pasted__pCube2 group1
usemtl initialShadingGroup
f 33/62/105 34/63/106 36/65/107 35/64/108
f 35/64/109 36/65/110 38/67/111 37/66/112
f 37/66/113 38/67/114 40/69/115 39/68/116
f 39/68/117 40/69/118 34/71/119 33/70/120
f 34/63/121 40/72/122 38/73/123 36/65/124
f 39/74/125 33/62/126 35/64/127 37/75/128
g default
v 11.509607 212.296638 150.799000
v 24.906696 209.133971 150.799000
v 19.726281 218.729419 144.280099
v 20.434361 218.562261 144.280099
v 19.726281 218.729419 143.552558
v 20.434361 218.562261 143.552558
v 11.509607 212.296638 137.033657
v 24.906696 209.133971 137.033657
v 12.340875 212.100382 137.887775
v 24.075429 209.330209 137.887775
v 24.075429 209.330209 149.944881
v 12.340875 212.100382 149.944881
v 15.882424 215.180399 140.626931
v 22.285219 213.668884 140.626931
v 22.285219 213.668884 147.205725
v 15.882424 215.180399 147.205725
vt 0.163856 0.822475
vt 0.209739 0.820693
vt 0.186935 0.856414
vt 0.189360 0.856319
vt 0.187027 0.858849
vt 0.189457 0.858735
vt 0.166488 0.895113
vt 0.230945 0.925922
vt 0.157977 0.942341
vt 0.201262 0.961683
vt 0.231463 0.861146
vt 0.190508 0.858458
vt 0.145333 0.864490
vt 0.185956 0.858635
vt 0.168991 0.898052
vt 0.226825 0.926446
vt 0.200368 0.957963
vt 0.161406 0.940551
vt 0.264733 0.887689
vt 0.209282 0.923912
vt 0.195759 0.940216
vt 0.177395 0.931646
vt 0.181559 0.911867
vt 0.264733 0.949770
vt 0.326813 0.949770
vt 0.326813 0.887689
vt 0.209991 0.894984
vt 0.202465 0.910933
vt 0.212694 0.892037
vn 0.143528 0.607988 0.780865
vn 0.143528 0.607988 0.780865
vn 0.143528 0.607988 0.780865
vn 0.143528 0.607988 0.780865
vn 0.229756 0.973248 0.000000
vn 0.229756 0.973248 0.000000
vn 0.229756 0.973248 0.000000
vn 0.229756 0.973248 0.000000
vn 0.143528 0.607988 -0.780865
vn 0.143528 0.607988 -0.780865
vn 0.143528 0.607988 -0.780865
vn 0.143528 0.607988 -0.780865
vn -0.229756 -0.973248 0.000000
vn -0.229756 -0.973248 0.000000
vn -0.229756 -0.973248 0.000000
vn -0.229756 -0.973248 0.000000
vn 0.903504 0.428580 0.000000
vn 0.903504 0.428580 0.000000
vn 0.903504 0.428580 0.000000
vn 0.903504 0.428580 0.000000
vn -0.616447 0.787396 0.000000
vn -0.616447 0.787396 0.000000
vn -0.616447 0.787396 0.000000
vn -0.616447 0.787396 0.000000
vn -0.229755 -0.973248 -0.000010
vn -0.229755 -0.973248 -0.000010
vn -0.229755 -0.973248 -0.000010
vn -0.229755 -0.973248 -0.000010
vn -0.229756 -0.973248 0.000000
vn -0.229756 -0.973248 0.000000
vn -0.229756 -0.973248 0.000000
vn -0.229756 -0.973248 0.000000
vn -0.229755 -0.973248 0.000010
vn -0.229755 -0.973248 0.000010
vn -0.229755 -0.973248 0.000010
vn -0.229755 -0.973248 0.000010
vn -0.229775 -0.973244 0.000000
vn -0.229775 -0.973244 0.000000
vn -0.229775 -0.973244 0.000000
vn -0.229775 -0.973244 0.000000
vn -0.134086 -0.567993 0.812038
vn -0.134086 -0.567993 0.812038
vn -0.134086 -0.567993 0.812037
vn -0.134086 -0.567993 0.812038
vn -0.924401 -0.381423 0.000000
vn -0.924401 -0.381423 0.000000
vn -0.924401 -0.381423 0.000000
vn -0.924401 -0.381423 0.000000
vn -0.134086 -0.567993 -0.812038
vn -0.134086 -0.567993 -0.812038
vn -0.134086 -0.567993 -0.812038
vn -0.134086 -0.567993 -0.812038
vn 0.656228 -0.754562 0.000000
vn 0.656228 -0.754562 0.000000
vn 0.656228 -0.754562 0.000000
vn 0.656228 -0.754562 0.000000
s off
g pasted__pCube3 group6
usemtl initialShadingGroup
f 41/76/129 42/77/130 44/79/131 43/78/132
f 43/78/133 44/79/134 46/81/135 45/80/136
f 45/80/137 46/81/138 48/104/139 47/82/140
f 53/94/141 54/101/142 55/100/143 56/99/144
f 42/77/145 48/86/146 46/87/147 44/79/148
f 47/88/149 41/76/150 43/78/151 45/89/152
f 47/82/153 48/104/154 50/102/155 49/90/156
f 48/83/157 42/85/158 51/92/159 50/91/160
f 42/85/161 41/84/162 52/93/163 51/92/164
f 41/84/165 47/82/166 49/90/167 52/93/168
f 49/90/169 50/102/170 54/103/171 53/98/172
f 50/91/173 51/92/174 55/96/175 54/95/176
f 51/92/177 52/93/178 56/97/179 55/96/180
f 52/93/181 49/90/182 53/98/183 56/97/184
g default
v 11.509607 212.296638 -126.780952
v 24.906696 209.133971 -126.780952
v 19.726281 218.729419 -133.299853
v 20.434361 218.562261 -133.299853
v 19.726281 218.729419 -134.027394
v 20.434361 218.562261 -134.027394
v 11.509607 212.296638 -140.546296
v 24.906696 209.133971 -140.546296
v 12.340875 212.100382 -139.692177
v 24.075429 209.330209 -139.692177
v 24.075429 209.330209 -127.635071
v 12.340875 212.100382 -127.635071
v 15.882424 215.180399 -136.953021
v 22.285219 213.668884 -136.953021
v 22.285219 213.668884 -130.374227
v 15.882424 215.180399 -130.374227
vt 0.350453 0.822127
vt 0.391400 0.820537
vt 0.371049 0.852416
vt 0.373214 0.852331
vt 0.371131 0.854589
vt 0.373300 0.854487
vt 0.352802 0.886952
vt 0.410325 0.914446
vt 0.345206 0.929100
vt 0.383835 0.946361
vt 0.410788 0.856639
vt 0.374238 0.854239
vt 0.333922 0.859623
vt 0.370176 0.854397
vt 0.355036 0.889575
vt 0.406649 0.914914
vt 0.383038 0.943041
vt 0.348266 0.927502
vt 0.410727 0.872995
vt 0.390992 0.912652
vt 0.378924 0.927203
vt 0.362536 0.919555
vt 0.366252 0.901904
vt 0.410727 0.903279
vt 0.441011 0.903279
vt 0.441011 0.872995
vt 0.391625 0.886837
vt 0.384909 0.901070
vt 0.394038 0.884206
vn 0.143528 0.607988 0.780865
vn 0.143528 0.607988 0.780865
vn 0.143528 0.607988 0.780865
vn 0.143528 0.607988 0.780865
vn 0.229756 0.973248 0.000000
vn 0.229756 0.973248 0.000000
vn 0.229756 0.973248 0.000000
vn 0.229756 0.973248 0.000000
vn 0.143528 0.607988 -0.780865
vn 0.143528 0.607988 -0.780865
vn 0.143528 0.607988 -0.780865
vn 0.143528 0.607988 -0.780865
vn -0.229756 -0.973248 0.000000
vn -0.229756 -0.973248 0.000000
vn -0.229756 -0.973248 0.000000
vn -0.229756 -0.973248 0.000000
vn 0.903504 0.428580 0.000000
vn 0.903504 0.428580 0.000000
vn 0.903504 0.428580 0.000000
vn 0.903504 0.428580 0.000000
vn -0.616447 0.787396 0.000000
vn -0.616447 0.787396 0.000000
vn -0.616447 0.787396 0.000000
vn -0.616447 0.787396 0.000000
vn -0.229755 -0.973248 -0.000010
vn -0.229755 -0.973248 -0.000010
vn -0.229755 -0.973248 -0.000010
vn -0.229755 -0.973248 -0.000010
vn -0.229756 -0.973248 0.000000
vn -0.229756 -0.973248 0.000000
vn -0.229756 -0.973248 0.000000
vn -0.229756 -0.973248 0.000000
vn -0.229755 -0.973248 0.000010
vn -0.229755 -0.973248 0.000010
vn -0.229755 -0.973248 0.000010
vn -0.229755 -0.973248 0.000010
vn -0.229775 -0.973244 0.000000
vn -0.229775 -0.973244 0.000000
vn -0.229775 -0.973244 0.000000
vn -0.229775 -0.973244 0.000000
vn -0.134086 -0.567993 0.812038
vn -0.134086 -0.567993 0.812038
vn -0.134086 -0.567993 0.812037
vn -0.134086 -0.567993 0.812038
vn -0.924401 -0.381423 0.000000
vn -0.924401 -0.381423 0.000000
vn -0.924401 -0.381423 0.000000
vn -0.924401 -0.381423 0.000000
vn -0.134086 -0.567993 -0.812038
vn -0.134086 -0.567993 -0.812038
vn -0.134086 -0.567993 -0.812038
vn -0.134086 -0.567993 -0.812038
vn 0.656228 -0.754562 0.000000
vn 0.656228 -0.754562 0.000000
vn 0.656228 -0.754562 0.000000
vn 0.656228 -0.754562 0.000000
s off
g pasted__pCube3 group7
usemtl initialShadingGroup
f 57/105/185 58/106/186 60/108/187 59/107/188
f 59/107/189 60/108/190 62/110/191 61/109/192
f 61/109/193 62/110/194 64/133/195 63/111/196
f 69/123/197 70/130/198 71/129/199 72/128/200
f 58/106/201 64/115/202 62/116/203 60/108/204
f 63/117/205 57/105/206 59/107/207 61/118/208
f 63/111/209 64/133/210 66/131/211 65/119/212
f 64/112/213 58/114/214 67/121/215 66/120/216
f 58/114/217 57/113/218 68/122/219 67/121/220
f 57/113/221 63/111/222 65/119/223 68/122/224
f 65/119/225 66/131/226 70/132/227 69/127/228
f 66/120/229 67/121/230 71/125/231 70/124/232
f 67/121/233 68/122/234 72/126/235 71/125/236
f 68/122/237 65/119/238 69/127/239 72/126/240
g default
v -1.218679 200.000000 -132.310381
v 1.218679 200.000000 -132.310381
v -1.218679 220.380500 -132.310381
v 1.218679 220.380500 -132.310381
v -1.218679 220.380500 -134.747738
v 1.218679 220.380500 -134.747738
v -1.218679 200.000000 -134.747738
v 1.218679 200.000000 -134.747738
vt 0.077608 0.751343
vt 0.136706 0.751343
vt 0.077608 0.810441
vt 0.136706 0.810441
vt 0.077608 0.869539
vt 0.136706 0.869539
vt 0.077608 0.928636
vt 0.136706 0.928636
vt 0.077608 0.987734
vt 0.136706 0.987734
vt 0.195804 0.751343
vt 0.195804 0.810441
vt 0.018511 0.751343
vt 0.018511 0.810441
vn 0.000000 0.000000 1.000000
vn 0.000000 0.000000 1.000000
vn 0.000000 0.000000 1.000000
vn 0.000000 0.000000 1.000000
vn 0.000000 1.000000 0.000000
vn 0.000000 1.000000 0.000000
vn 0.000000 1.000000 0.000000
vn 0.000000 1.000000 0.000000
vn 0.000000 0.000000 -1.000000
vn 0.000000 0.000000 -1.000000
vn 0.000000 0.000000 -1.000000
vn 0.000000 0.000000 -1.000000
vn 0.000000 -1.000000 0.000000
vn 0.000000 -1.000000 0.000000
vn 0.000000 -1.000000 0.000000
vn 0.000000 -1.000000 0.000000
vn 1.000000 0.000000 0.000000
vn 1.000000 0.000000 0.000000
vn 1.000000 0.000000 0.000000
vn 1.000000 0.000000 0.000000
vn -1.000000 0.000000 0.000000
vn -1.000000 0.000000 0.000000
vn -1.000000 0.000000 0.000000
vn -1.000000 0.000000 0.000000
s off
g pasted__pasted__pCube2 pasted__group1 group2
usemtl initialShadingGroup
f 73/134/241 74/135/242 76/137/243 75/136/244
f 75/136/245 76/137/246 78/139/247 77/138/248
f 77/138/249 78/139/250 80/141/251 79/140/252
f 79/140/253 80/141/254 74/143/255 73/142/256
f 74/135/257 80/144/258 78/145/259 76/137/260
f 79/146/261 73/134/262 75/136/263 77/147/264
g default
v 21.381756 217.957672 1.218679
v 21.381756 220.395029 1.218679
v 1.001256 217.957672 1.218679
v 1.001256 220.395029 1.218679
v 1.001256 217.957672 -1.218679
v 1.001256 220.395029 -1.218679
v 21.381756 217.957672 -1.218679
v 21.381756 220.395029 -1.218679
vt 0.888542 0.812385
vt 0.923777 0.812385
vt 0.888542 0.847620
vt 0.923777 0.847620
vt 0.888542 0.882855
vt 0.923777 0.882855
vt 0.888542 0.918090
vt 0.923777 0.918090
vt 0.888542 0.953325
vt 0.923777 0.953325
vt 0.959012 0.812385
vt 0.959012 0.847620
vt 0.853307 0.812385
vt 0.853307 0.847620
vn 0.000000 0.000000 1.000000
vn 0.000000 0.000000 1.000000
vn 0.000000 0.000000 1.000000
vn 0.000000 0.000000 1.000000
vn -1.000000 0.000000 0.000000
vn -1.000000 0.000000 0.000000
vn -1.000000 0.000000 0.000000
vn -1.000000 0.000000 0.000000
vn 0.000000 0.000000 -1.000000
vn 0.000000 0.000000 -1.000000
vn 0.000000 0.000000 -1.000000
vn 0.000000 0.000000 -1.000000
vn 1.000000 0.000000 0.000000
vn 1.000000 0.000000 0.000000
vn 1.000000 0.000000 0.000000
vn 1.000000 0.000000 0.000000
vn 0.000000 1.000000 0.000000
vn 0.000000 1.000000 0.000000
vn 0.000000 1.000000 0.000000
vn 0.000000 1.000000 0.000000
vn 0.000000 -1.000000 0.000000
vn 0.000000 -1.000000 0.000000
vn 0.000000 -1.000000 0.000000
vn 0.000000 -1.000000 0.000000
s off
g pasted__pasted__pasted__pCube2 pasted__pasted__group1 pasted__group2 group3
usemtl initialShadingGroup
f 81/148/265 82/149/266 84/151/267 83/150/268
f 83/150/269 84/151/270 86/153/271 85/152/272
f 85/152/273 86/153/274 88/155/275 87/154/276
f 87/154/277 88/155/278 82/157/279 81/156/280
f 82/149/281 88/158/282 86/159/283 84/151/284
f 87/160/285 81/148/286 83/150/287 85/161/288
g default
v 21.381756 217.957672 -132.310381
v 21.381756 220.395029 -132.310381
v 1.001256 217.957672 -132.310381
v 1.001256 220.395029 -132.310381
v 1.001256 217.957672 -134.747738
v 1.001256 220.395029 -134.747738
v 21.381756 217.957672 -134.747738
v 21.381756 220.395029 -134.747738
vt 0.450897 0.753729
vt 0.510777 0.753729
vt 0.450897 0.813610
vt 0.510777 0.813610
vt 0.450897 0.873490
vt 0.510777 0.873490
vt 0.450897 0.933371
vt 0.510777 0.933371
vt 0.450897 0.993252
vt 0.510777 0.993252
vt 0.570658 0.753729
vt 0.570658 0.813610
vt 0.391016 0.753729
vt 0.391016 0.813610
vn 0.000000 0.000000 1.000000
vn 0.000000 0.000000 1.000000
vn 0.000000 0.000000 1.000000
vn 0.000000 0.000000 1.000000
vn -1.000000 0.000000 0.000000
vn -1.000000 0.000000 0.000000
vn -1.000000 0.000000 0.000000
vn -1.000000 0.000000 0.000000
vn 0.000000 0.000000 -1.000000
vn 0.000000 0.000000 -1.000000
vn 0.000000 0.000000 -1.000000
vn 0.000000 0.000000 -1.000000
vn 1.000000 0.000000 0.000000
vn 1.000000 0.000000 0.000000
vn 1.000000 0.000000 0.000000
vn 1.000000 0.000000 0.000000
vn 0.000000 1.000000 0.000000
vn 0.000000 1.000000 0.000000
vn 0.000000 1.000000 0.000000
vn 0.000000 1.000000 0.000000
vn 0.000000 -1.000000 0.000000
vn 0.000000 -1.000000 0.000000
vn 0.000000 -1.000000 0.000000
vn 0.000000 -1.000000 0.000000
s off
g pasted__pasted__pasted__pasted__pCube2 pasted__pasted__pasted__group1 pasted__pasted__group2 pasted__group3 group4
usemtl initialShadingGroup
f 89/162/289 90/163/290 92/165/291 91/164/292
f 91/164/293 92/165/294 94/167/295 93/166/296
f 93/166/297 94/167/298 96/169/299 95/168/300
f 95/168/301 96/169/302 90/171/303 89/170/304
f 90/163/305 96/172/306 94/173/307 92/165/308
f 95/174/309 89/162/310 91/164/311 93/175/312
g default
v 21.381756 217.957672 145.202763
v 21.381756 220.395029 145.202763
v 1.001256 217.957672 145.202763
v 1.001256 220.395029 145.202763
v 1.001256 217.957672 142.765406
v 1.001256 220.395029 142.765406
v 21.381756 217.957672 142.765406
v 21.381756 220.395029 142.765406
vt 0.776851 0.327335
vt 0.827000 0.327335
vt 0.776851 0.377484
vt 0.827000 0.377484
vt 0.776851 0.427633
vt 0.827000 0.427633
vt 0.776851 0.477782
vt 0.827000 0.477782
vt 0.776851 0.527931
vt 0.827000 0.527931
vt 0.877149 0.327335
vt 0.877149 0.377484
vt 0.726702 0.327335
vt 0.726702 0.377484
vn 0.000000 0.000000 1.000000
vn 0.000000 0.000000 1.000000
vn 0.000000 0.000000 1.000000
vn 0.000000 0.000000 1.000000
vn -1.000000 0.000000 0.000000
vn -1.000000 0.000000 0.000000
vn -1.000000 0.000000 0.000000
vn -1.000000 0.000000 0.000000
vn 0.000000 0.000000 -1.000000
vn 0.000000 0.000000 -1.000000
vn 0.000000 0.000000 -1.000000
vn 0.000000 0.000000 -1.000000
vn 1.000000 0.000000 0.000000
vn 1.000000 0.000000 0.000000
vn 1.000000 0.000000 0.000000
vn 1.000000 0.000000 0.000000
vn 0.000000 1.000000 0.000000
vn 0.000000 1.000000 0.000000
vn 0.000000 1.000000 0.000000
vn 0.000000 1.000000 0.000000
vn 0.000000 -1.000000 0.000000
vn 0.000000 -1.000000 0.000000
vn 0.000000 -1.000000 0.000000
vn 0.000000 -1.000000 0.000000
s off
g pasted__pasted__pasted__pasted__pCube2 pasted__pasted__pasted__group1 pasted__pasted__group2 pasted__group3 group5
usemtl initialShadingGroup
f 97/176/313 98/177/314 100/179/315 99/178/316
f 99/178/317 100/179/318 102/181/319 101/180/320
f 101/180/321 102/181/322 104/183/323 103/182/324
f 103/182/325 104/183/326 98/185/327 97/184/328
f 98/177/329 104/186/330 102/187/331 100/179/332
f 103/188/333 97/176/334 99/178/335 101/189/336
